<svg width="22" height="22" viewBox="0 0 22 22" fill="none" xmlns="http://www.w3.org/2000/svg">
<path fill-rule="evenodd" clip-rule="evenodd" d="M1.5 1.64332C1.7936 1.64332 1.89551 1.64396 1.98233 1.65129C2.82583 1.7225 3.55798 2.2611 3.87707 3.04515C3.90992 3.12585 3.94087 3.22295 4.02828 3.50324L5.96995 9.72952L5.9833 9.77234L5.98331 9.77236C6.28867 10.7516 6.53697 11.5478 6.81208 12.1683C7.0991 12.8156 7.44474 13.3434 7.98479 13.7407C8.52483 14.1379 9.13155 14.3108 9.83498 14.3921C10.5092 14.47 11.3433 14.47 12.369 14.47H12.3691H12.4139H14.5531H14.5982C15.6312 14.47 16.471 14.47 17.1495 14.3913C17.8573 14.3091 18.4675 14.1344 19.0095 13.7327C19.5514 13.3311 19.896 12.7981 20.1805 12.1448C20.4533 11.5186 20.6976 10.7151 20.9981 9.7267L20.9981 9.72667L21.0112 9.68359L21.1475 9.23511L21.1651 9.17725C21.5095 8.04471 21.7922 7.11525 21.9051 6.36896C22.0227 5.59177 21.9833 4.85334 21.5108 4.21586C21.0384 3.57837 20.3433 3.32591 19.5655 3.21233C18.8187 3.10326 17.8472 3.10328 16.6634 3.10331L16.603 3.10332H5.5C5.49161 3.10332 5.48326 3.10345 5.47494 3.10373L5.46027 3.05667L5.45022 3.02444C5.37666 2.78846 5.32619 2.62657 5.26642 2.47971C4.73459 1.17296 3.51434 0.275289 2.10852 0.156607C1.95052 0.143269 1.78094 0.143287 1.53377 0.143313L1.5 0.143315H1C0.585786 0.143315 0.25 0.479102 0.25 0.893315C0.25 1.30753 0.585786 1.64332 1 1.64332H1.5ZM8.75 18.6533C8.75 17.9871 9.30012 17.4299 10 17.4299C10.6999 17.4299 11.25 17.9871 11.25 18.6533C11.25 19.3194 10.6999 19.8766 10 19.8766C9.30012 19.8766 8.75 19.3194 8.75 18.6533ZM10 15.9299C8.49074 15.9299 7.25 17.1397 7.25 18.6533C7.25 20.1668 8.49074 21.3766 10 21.3766C11.5093 21.3766 12.75 20.1668 12.75 18.6533C12.75 17.1397 11.5093 15.9299 10 15.9299ZM16.75 18.6533C16.75 17.9871 17.3001 17.4299 18 17.4299C18.6999 17.4299 19.25 17.9871 19.25 18.6533C19.25 19.3194 18.6999 19.8766 18 19.8766C17.3001 19.8766 16.75 19.3194 16.75 18.6533ZM18 15.9299C16.4907 15.9299 15.25 17.1397 15.25 18.6533C15.25 20.1668 16.4907 21.3766 18 21.3766C19.5093 21.3766 20.75 20.1668 20.75 18.6533C20.75 17.1397 19.5093 15.9299 18 15.9299Z" fill="#6E6655"/>
</svg>
