<svg width="15" height="14" viewBox="0 0 15 14" fill="none" xmlns="http://www.w3.org/2000/svg">
<path fill-rule="evenodd" clip-rule="evenodd" d="M12.9932 1.49677C11.3555 -0.140932 8.70028 -0.140933 7.06257 1.49677L6.54686 2.01248C6.33325 2.22609 6.33325 2.57243 6.54686 2.78604C6.76048 2.99966 7.10681 2.99966 7.32043 2.78604L7.83614 2.27033C9.04661 1.05986 11.0092 1.05986 12.2197 2.27033C13.4301 3.48081 13.4301 5.44338 12.2197 6.65386L10.9899 7.88363C9.88896 8.98456 8.104 8.98456 7.00307 7.88363L6.80472 7.68528C6.5911 7.47166 6.24477 7.47166 6.03116 7.68528C5.81754 7.89889 5.81754 8.24523 6.03116 8.45884L6.22951 8.65719C7.75766 10.1853 10.2353 10.1854 11.7635 8.65719L12.9932 7.42742C14.6309 5.78972 14.6309 3.13448 12.9932 1.49677ZM3.90885 6.19757C5.00979 5.09664 6.79475 5.09664 7.89568 6.19757L8.09403 6.39592C8.30764 6.60953 8.65398 6.60953 8.86759 6.39592C9.08121 6.18231 9.08121 5.83597 8.86759 5.62236L8.66924 5.42401C7.14108 3.89585 4.66345 3.89585 3.13529 5.42401L1.90552 6.65377C0.267821 8.29148 0.267819 10.9467 1.90552 12.5844C3.54323 14.2221 6.19847 14.2221 7.83618 12.5844L8.35188 12.0687C8.5655 11.8551 8.5655 11.5088 8.35188 11.2952C8.13827 11.0815 7.79193 11.0815 7.57832 11.2952L7.06261 11.8109C5.85214 13.0213 3.88956 13.0213 2.67909 11.8109C1.46861 10.6004 1.46861 8.63782 2.67909 7.42734L3.90885 6.19757Z" fill="#6E6655"/>
</svg>
