<svg width="26" height="31" viewBox="0 0 26 31" fill="none" xmlns="http://www.w3.org/2000/svg">
<g filter="url(#filter0_d_2011_4277)">
<path fill-rule="evenodd" clip-rule="evenodd" d="M10.7759 2.93164H10.7307C9.59628 2.93163 8.68159 2.93161 7.9521 3.01385C7.19783 3.09889 6.54931 3.27972 5.99302 3.70657C5.73303 3.90607 5.50031 4.13879 5.3008 4.39879C4.87395 4.95507 4.69313 5.60359 4.60809 6.35786C4.52585 7.08735 4.52586 8.00204 4.52588 9.13645V9.18164V16.1816V16.2268C4.52586 17.3612 4.52585 18.2759 4.60809 19.0054C4.69313 19.7597 4.87395 20.4082 5.3008 20.9645C5.50031 21.2245 5.73303 21.4572 5.99302 21.6567C6.54931 22.0836 7.19783 22.2644 7.9521 22.3494C8.68159 22.4317 9.59627 22.4317 10.7307 22.4316H10.7759H11.2759C11.6901 22.4316 12.0259 22.0959 12.0259 21.6816C12.0259 21.2674 11.6901 20.9316 11.2759 20.9316H10.7759C9.58565 20.9316 8.75575 20.9305 8.12014 20.8589C7.49964 20.7889 7.1578 20.6598 6.90617 20.4667C6.75017 20.347 6.61054 20.2074 6.49083 20.0514C6.29774 19.7997 6.1686 19.4579 6.09865 18.8374C6.02699 18.2018 6.02588 17.3719 6.02588 16.1816V9.18164C6.02588 7.99141 6.02699 7.16151 6.09865 6.5259C6.1686 5.9054 6.29774 5.56357 6.49083 5.31193C6.61054 5.15593 6.75017 5.0163 6.90617 4.8966C7.1578 4.70351 7.49964 4.57436 8.12014 4.50441C8.75575 4.43276 9.58565 4.43164 10.7759 4.43164H11.2759C11.6901 4.43164 12.0259 4.09585 12.0259 3.68164C12.0259 3.26743 11.6901 2.93164 11.2759 2.93164H10.7759ZM16.8062 8.15131C16.5133 7.85842 16.0384 7.85842 15.7455 8.15131C15.4527 8.4442 15.4527 8.91908 15.7455 9.21197L18.4652 11.9316H11.2759C10.8617 11.9316 10.5259 12.2674 10.5259 12.6816C10.5259 13.0959 10.8617 13.4316 11.2759 13.4316H18.4652L15.7455 16.1513C15.4527 16.4442 15.4527 16.9191 15.7455 17.212C16.0384 17.5049 16.5133 17.5049 16.8062 17.212L20.8062 13.212C21.0991 12.9191 21.0991 12.4442 20.8062 12.1513L16.8062 8.15131Z" fill="#6E6655"/>
</g>
<defs>
<filter id="filter0_d_2011_4277" x="-3.72412" y="0.681641" width="32" height="32" filterUnits="userSpaceOnUse" color-interpolation-filters="sRGB">
<feFlood flood-opacity="0" result="BackgroundImageFix"/>
<feColorMatrix in="SourceAlpha" type="matrix" values="0 0 0 0 0 0 0 0 0 0 0 0 0 0 0 0 0 0 127 0" result="hardAlpha"/>
<feOffset dy="4"/>
<feGaussianBlur stdDeviation="2"/>
<feComposite in2="hardAlpha" operator="out"/>
<feColorMatrix type="matrix" values="0 0 0 0 0 0 0 0 0 0 0 0 0 0 0 0 0 0 0.25 0"/>
<feBlend mode="normal" in2="BackgroundImageFix" result="effect1_dropShadow_2011_4277"/>
<feBlend mode="normal" in="SourceGraphic" in2="effect1_dropShadow_2011_4277" result="shape"/>
</filter>
</defs>
</svg>
