<svg width="21" height="21" viewBox="0 0 21 21" fill="none" xmlns="http://www.w3.org/2000/svg">
<path fill-rule="evenodd" clip-rule="evenodd" d="M16.2266 0.931641H16.1882C15.5186 0.931624 14.9599 0.93161 14.5076 0.977625C14.0341 1.02579 13.5947 1.1305 13.1987 1.3951C12.8985 1.59574 12.6407 1.85355 12.44 2.15382C12.1754 2.54982 12.0707 2.98919 12.0225 3.46266C11.9765 3.91499 11.9765 4.47372 11.9766 5.1433L11.9766 5.18164L11.9766 5.21999C11.9765 5.88957 11.9765 6.44829 12.0225 6.90062C12.0707 7.37409 12.1754 7.81346 12.44 8.20946C12.6407 8.50973 12.8985 8.76755 13.1987 8.96818C13.5947 9.23278 14.0341 9.33749 14.5076 9.38566C14.9599 9.43167 15.5186 9.43166 16.1882 9.43164L16.2266 9.43164L16.2649 9.43164C16.9345 9.43166 17.4932 9.43167 17.9455 9.38566C18.419 9.33749 18.8584 9.23278 19.2544 8.96818C19.5547 8.76755 19.8125 8.50973 20.0131 8.20946C20.2777 7.81346 20.3824 7.37409 20.4306 6.90062C20.4766 6.44829 20.4766 5.88956 20.4766 5.21998V5.18164V5.1433C20.4766 4.47372 20.4766 3.91499 20.4306 3.46266C20.3824 2.98919 20.2777 2.54982 20.0131 2.15382C19.8125 1.85355 19.5547 1.59574 19.2544 1.3951C18.8584 1.1305 18.419 1.02579 17.9455 0.977625C17.4932 0.93161 16.9345 0.931624 16.2649 0.931641H16.2266ZM5.22656 0.931641H5.18822H5.18821C4.51864 0.931625 3.95991 0.931611 3.50758 0.977625C3.03411 1.02579 2.59474 1.1305 2.19875 1.3951C1.89847 1.59574 1.64066 1.85355 1.44002 2.15382C1.17543 2.54982 1.07071 2.98919 1.02255 3.46266C0.976533 3.91499 0.976547 4.47371 0.976563 5.14329V5.1433V5.18164V5.21999V5.22C0.976547 5.88957 0.976533 6.44829 1.02255 6.90062C1.07071 7.37409 1.17543 7.81346 1.44002 8.20946C1.64066 8.50973 1.89847 8.76755 2.19875 8.96818C2.59474 9.23278 3.03411 9.33749 3.50758 9.38566C3.95992 9.43167 4.51864 9.43166 5.18823 9.43164L5.22656 9.43164L5.2649 9.43164C5.93448 9.43166 6.49321 9.43167 6.94554 9.38566C7.41902 9.33749 7.85839 9.23278 8.25438 8.96818C8.55466 8.76755 8.81247 8.50973 9.01311 8.20946C9.2777 7.81346 9.38242 7.37409 9.43058 6.90062C9.47659 6.44829 9.47658 5.88956 9.47657 5.21998L9.47656 5.18164L9.47657 5.1433C9.47658 4.47372 9.47659 3.91499 9.43058 3.46266C9.38242 2.98919 9.2777 2.54982 9.01311 2.15382C8.81247 1.85355 8.55466 1.59574 8.25438 1.3951C7.85839 1.1305 7.41902 1.02579 6.94554 0.977625C6.49321 0.931611 5.93449 0.931625 5.26492 0.931641H5.26491H5.22656ZM5.18822 11.9316L5.22656 11.9316L5.26491 11.9316C5.93449 11.9316 6.49321 11.9316 6.94554 11.9776C7.41902 12.0258 7.85839 12.1305 8.25438 12.3951C8.55465 12.5957 8.81247 12.8536 9.0131 13.1538C9.2777 13.5498 9.38241 13.9892 9.43058 14.4627C9.47659 14.915 9.47658 15.4737 9.47656 16.1433L9.47656 16.1816L9.47656 16.22C9.47658 16.8896 9.47659 17.4483 9.43058 17.9006C9.38241 18.3741 9.2777 18.8135 9.0131 19.2095C8.81247 19.5097 8.55465 19.7675 8.25438 19.9682C7.85839 20.2328 7.41902 20.3375 6.94554 20.3857C6.49321 20.4317 5.93448 20.4317 5.2649 20.4316H5.22656H5.18822C4.51864 20.4317 3.95992 20.4317 3.50758 20.3857C3.03411 20.3375 2.59474 20.2328 2.19875 19.9682C1.89847 19.7675 1.64066 19.5097 1.44002 19.2095C1.17543 18.8135 1.07071 18.3741 1.02255 17.9006C0.976532 17.4483 0.976546 16.8896 0.976563 16.22V16.1816V16.1433C0.976546 15.4737 0.976532 14.915 1.02255 14.4627C1.07071 13.9892 1.17543 13.5498 1.44002 13.1538C1.64066 12.8536 1.89847 12.5957 2.19875 12.3951C2.59474 12.1305 3.03411 12.0258 3.50758 11.9776C3.95991 11.9316 4.51864 11.9316 5.18822 11.9316ZM16.2266 11.9316L16.1882 11.9316H16.1882C15.5186 11.9316 14.9599 11.9316 14.5076 11.9776C14.0341 12.0258 13.5947 12.1305 13.1987 12.3951C12.8985 12.5957 12.6407 12.8536 12.44 13.1538C12.1754 13.5498 12.0707 13.9892 12.0225 14.4627C11.9765 14.915 11.9765 15.4737 11.9766 16.1433V16.1433L11.9766 16.1816L11.9766 16.22V16.22C11.9765 16.8896 11.9765 17.4483 12.0225 17.9006C12.0707 18.3741 12.1754 18.8135 12.44 19.2095C12.6407 19.5097 12.8985 19.7675 13.1987 19.9682C13.5947 20.2328 14.0341 20.3375 14.5076 20.3857C14.9599 20.4317 15.5186 20.4317 16.1882 20.4316L16.2266 20.4316L16.2649 20.4316C16.9345 20.4317 17.4932 20.4317 17.9455 20.3857C18.419 20.3375 18.8584 20.2328 19.2544 19.9682C19.5547 19.7675 19.8125 19.5097 20.0131 19.2095C20.2777 18.8135 20.3824 18.3741 20.4306 17.9006C20.4766 17.4483 20.4766 16.8896 20.4766 16.22L20.4766 16.1816L20.4766 16.1433C20.4766 15.4737 20.4766 14.915 20.4306 14.4627C20.3824 13.9892 20.2777 13.5498 20.0131 13.1538C19.8125 12.8536 19.5547 12.5957 19.2544 12.3951C18.8584 12.1305 18.419 12.0258 17.9455 11.9776C17.4932 11.9316 16.9345 11.9316 16.2649 11.9316H16.2649L16.2266 11.9316Z" fill="#6E6655"/>
</svg>
