<svg width="25" height="25" viewBox="0 0 25 25" fill="none" xmlns="http://www.w3.org/2000/svg">
<g clip-path="url(#clip0_2002_14966)">
<path fill-rule="evenodd" clip-rule="evenodd" d="M13.8203 3.99997C13.269 4.22833 12.8354 4.66188 11.9683 5.52897L8.67948 8.81784C8.22601 8.4963 7.83657 8.22842 7.48821 8.02258C7.01238 7.74143 6.56003 7.54274 6.05342 7.47423C5.51404 7.4013 4.96524 7.44665 4.44515 7.60715C3.95666 7.75789 3.54307 8.02814 3.11985 8.38359C2.71112 8.72687 2.24961 9.18838 1.68019 9.75779L1.68018 9.75781L1.68016 9.75782L1.65639 9.78159L1.19673 10.2412C1.04084 10.3971 0.961428 10.6137 0.979608 10.8334C0.997789 11.0531 1.11172 11.2537 1.29111 11.3819L4.18434 13.4485C3.7586 14.0013 3.52765 14.4784 3.48045 15.0025C3.46432 15.1815 3.46432 15.3617 3.48045 15.5408C3.56772 16.5096 4.28309 17.318 5.69637 18.7411L8.19608 16.2414C8.48898 15.9485 8.96385 15.9485 9.25674 16.2414C9.54963 16.5343 9.54963 17.0092 9.25674 17.3021L6.75703 19.8018C8.17962 21.2145 8.98787 21.9296 9.95657 22.0169C10.1356 22.033 10.3158 22.033 10.4949 22.0169C11.0191 21.9697 11.4963 21.7386 12.0493 21.3126L14.1171 24.2075C14.2452 24.3869 14.4458 24.5009 14.6655 24.519C14.8852 24.5372 15.1018 24.4578 15.2577 24.3019L15.7157 23.844L15.7395 23.8202L15.7395 23.8201L15.7396 23.8201C16.3097 23.25 16.7718 22.7879 17.1154 22.3787C17.4713 21.9549 17.7418 21.5407 17.8924 21.0515C18.0522 20.5327 18.0974 19.9853 18.0249 19.4473C17.9566 18.94 17.7577 18.4871 17.4763 18.0106C17.2701 17.6618 17.0018 17.2717 16.6797 16.8176L19.9684 13.529C20.8354 12.6619 21.269 12.2283 21.4973 11.677C21.7257 11.1257 21.7257 10.5126 21.7257 9.28632V7.77161C21.7257 5.88599 21.7257 4.94318 21.1399 4.35739C20.5541 3.77161 19.6113 3.77161 17.7257 3.77161H16.211C14.9847 3.77161 14.3716 3.77161 13.8203 3.99997ZM15.729 11.7711C15.729 12.8757 14.8336 13.7711 13.729 13.7711C12.6244 13.7711 11.729 12.8757 11.729 11.7711C11.729 10.6665 12.6244 9.77112 13.729 9.77112C14.8336 9.77112 15.729 10.6665 15.729 11.7711ZM7.56733 9.86917C7.23722 9.6381 6.96616 9.4564 6.72516 9.314C6.3383 9.08542 6.0829 8.99187 5.85241 8.96071C5.52878 8.91694 5.19951 8.94416 4.88745 9.04045C4.66521 9.10903 4.42863 9.24324 4.08455 9.53222C3.76531 9.80035 3.39461 10.1654 2.88346 10.6759L5.14585 12.292L7.56733 9.86917ZM13.2069 20.3526L14.8231 22.6152C15.3335 22.1042 15.6985 21.7334 15.9667 21.4141C16.256 21.0695 16.3903 20.8326 16.4588 20.6101C16.5547 20.2987 16.5818 19.9703 16.5383 19.6475C16.5073 19.4167 16.4137 19.161 16.1848 18.7737C16.0422 18.5322 15.8601 18.2606 15.6285 17.9298L13.2069 20.3526Z" fill="#6E6655"/>
</g>
<defs>
<clipPath id="clip0_2002_14966">
<rect width="24" height="24" fill="white" transform="translate(0.726562 0.771606)"/>
</clipPath>
</defs>
</svg>
