<svg width="34" height="27" viewBox="0 0 34 27" fill="none" xmlns="http://www.w3.org/2000/svg">
<rect x="0.015625" y="0.62207" width="33.5" height="26" rx="13" fill="#6E6655"/>
<rect x="7.76562" y="4.62207" width="18" height="18" rx="9" fill="#6E6655"/>
<path fill-rule="evenodd" clip-rule="evenodd" d="M10.7656 12.8721C10.7656 9.97258 13.1161 7.62207 16.0156 7.62207C18.9151 7.62207 21.2656 9.97258 21.2656 12.8721C21.2656 15.7716 18.9151 18.1221 16.0156 18.1221C13.1161 18.1221 10.7656 15.7716 10.7656 12.8721ZM16.0156 6.12207C12.2877 6.12207 9.26562 9.14415 9.26562 12.8721C9.26562 16.6 12.2877 19.6221 16.0156 19.6221C17.6094 19.6221 19.0741 19.0697 20.2289 18.146L22.2353 20.1524C22.5282 20.4453 23.0031 20.4453 23.296 20.1524C23.5888 19.8595 23.5888 19.3846 23.296 19.0917L21.2895 17.0853C22.2133 15.9306 22.7656 14.4658 22.7656 12.8721C22.7656 9.14415 19.7435 6.12207 16.0156 6.12207Z" fill="white"/>
</svg>
