<svg width="25" height="25" viewBox="0 0 25 25" fill="none" xmlns="http://www.w3.org/2000/svg">
<path fill-rule="evenodd" clip-rule="evenodd" d="M20.2408 5.08038C17.9953 2.83486 14.3546 2.83486 12.1091 5.08038L11.402 5.78748C11.1091 6.08038 11.1091 6.55525 11.402 6.84814C11.6949 7.14104 12.1698 7.14104 12.4626 6.84814L13.1698 6.14104C14.8295 4.48131 17.5204 4.48131 19.1802 6.14104C20.8399 7.80076 20.8399 10.4917 19.1802 12.1514L17.494 13.8376C15.9845 15.3471 13.537 15.3471 12.0275 13.8376L11.7555 13.5657C11.4626 13.2728 10.9878 13.2728 10.6949 13.5657C10.402 13.8586 10.402 14.3334 10.6949 14.6263L10.9668 14.8983C13.0622 16.9936 16.4593 16.9936 18.5546 14.8983L20.2408 13.2121C22.4863 10.9666 22.4863 7.32589 20.2408 5.08038ZM7.78498 11.5259C9.2945 10.0164 11.7419 10.0164 13.2515 11.5259L13.5234 11.7979C13.8163 12.0908 14.2912 12.0908 14.5841 11.7979C14.877 11.505 14.877 11.0301 14.5841 10.7372L14.3121 10.4653C12.2168 8.36996 8.81963 8.36996 6.72432 10.4653L5.03814 12.1515C2.79263 14.397 2.79263 18.0377 5.03814 20.2832C7.28365 22.5287 10.9244 22.5287 13.1699 20.2832L13.877 19.5761C14.1699 19.2832 14.1699 18.8083 13.877 18.5154C13.5841 18.2225 13.1092 18.2225 12.8163 18.5154L12.1092 19.2225C10.4495 20.8822 7.75853 20.8822 6.0988 19.2225C4.43907 17.5628 4.43907 14.8718 6.0988 13.2121L7.78498 11.5259Z" fill="white"/>
</svg>
