<svg width="25" height="25" viewBox="0 0 25 25" fill="none" xmlns="http://www.w3.org/2000/svg">
<g clip-path="url(#clip0_45_4016)">
<path fill-rule="evenodd" clip-rule="evenodd" d="M9.26563 1.03076C9.26563 0.616548 8.92984 0.280762 8.51563 0.280762C8.10141 0.280762 7.76563 0.616548 7.76563 1.03076V2.30391C7.57854 2.31145 7.40212 2.32144 7.23549 2.33468C6.5416 2.38982 5.95372 2.50483 5.41476 2.77062C4.47695 3.23309 3.71795 3.99209 3.25548 4.92989C2.98969 5.46886 2.87468 6.05673 2.81955 6.75062C2.76562 7.4293 2.76562 8.27053 2.76563 9.33204V9.3641V13.0308V13.0872C2.76561 14.9249 2.7656 16.3806 2.91876 17.5198C3.07639 18.6922 3.40851 19.6412 4.15687 20.3895C4.90523 21.1379 5.85418 21.47 7.0266 21.6276C8.16581 21.7808 9.62143 21.7808 11.4592 21.7808H11.4592H11.5156H13.5156H13.572H13.5721C15.4098 21.7808 16.8654 21.7808 18.0046 21.6276C19.1771 21.47 20.126 21.1379 20.8744 20.3895C21.6227 19.6412 21.9549 18.6922 22.1125 17.5198C22.2657 16.3806 22.2656 14.925 22.2656 13.0872V13.0872V13.0308V11.0308V10.9744V10.9743C22.2656 9.13656 22.2657 7.68094 22.1125 6.54174C21.9549 5.36932 21.6227 4.42037 20.8744 3.672C20.126 2.92364 19.1771 2.59152 18.0046 2.4339C17.7717 2.40258 17.5256 2.37767 17.2656 2.35785V1.03076C17.2656 0.616548 16.9298 0.280762 16.5156 0.280762C16.1014 0.280762 15.7656 0.616548 15.7656 1.03076V2.29348C15.1036 2.28075 14.3742 2.28075 13.572 2.28076L13.5156 2.28076H9.84896L9.8169 2.28076C9.62614 2.28076 9.44249 2.28076 9.26563 2.28107V1.03076ZM12.5156 11.0308C13.6202 11.0308 14.5156 10.1353 14.5156 9.03076C14.5156 7.92619 13.6202 7.03076 12.5156 7.03076C11.4111 7.03076 10.5156 7.92619 10.5156 9.03076C10.5156 10.1353 11.4111 11.0308 12.5156 11.0308ZM8.51563 15.6974C8.51563 14.2247 9.70953 13.0308 11.1823 13.0308H13.849C15.3217 13.0308 16.5156 14.2247 16.5156 15.6974C16.5156 16.4338 15.9187 17.0308 15.1823 17.0308H9.84896C9.11258 17.0308 8.51563 16.4338 8.51563 15.6974Z" fill="url(#paint0_linear_45_4016)"/>
</g>
<defs>
<linearGradient id="paint0_linear_45_4016" x1="19.0377" y1="0.280761" x2="18.835" y2="21.7793" gradientUnits="userSpaceOnUse">
<stop stop-color="#242424"/>
<stop offset="0.200386" stop-color="#232323"/>
<stop offset="0.402519" stop-color="#1E1E1D"/>
<stop offset="0.611763" stop-color="#1A1A18"/>
<stop offset="0.84757" stop-color="#171715"/>
<stop offset="1" stop-color="#171715"/>
</linearGradient>
<clipPath id="clip0_45_4016">
<rect width="24" height="24" fill="white" transform="translate(0.515625 0.0307617)"/>
</clipPath>
</defs>
</svg>
