<svg width="21" height="21" viewBox="0 0 21 21" fill="none" xmlns="http://www.w3.org/2000/svg">
<mask id="mask0_2001_199" style="mask-type:alpha" maskUnits="userSpaceOnUse" x="0" y="0" width="21" height="21">
<path d="M10.5215 20.957C16.0443 20.957 20.5215 16.4799 20.5215 10.957C20.5215 5.43418 16.0443 0.957031 10.5215 0.957031C4.99864 0.957031 0.521484 5.43418 0.521484 10.957C0.521484 16.4799 4.99864 20.957 10.5215 20.957Z" fill="url(#paint0_linear_2001_199)"/>
</mask>
<g mask="url(#mask0_2001_199)">
<path d="M7.77734 12.917C8.13216 12.917 8.42025 12.8779 8.6416 12.7998C9.06152 12.6501 9.27148 12.3717 9.27148 11.9648C9.27148 11.7272 9.16732 11.5433 8.95898 11.4131C8.75065 11.2861 8.4235 11.1738 7.97754 11.0762L7.21582 10.9053C6.46712 10.736 5.94954 10.5521 5.66309 10.3535C5.17806 10.0215 4.93555 9.50228 4.93555 8.7959C4.93555 8.15137 5.16992 7.61589 5.63867 7.18945C6.10742 6.76302 6.7959 6.5498 7.7041 6.5498C8.46257 6.5498 9.10872 6.75163 9.64258 7.15527C10.1797 7.55566 10.4613 8.13835 10.4873 8.90332H9.04199C9.01595 8.47038 8.82715 8.16276 8.47559 7.98047C8.24121 7.86003 7.94987 7.7998 7.60156 7.7998C7.21419 7.7998 6.90495 7.87793 6.67383 8.03418C6.44271 8.19043 6.32715 8.40853 6.32715 8.68848C6.32715 8.94564 6.44108 9.1377 6.66895 9.26465C6.81543 9.34928 7.12793 9.44857 7.60645 9.5625L8.84668 9.86035C9.3903 9.99056 9.80046 10.1647 10.0771 10.3828C10.5068 10.7214 10.7217 11.2113 10.7217 11.8525C10.7217 12.5101 10.4694 13.057 9.96484 13.4932C9.46354 13.9261 8.75391 14.1426 7.83594 14.1426C6.89844 14.1426 6.16113 13.9294 5.62402 13.5029C5.08691 13.0732 4.81836 12.484 4.81836 11.7354H6.25391C6.29948 12.0641 6.389 12.3099 6.52246 12.4727C6.7666 12.7689 7.1849 12.917 7.77734 12.917ZM14.5498 8.31738C14.3838 8.11882 14.1462 8.01953 13.8369 8.01953C13.4137 8.01953 13.1257 8.17741 12.9727 8.49316C12.8848 8.67546 12.8327 8.96517 12.8164 9.3623H11.4639C11.4867 8.76009 11.5957 8.27344 11.791 7.90234C12.1621 7.19596 12.8213 6.84277 13.7686 6.84277C14.5173 6.84277 15.113 7.05111 15.5557 7.46777C15.9984 7.88118 16.2197 8.42969 16.2197 9.11328C16.2197 9.63737 16.0635 10.1029 15.751 10.5098C15.5459 10.7799 15.209 11.0811 14.7402 11.4131L14.1836 11.8086C13.8353 12.056 13.596 12.235 13.4658 12.3457C13.3389 12.4564 13.2314 12.585 13.1436 12.7314H16.2344V13.957H11.3857C11.3988 13.4492 11.5078 12.9854 11.7129 12.5654C11.9115 12.0934 12.3802 11.5938 13.1191 11.0664C13.7604 10.6074 14.1755 10.2786 14.3643 10.0801C14.654 9.77083 14.7988 9.43229 14.7988 9.06445C14.7988 8.76497 14.7158 8.51595 14.5498 8.31738Z" fill="#9A7B5D"/>
</g>
<defs>
<linearGradient id="paint0_linear_2001_199" x1="0.521484" y1="10.957" x2="20.5215" y2="10.957" gradientUnits="userSpaceOnUse">
<stop stop-color="#0EFFD6"/>
<stop offset="0.546875" stop-color="#0FC6FC"/>
</linearGradient>
</defs>
</svg>
