<svg width="25" height="25" viewBox="0 0 25 25" fill="none" xmlns="http://www.w3.org/2000/svg">
<g opacity="0.5">
<path fill-rule="evenodd" clip-rule="evenodd" d="M22.4131 12.6815C22.4131 18.2044 17.9359 22.6815 12.4131 22.6815C6.89024 22.6815 2.41309 18.2044 2.41309 12.6815C2.41309 7.15867 6.89024 2.68152 12.4131 2.68152C17.9359 2.68152 22.4131 7.15867 22.4131 12.6815ZM12.4131 10.9315C12.8273 10.9315 13.1631 11.2673 13.1631 11.6815V16.6815C13.1631 17.0957 12.8273 17.4315 12.4131 17.4315C11.9989 17.4315 11.6631 17.0957 11.6631 16.6815V11.6815C11.6631 11.2673 11.9989 10.9315 12.4131 10.9315ZM12.4131 9.68152C12.9654 9.68152 13.4131 9.2338 13.4131 8.68152C13.4131 8.12923 12.9654 7.68152 12.4131 7.68152C11.8608 7.68152 11.4131 8.12923 11.4131 8.68152C11.4131 9.2338 11.8608 9.68152 12.4131 9.68152Z" fill="white"/>
</g>
</svg>
