<svg width="25" height="25" viewBox="0 0 25 25" fill="none" xmlns="http://www.w3.org/2000/svg">
<path fill-rule="evenodd" clip-rule="evenodd" d="M10.0599 2.74963H10.026C9.43177 2.74962 8.93586 2.74961 8.53226 2.78619C8.11069 2.8244 7.71679 2.9072 7.35156 3.11806C6.93351 3.35943 6.58636 3.70658 6.34499 4.12463C6.22963 4.32444 6.1526 4.53283 6.10023 4.74963H4.72656C3.20778 4.74963 1.97656 5.98085 1.97656 7.49963C1.97656 10.123 4.10321 12.2496 6.72656 12.2496H6.85356C7.36682 12.9725 8.07669 13.5434 8.90882 13.8881C9.38298 14.0845 9.89087 14.1692 10.4869 14.2098C10.9063 14.2385 11.3965 14.2465 11.9766 14.2488V16.7496H11.3932C9.50626 16.7496 7.97656 18.2793 7.97656 20.1663C7.97656 20.2382 7.98021 20.3093 7.98732 20.3793C8.09401 21.4298 8.98122 22.2496 10.0599 22.2496H15.3932C16.5438 22.2496 17.4766 21.3169 17.4766 20.1663C17.4766 18.2793 15.9469 16.7496 14.0599 16.7496H13.4766V14.2488C14.0566 14.2465 14.5468 14.2385 14.9662 14.2098C15.5623 14.1692 16.0701 14.0845 16.5443 13.8881C17.3764 13.5434 18.0863 12.9725 18.5996 12.2496H18.7266C21.3499 12.2496 23.4766 10.123 23.4766 7.49963C23.4766 5.98085 22.2453 4.74963 20.7266 4.74963H19.3529C19.3005 4.53283 19.2235 4.32444 19.1081 4.12463C18.8668 3.70658 18.5196 3.35943 18.1016 3.11806C17.7363 2.9072 17.3424 2.8244 16.9209 2.78619C16.5173 2.74961 16.0214 2.74962 15.4272 2.74963H15.3932H10.0599ZM12.7278 18.2496C12.7274 18.2496 12.727 18.2496 12.7266 18.2496C12.7262 18.2496 12.7258 18.2496 12.7254 18.2496H11.3932C10.3347 18.2496 9.47656 19.1078 9.47656 20.1663C9.47656 20.1864 9.47758 20.2063 9.47957 20.2259C9.50945 20.5201 9.75787 20.7496 10.0599 20.7496H15.3932C15.6751 20.7496 15.9103 20.5497 15.9647 20.2839C15.9725 20.2459 15.9766 20.2066 15.9766 20.1663C15.9766 19.1078 15.1184 18.2496 14.0599 18.2496H12.7278ZM21.9766 7.49963C21.9766 9.09594 20.8257 10.4234 19.3084 10.6977C19.3748 10.4008 19.4132 10.0849 19.4368 9.73931C19.4766 9.15594 19.4766 8.43585 19.4766 7.52729V7.52724V7.52718V7.52713V7.52707V7.52702V7.49963V6.83297V6.79906V6.79904V6.79903V6.79902V6.799V6.79891C19.4766 6.60547 19.4766 6.42245 19.4753 6.24963H20.7266C21.4169 6.24963 21.9766 6.80928 21.9766 7.49963ZM6.14468 10.6977C6.07832 10.4008 6.03994 10.0849 6.01636 9.73931C5.97656 9.15588 5.97656 8.4357 5.97656 7.52701V7.49963V6.83297L5.97656 6.79904C5.97656 6.60555 5.97655 6.42249 5.97781 6.24963H4.72656C4.03621 6.24963 3.47656 6.80928 3.47656 7.49963C3.47656 9.09593 4.62742 10.4234 6.14468 10.6977Z" fill="#6E6655"/>
</svg>
