<svg width="25" height="25" viewBox="0 0 25 25" fill="none" xmlns="http://www.w3.org/2000/svg">
<path fill-rule="evenodd" clip-rule="evenodd" d="M8.72656 3.20361H8.67169C7.3041 3.20359 6.20178 3.20358 5.33481 3.32014C4.4347 3.44115 3.67683 3.70005 3.07491 4.30196C2.473 4.90388 2.2141 5.66175 2.09309 6.56186C1.97653 7.42883 1.97654 8.53115 1.97656 9.89874V9.95361V15.9536V16.0085C1.97654 17.3761 1.97653 18.4784 2.09309 19.3454C2.2141 20.2455 2.473 21.0033 3.07491 21.6053C3.67683 22.2072 4.4347 22.4661 5.33481 22.5871C6.20178 22.7037 7.3041 22.7036 8.67169 22.7036H8.72656H10.7266H10.7814C12.149 22.7036 13.2513 22.7037 14.1183 22.5871C15.0184 22.4661 15.7763 22.2072 16.3782 21.6053C16.9801 21.0033 17.239 20.2455 17.36 19.3454C17.4766 18.4784 17.4766 17.3761 17.4766 16.0085V16.0085V16.0085V16.0085V15.9536V9.95361V9.89875V9.89874V9.89873V9.89872C17.4766 8.53114 17.4766 7.42883 17.36 6.56186C17.239 5.66175 16.9801 4.90388 16.3782 4.30196C15.7763 3.70005 15.0184 3.44115 14.1183 3.32014C13.2513 3.20358 12.149 3.20359 10.7814 3.20361H10.7266H8.72656ZM5.97656 7.95361C5.97656 7.5394 6.31235 7.20361 6.72656 7.20361H12.7266C13.1408 7.20361 13.4766 7.5394 13.4766 7.95361C13.4766 8.36783 13.1408 8.70361 12.7266 8.70361H6.72656C6.31235 8.70361 5.97656 8.36783 5.97656 7.95361ZM6.72656 11.2036C6.31235 11.2036 5.97656 11.5394 5.97656 11.9536C5.97656 12.3678 6.31235 12.7036 6.72656 12.7036H10.7266C11.1408 12.7036 11.4766 12.3678 11.4766 11.9536C11.4766 11.5394 11.1408 11.2036 10.7266 11.2036H6.72656ZM5.97656 15.9536C5.97656 15.5394 6.31235 15.2036 6.72656 15.2036H8.72656C9.14078 15.2036 9.47656 15.5394 9.47656 15.9536C9.47656 16.3678 9.14078 16.7036 8.72656 16.7036H6.72656C6.31235 16.7036 5.97656 16.3678 5.97656 15.9536ZM19.7266 6.20361C20.1408 6.20361 20.4766 6.5394 20.4766 6.95361V18.9536C20.4766 19.3678 20.1408 19.7036 19.7266 19.7036C19.3123 19.7036 18.9766 19.3678 18.9766 18.9536V6.95361C18.9766 6.5394 19.3123 6.20361 19.7266 6.20361ZM23.4766 8.95361C23.4766 8.5394 23.1408 8.20361 22.7266 8.20361C22.3123 8.20361 21.9766 8.5394 21.9766 8.95361V16.9536C21.9766 17.3678 22.3123 17.7036 22.7266 17.7036C23.1408 17.7036 23.4766 17.3678 23.4766 16.9536V8.95361Z" fill="#6E6655"/>
</svg>
