<svg width="24" height="20" viewBox="0 0 24 20" fill="none" xmlns="http://www.w3.org/2000/svg">
<path fill-rule="evenodd" clip-rule="evenodd" d="M13.7766 4.53548C15.1933 3.47296 16.1882 2.72922 16.9645 2.30733C17.7457 1.8828 18.0758 1.91255 18.2856 2.01745C18.4954 2.12234 18.7172 2.36857 18.8463 3.24822C18.9746 4.12242 18.9766 5.36461 18.9766 7.13548V11.1355C18.9766 12.9064 18.9746 14.1486 18.8463 15.0227C18.7172 15.9024 18.4954 16.1486 18.2856 16.2535C18.0758 16.3584 17.7457 16.3882 16.9645 15.9636C16.1882 15.5417 15.1933 14.798 13.7766 13.7355L12.4766 12.7605L12.4766 5.51048L13.7766 4.53548ZM20.3304 3.03044C20.4268 3.68706 20.4596 4.49876 20.4708 5.45936C22.1853 5.80458 23.4766 7.31926 23.4766 9.13551C23.4766 10.9518 22.1854 12.4664 20.4708 12.8117C20.4596 13.7722 20.4268 14.5839 20.3304 15.2405C20.1831 16.2444 19.8522 17.1473 18.9564 17.5952C18.0606 18.043 17.1398 17.7661 16.2483 17.2816C15.3636 16.8008 14.281 15.9888 12.9301 14.9756L12.8766 14.9355L11.4768 13.8857H9.47656L9.47656 17.6358C9.47656 18.8784 8.4692 19.8858 7.22656 19.8858C5.98392 19.8858 4.97656 18.8784 4.97656 17.6358L4.97656 13.8268C2.70957 13.4672 0.976563 11.5038 0.976563 9.13566C0.976562 6.5123 3.10321 4.38566 5.72656 4.38566L11.4763 4.38565L12.8766 3.33548L12.9301 3.29536C14.281 2.28215 15.3636 1.47017 16.2483 0.989375C17.1398 0.504886 18.0606 0.227917 18.9564 0.675808C19.8522 1.1237 20.1831 2.02655 20.3304 3.03044Z" fill="#6E6655"/>
</svg>
