<svg width="15" height="15" viewBox="0 0 15 15" fill="none" xmlns="http://www.w3.org/2000/svg">
<path fill-rule="evenodd" clip-rule="evenodd" d="M1.51562 7.37207C1.51562 4.47258 3.86613 2.12207 6.76562 2.12207C9.66512 2.12207 12.0156 4.47258 12.0156 7.37207C12.0156 10.2716 9.66512 12.6221 6.76562 12.6221C3.86613 12.6221 1.51562 10.2716 1.51562 7.37207ZM6.76562 0.62207C3.0377 0.62207 0.015625 3.64415 0.015625 7.37207C0.015625 11.1 3.0377 14.1221 6.76562 14.1221C8.35939 14.1221 9.82414 13.5697 10.9789 12.646L12.9853 14.6524C13.2782 14.9453 13.7531 14.9453 14.046 14.6524C14.3388 14.3595 14.3388 13.8846 14.046 13.5917L12.0395 11.5853C12.9633 10.4306 13.5156 8.96583 13.5156 7.37207C13.5156 3.64415 10.4935 0.62207 6.76562 0.62207Z" fill="white"/>
</svg>
