<svg width="21" height="21" viewBox="0 0 21 21" fill="none" xmlns="http://www.w3.org/2000/svg">
<path d="M10.5439 20.2285C16.0668 20.2285 20.5439 15.7514 20.5439 10.2285C20.5439 4.70567 16.0668 0.228516 10.5439 0.228516C5.0211 0.228516 0.543945 4.70567 0.543945 10.2285C0.543945 15.7514 5.0211 20.2285 10.5439 20.2285Z" fill="#F1EEE6"/>
<mask id="mask0_2001_7086" style="mask-type:alpha" maskUnits="userSpaceOnUse" x="0" y="0" width="21" height="21">
<path d="M10.5439 20.2285C16.0668 20.2285 20.5439 15.7514 20.5439 10.2285C20.5439 4.70567 16.0668 0.228516 10.5439 0.228516C5.0211 0.228516 0.543945 4.70567 0.543945 10.2285C0.543945 15.7514 5.0211 20.2285 10.5439 20.2285Z" fill="url(#paint0_linear_2001_7086)"/>
</mask>
<g mask="url(#mask0_2001_7086)">
<path d="M7.7998 12.1885C8.15462 12.1885 8.44271 12.1494 8.66406 12.0713C9.08398 11.9215 9.29395 11.6432 9.29395 11.2363C9.29395 10.9987 9.18978 10.8148 8.98145 10.6846C8.77311 10.5576 8.44596 10.4453 8 10.3477L7.23828 10.1768C6.48958 10.0075 5.97201 9.82357 5.68555 9.625C5.20052 9.29297 4.95801 8.77376 4.95801 8.06738C4.95801 7.42285 5.19238 6.88737 5.66113 6.46094C6.12988 6.03451 6.81836 5.82129 7.72656 5.82129C8.48503 5.82129 9.13118 6.02311 9.66504 6.42676C10.2021 6.82715 10.4837 7.40983 10.5098 8.1748H9.06445C9.03841 7.74186 8.84961 7.43424 8.49805 7.25195C8.26367 7.13151 7.97233 7.07129 7.62402 7.07129C7.23665 7.07129 6.92741 7.14941 6.69629 7.30566C6.46517 7.46191 6.34961 7.68001 6.34961 7.95996C6.34961 8.21712 6.46354 8.40918 6.69141 8.53613C6.83789 8.62077 7.15039 8.72005 7.62891 8.83398L8.86914 9.13184C9.41276 9.26204 9.82292 9.4362 10.0996 9.6543C10.5293 9.99284 10.7441 10.4827 10.7441 11.124C10.7441 11.7816 10.4919 12.3285 9.9873 12.7646C9.486 13.1976 8.77637 13.4141 7.8584 13.4141C6.9209 13.4141 6.18359 13.2008 5.64648 12.7744C5.10938 12.3447 4.84082 11.7555 4.84082 11.0068H6.27637C6.32194 11.3356 6.41146 11.5814 6.54492 11.7441C6.78906 12.0404 7.20736 12.1885 7.7998 12.1885ZM16.3252 10.6162V11.7051H15.5244V13.2285H14.1621V11.7051H11.3594V10.4893L13.9619 6.19238H15.5244V10.6162H16.3252ZM12.3896 10.6162H14.1621V7.55957L12.3896 10.6162Z" fill="#9A7B5D"/>
</g>
<defs>
<linearGradient id="paint0_linear_2001_7086" x1="0.543945" y1="10.2285" x2="20.5439" y2="10.2285" gradientUnits="userSpaceOnUse">
<stop stop-color="#0EFFD6"/>
<stop offset="0.546875" stop-color="#0FC6FC"/>
</linearGradient>
</defs>
</svg>
