<svg width="25" height="25" viewBox="0 0 25 25" fill="none" xmlns="http://www.w3.org/2000/svg">
<path fill-rule="evenodd" clip-rule="evenodd" d="M9.26563 1.84863C9.26563 1.43442 8.92984 1.09863 8.51563 1.09863C8.10141 1.09863 7.76563 1.43442 7.76563 1.84863V3.12179C7.57854 3.12932 7.40212 3.13931 7.23549 3.15255C6.5416 3.20769 5.95372 3.3227 5.41476 3.58849C4.47695 4.05096 3.71795 4.80996 3.25548 5.74776C2.98969 6.28673 2.87468 6.87461 2.81955 7.56849C2.76562 8.24717 2.76562 9.0884 2.76563 10.1499V10.182V13.8486V13.9051C2.76561 15.7428 2.7656 17.1984 2.91876 18.3377C3.07639 19.5101 3.40851 20.459 4.15687 21.2074C4.90523 21.9558 5.85418 22.2879 7.0266 22.4455C8.16581 22.5987 9.62143 22.5986 11.4592 22.5986H11.4592H11.5156H13.5156H13.572H13.5721C15.4098 22.5986 16.8654 22.5987 18.0046 22.4455C19.1771 22.2879 20.126 21.9558 20.8744 21.2074C21.6227 20.459 21.9549 19.5101 22.1125 18.3377C22.2657 17.1985 22.2656 15.7428 22.2656 13.9051V13.905V13.8486V11.8486V11.7922V11.7922C22.2656 9.95444 22.2657 8.49882 22.1125 7.35961C21.9549 6.18719 21.6227 5.23824 20.8744 4.48988C20.126 3.74151 19.1771 3.4094 18.0046 3.25177C17.7717 3.22045 17.5256 3.19554 17.2656 3.17572V1.84863C17.2656 1.43442 16.9298 1.09863 16.5156 1.09863C16.1014 1.09863 15.7656 1.43442 15.7656 1.84863V3.11135C15.1036 3.09862 14.3742 3.09863 13.572 3.09863L13.5156 3.09863H9.84896L9.8169 3.09863C9.62614 3.09863 9.44249 3.09863 9.26563 3.09894V1.84863ZM7.51563 8.09863C7.10141 8.09863 6.76563 8.43442 6.76563 8.84863C6.76563 9.26285 7.10141 9.59863 7.51563 9.59863H17.5156C17.9298 9.59863 18.2656 9.26285 18.2656 8.84863C18.2656 8.43442 17.9298 8.09863 17.5156 8.09863H7.51563ZM6.76563 12.8486C6.76563 12.4344 7.10141 12.0986 7.51563 12.0986H13.5156C13.9298 12.0986 14.2656 12.4344 14.2656 12.8486C14.2656 13.2628 13.9298 13.5986 13.5156 13.5986H7.51563C7.10141 13.5986 6.76563 13.2628 6.76563 12.8486Z" fill="url(#paint0_linear_45_4030)"/>
<defs>
<linearGradient id="paint0_linear_45_4030" x1="19.0377" y1="1.09863" x2="18.835" y2="22.5972" gradientUnits="userSpaceOnUse">
<stop stop-color="#242424"/>
<stop offset="0.200386" stop-color="#232323"/>
<stop offset="0.402519" stop-color="#1E1E1D"/>
<stop offset="0.611763" stop-color="#1A1A18"/>
<stop offset="0.84757" stop-color="#171715"/>
<stop offset="1" stop-color="#171715"/>
</linearGradient>
</defs>
</svg>
