<svg width="159" height="115" viewBox="0 0 159 115" fill="none" xmlns="http://www.w3.org/2000/svg">
<path d="M68.3386 114.554C68.0769 114.554 67.8822 114.494 67.7544 114.373C67.6326 114.246 67.5718 114.052 67.5718 113.792V103.033C67.5718 102.767 67.6326 102.573 67.7544 102.453C67.8822 102.332 68.0769 102.271 68.3386 102.271C68.6064 102.271 68.8011 102.332 68.9229 102.453C69.0446 102.573 69.1054 102.767 69.1054 103.033V113.792C69.1054 114.052 69.0446 114.246 68.9229 114.373C68.8011 114.494 68.6064 114.554 68.3386 114.554Z" fill="#FF015C"/>
<path d="M73.6697 114.554C73.1585 114.554 72.9029 114.3 72.9029 113.792V103.015C72.9029 102.507 73.1585 102.253 73.6697 102.253C73.9314 102.253 74.187 102.404 74.4365 102.707L81.7762 112.105H81.3927V103.015C81.3927 102.507 81.6484 102.253 82.1596 102.253C82.6708 102.253 82.9264 102.507 82.9264 103.015V113.792C82.9264 114.3 82.6708 114.554 82.1596 114.554C81.8857 114.554 81.6301 114.403 81.3927 114.101L74.0531 104.702H74.4365V113.792C74.4365 114.3 74.1809 114.554 73.6697 114.554Z" fill="#FF015C"/>
<path d="M87.4878 114.554C86.9766 114.554 86.721 114.3 86.721 113.792V103.015C86.721 102.507 86.9766 102.253 87.4878 102.253H94.2067C94.444 102.253 94.6297 102.322 94.7635 102.462C94.9035 102.595 94.9735 102.779 94.9735 103.015C94.9735 103.523 94.7179 103.777 94.2067 103.777H88.2547V107.587H91.9245C92.4357 107.587 92.6913 107.841 92.6913 108.349C92.6913 108.857 92.4357 109.111 91.9245 109.111H88.2547V113.792C88.2547 114.3 87.9991 114.554 87.4878 114.554Z" fill="#FF015C"/>
<path d="M97.633 114.554C97.3713 114.554 97.1766 114.494 97.0488 114.373C96.927 114.246 96.8662 114.052 96.8662 113.792V103.033C96.8662 102.767 96.927 102.573 97.0488 102.453C97.1766 102.332 97.3713 102.271 97.633 102.271C97.9008 102.271 98.0955 102.332 98.2173 102.453C98.339 102.573 98.3998 102.767 98.3998 103.033V113.792C98.3998 114.052 98.339 114.246 98.2173 114.373C98.0955 114.494 97.9008 114.554 97.633 114.554Z" fill="#FF015C"/>
<path d="M102.964 114.554C102.453 114.554 102.197 114.3 102.197 113.792V103.015C102.197 102.507 102.453 102.253 102.964 102.253C103.226 102.253 103.481 102.404 103.731 102.707L111.071 112.105H110.687V103.015C110.687 102.507 110.943 102.253 111.454 102.253C111.965 102.253 112.221 102.507 112.221 103.015V113.792C112.221 114.3 111.965 114.554 111.454 114.554C111.18 114.554 110.924 114.403 110.687 114.101L103.348 104.702H103.731V113.792C103.731 114.3 103.475 114.554 102.964 114.554Z" fill="#FF015C"/>
<path d="M116.782 114.554C116.521 114.554 116.326 114.494 116.198 114.373C116.076 114.246 116.015 114.052 116.015 113.792V103.033C116.015 102.767 116.076 102.573 116.198 102.453C116.326 102.332 116.521 102.271 116.782 102.271C117.05 102.271 117.245 102.332 117.366 102.453C117.488 102.573 117.549 102.767 117.549 103.033V113.792C117.549 114.052 117.488 114.246 117.366 114.373C117.245 114.494 117.05 114.554 116.782 114.554Z" fill="#FF015C"/>
<path d="M125.053 114.554C124.797 114.554 124.606 114.491 124.478 114.364C124.35 114.237 124.286 114.046 124.286 113.792V103.795H120.744C120.488 103.795 120.297 103.732 120.169 103.605C120.041 103.478 119.977 103.287 119.977 103.033C119.977 102.779 120.041 102.589 120.169 102.462C120.297 102.335 120.488 102.271 120.744 102.271H129.362C129.617 102.271 129.809 102.335 129.937 102.462C130.065 102.589 130.129 102.779 130.129 103.033C130.129 103.287 130.065 103.478 129.937 103.605C129.809 103.732 129.617 103.795 129.362 103.795H125.82V113.792C125.82 114.034 125.753 114.222 125.619 114.355C125.491 114.488 125.302 114.554 125.053 114.554Z" fill="#FF015C"/>
<path d="M136.56 114.554C135.166 114.554 134.135 114.225 133.465 113.566C132.802 112.9 132.47 111.875 132.47 110.49V103.015C132.47 102.761 132.534 102.57 132.662 102.443C132.79 102.316 132.981 102.253 133.237 102.253C133.493 102.253 133.684 102.316 133.812 102.443C133.94 102.57 134.004 102.761 134.004 103.015V110.49C134.004 111.137 134.08 111.645 134.232 112.014C134.39 112.383 134.655 112.646 135.026 112.804C135.398 112.955 135.909 113.03 136.56 113.03H138.751C139.402 113.03 139.913 112.955 140.285 112.804C140.656 112.646 140.917 112.383 141.07 112.014C141.228 111.645 141.307 111.137 141.307 110.49V103.015C141.307 102.761 141.371 102.57 141.499 102.443C141.626 102.316 141.818 102.253 142.074 102.253C142.329 102.253 142.521 102.316 142.649 102.443C142.777 102.57 142.841 102.761 142.841 103.015V110.49C142.841 111.875 142.509 112.9 141.846 113.566C141.182 114.225 140.151 114.554 138.751 114.554H136.56Z" fill="#FF015C"/>
<path d="M147.307 114.554C146.796 114.554 146.54 114.3 146.54 113.792V103.015C146.54 102.507 146.796 102.253 147.307 102.253C147.642 102.253 147.922 102.416 148.147 102.743L152.456 109.184L152.127 109.238L156.472 102.743C156.679 102.416 156.99 102.253 157.403 102.253C157.817 102.253 158.024 102.507 158.024 103.015V113.792C158.024 114.3 157.769 114.554 157.257 114.554C156.746 114.554 156.491 114.3 156.491 113.792V104.539L156.965 104.702L153.131 110.309C152.906 110.635 152.596 110.799 152.2 110.799C151.926 110.799 151.677 110.635 151.451 110.309L147.617 104.702L148.074 104.829V113.792C148.074 114.3 147.818 114.554 147.307 114.554Z" fill="#FF015C"/>
<path fill-rule="evenodd" clip-rule="evenodd" d="M27.2878 25.6921C34.3207 25.6921 40.022 19.9908 40.022 12.9579C40.022 11.4683 40.8845 10.0092 42.3515 9.75077C44.3628 9.39646 46.4325 9.21166 48.5454 9.21166C68.1293 9.21166 84.0052 25.0876 84.0052 44.6715C84.0052 48.6599 83.3468 52.4944 82.1327 56.0724C81.4988 57.9405 79.6301 58.9794 77.7675 59.6289C73.9848 60.9481 71.2708 64.5466 71.2708 68.779C71.2708 70.4896 70.853 72.2898 69.4728 73.3004C63.6072 77.5955 56.3724 80.1314 48.5454 80.1314C35.213 80.1314 23.5992 72.7735 17.5431 61.8969C16.4723 59.9738 17.1968 57.6523 18.2354 55.7116C18.9633 54.3515 19.376 52.7975 19.376 51.147C19.376 48.3484 18.1893 45.8269 16.2916 44.0583C14.6841 42.5601 13.248 40.6014 13.6317 38.4377C14.3238 34.5351 15.6542 30.8531 17.5112 27.5034C18.8107 25.1594 21.8676 24.7942 24.4824 25.3821C25.385 25.585 26.3239 25.6921 27.2878 25.6921ZM14.2247 19.6883C14.8132 18.8812 16.0583 19.0504 16.6026 19.8879C16.9296 20.391 16.9323 21.0444 16.5801 21.5301C12.6619 26.9329 10.08 33.3679 9.31947 40.3498C9.24979 40.9896 8.71227 41.4861 8.07759 41.5922C7.15733 41.7462 6.23922 41.0542 6.33798 40.1264C7.14587 32.5371 9.95385 25.5453 14.2247 19.6883ZM14.5561 13.213C14.587 14.7839 14.2294 16.3768 13.2724 17.6229C8.26979 24.1368 5.03097 32.0761 4.27017 40.7266C4.13254 42.2915 3.29926 43.6973 2.28524 44.8972C0.859492 46.5842 0 48.7652 0 51.147C0 54.674 1.88479 57.7609 4.70211 59.4552C6.04736 60.2643 7.29148 61.3227 7.93083 62.7564C14.8585 78.2912 30.4375 89.1196 48.5455 89.1196C58.799 89.1196 68.2416 85.6477 75.7618 79.8154C77.1602 78.7308 78.9979 78.4308 80.7672 78.4651C80.8309 78.4664 80.8948 78.467 80.9588 78.467C86.3093 78.467 90.6468 74.1295 90.6468 68.779C90.6468 67.7474 90.4855 66.7533 90.1868 65.8208C89.6469 64.1352 89.4037 62.2896 90.0397 60.6378C91.9477 55.6825 92.9935 50.2992 92.9935 44.6716C92.9935 20.1237 73.0935 0.223633 48.5455 0.223633C44.5218 0.223633 40.6231 0.758276 36.9163 1.7604C35.3992 2.17056 33.7902 1.89386 32.3482 1.26875C30.7972 0.596352 29.086 0.223633 27.2878 0.223633C20.2549 0.223633 14.5536 5.92494 14.5536 12.9579C14.5536 13.0431 14.5544 13.1282 14.5561 13.213ZM86.0505 60.5354C86.7999 60.9992 87.8429 60.7737 88.1602 59.9515C89.9902 55.2104 90.9935 50.0582 90.9935 44.6716C90.9935 21.2283 71.9889 2.22363 48.5455 2.22363C45.0753 2.22363 41.7024 2.64005 38.4739 3.42563C37.5012 3.66234 37.18 4.87612 37.7514 5.69819C38.0932 6.18986 38.6987 6.44541 39.2808 6.30533C42.2522 5.59039 45.3546 5.21166 48.5454 5.21166C70.3385 5.21166 88.0052 22.8784 88.0052 44.6715C88.0052 49.6433 87.0858 54.4002 85.4076 58.7817C85.1582 59.433 85.4575 60.1683 86.0505 60.5354ZM74.5694 78.209C75.2645 77.6689 75.1766 76.6025 74.5192 76.0171C73.9977 75.5529 73.2109 75.4821 72.6586 75.9091C65.9903 81.0641 57.626 84.1314 48.5454 84.1314C33.332 84.1314 20.1295 75.522 13.5441 62.9096C12.8241 61.5307 11.2435 60.835 9.68799 60.835C9.49729 60.835 9.36296 61.0282 9.43729 61.2038C15.8835 76.434 30.9666 87.1196 48.5455 87.1196C58.3523 87.1196 67.3823 83.794 74.5694 78.209Z" fill="#FF015C"/>
<path d="M55.7587 83.7441C55.7587 89.0835 51.4284 93.4138 46.0891 93.4138C40.7497 93.4138 36.4194 89.0835 36.4194 83.7441C36.4194 80.8601 37.6807 78.2703 39.6861 76.5003C41.393 74.991 46.0891 69.8703 43.987 60.6211C43.987 60.6211 48.1912 69.0295 53.6818 77.7574C54.8001 79.5315 55.7587 81.4823 55.7587 83.7441Z" fill="url(#paint0_linear_1107_22938)"/>
<path d="M94.8573 27.8292C94.8573 35.6069 88.5511 41.9132 80.7733 41.9132C76.3085 41.9132 47.4299 34.5769 51.5542 34.9763C64.5872 36.2375 66.6893 31.1421 66.6893 27.8292C66.6893 20.0514 72.9956 13.7451 80.7733 13.7451C88.5511 13.7451 94.8573 20.0514 94.8573 27.8292Z" fill="url(#paint1_linear_1107_22938)"/>
<path d="M59.7534 46.7478C59.7534 51.2043 57.088 54.6979 53.7919 57.2289C46.0898 63.1441 52.3961 75.7567 52.3961 75.7567C43.5673 64.8258 45.6694 60.2012 40.8262 56.9135C37.5595 54.6937 35.3691 50.994 35.3691 46.7478C35.3691 40.0127 40.8262 34.5557 47.5613 34.5557C56.1799 34.5557 78.4621 41.7028 78.4621 41.7028C69.2129 40.4415 59.7534 43.3803 59.7534 46.7478Z" fill="url(#paint2_radial_1107_22938)"/>
<path d="M68.9612 92.9112C67.6644 92.4109 67.2754 91.5234 67.7941 90.2486L79.3676 61.8807C79.8538 60.8157 80.6157 60.2832 81.6531 60.2832H81.7503C82.8039 60.3316 83.5171 60.8641 83.89 61.8807L95.658 90.2486C96.1767 91.5234 95.8038 92.4109 94.5395 92.9112C93.259 93.4114 92.3675 93.0402 91.865 91.7977L89.239 85.4561H74.0914L71.5871 91.7977C71.0846 93.0564 70.2093 93.4275 68.9612 92.9112ZM75.6961 81.3897H87.5614L81.5072 66.7217L75.6961 81.3897Z" fill="#393F49"/>
<path d="M124.106 93.2016C123.571 93.5405 123.061 93.6454 122.574 93.5163C122.088 93.3872 121.675 93.0564 121.334 92.5239L113.797 80.0342H106.989V91.0716C106.989 92.4271 106.308 93.1048 104.947 93.1048C103.585 93.1048 102.904 92.4271 102.904 91.0716V62.3164C102.904 60.9609 103.585 60.2832 104.947 60.2832H116.326C119.292 60.2832 121.561 61.0739 123.134 62.6553C124.722 64.2205 125.516 66.4796 125.516 69.4326V70.8849C125.516 73.4506 124.917 75.4999 123.717 77.0329C122.518 78.5497 120.783 79.4937 118.514 79.8648L124.884 90.4423C125.5 91.5718 125.241 92.4916 124.106 93.2016ZM106.989 75.9679H116.326C118.173 75.9679 119.486 75.5806 120.265 74.806C121.043 74.0315 121.432 72.7244 121.432 70.8849V69.4326C121.432 67.6092 121.043 66.3102 120.265 65.5356C119.486 64.7449 118.173 64.3496 116.326 64.3496L106.989 64.3496V75.9679Z" fill="#393F49"/>
<path d="M141.539 93.1048C138.767 93.1048 136.604 92.5481 135.047 91.4347C133.508 90.3213 132.543 88.6027 132.154 86.2791C132.089 85.5691 132.235 85.0366 132.592 84.6816C132.948 84.3266 133.467 84.1491 134.148 84.1491C134.829 84.1491 135.323 84.3104 135.631 84.6331C135.955 84.9559 136.174 85.4561 136.287 86.1338C136.531 87.2473 137.049 88.0137 137.844 88.4333C138.654 88.8367 139.886 89.0384 141.539 89.0384H148.542C150.633 89.0384 152.051 88.6673 152.797 87.925C153.559 87.1666 153.939 85.7627 153.939 83.7134C153.939 81.6318 153.55 80.2118 152.772 79.4533C151.994 78.6788 150.584 78.2915 148.542 78.2915H142.512C139.448 78.2915 137.171 77.5492 135.68 76.0647C134.205 74.564 133.467 72.2887 133.467 69.2389C133.467 66.2053 134.196 63.9543 135.655 62.4858C137.13 61.0174 139.4 60.2832 142.463 60.2832H148.25C150.827 60.2832 152.845 60.8076 154.304 61.8565C155.779 62.9054 156.711 64.511 157.1 66.6732C157.198 67.3671 157.068 67.8996 156.711 68.2708C156.355 68.6258 155.82 68.8033 155.107 68.8033C154.458 68.8033 153.972 68.6338 153.648 68.295C153.323 67.9561 153.113 67.4639 153.015 66.8185C152.756 65.8664 152.262 65.221 151.532 64.8821C150.803 64.5271 149.709 64.3496 148.25 64.3496H142.463C140.518 64.3496 139.213 64.6965 138.549 65.3904C137.884 66.0681 137.552 67.351 137.552 69.2389C137.552 71.1431 137.892 72.4501 138.573 73.1601C139.254 73.8701 140.567 74.2251 142.512 74.2251H148.542C151.735 74.2251 154.11 74.9997 155.666 76.5488C157.238 78.0979 158.024 80.4861 158.024 83.7134C158.024 86.9245 157.246 89.2966 155.69 90.8295C154.134 92.3464 151.751 93.1048 148.542 93.1048H141.539Z" fill="#393F49"/>
<defs>
<linearGradient id="paint0_linear_1107_22938" x1="38.1011" y1="82.0625" x2="48.4014" y2="67.558" gradientUnits="userSpaceOnUse">
<stop offset="0.28125" stop-color="#BBFD00"/>
<stop offset="1" stop-color="#5E8000"/>
</linearGradient>
<linearGradient id="paint1_linear_1107_22938" x1="72.9955" y1="28.0394" x2="66.8995" y2="37.709" gradientUnits="userSpaceOnUse">
<stop stop-color="#BBFD00"/>
<stop offset="1" stop-color="#638308"/>
</linearGradient>
<radialGradient id="paint2_radial_1107_22938" cx="0" cy="0" r="1" gradientUnits="userSpaceOnUse" gradientTransform="translate(43.7631 44.8677) rotate(36.2292) scale(20.7036 21.6543)">
<stop offset="0.335028" stop-color="#FF005C"/>
<stop offset="1" stop-color="#990037"/>
</radialGradient>
</defs>
</svg>
