<svg width="108" height="44" viewBox="0 0 108 44" fill="none" xmlns="http://www.w3.org/2000/svg">
<path d="M4.3996 28.187C6.82947 28.187 8.79927 26.2172 8.79927 23.7874C8.79927 21.3575 6.82947 19.3877 4.3996 19.3877C1.96974 19.3877 -6.10352e-05 21.3575 -6.10352e-05 23.7874C-6.10352e-05 26.2172 1.96974 28.187 4.3996 28.187Z" fill="#FF005C"/>
<path d="M12.3924 12.2283C15.5863 12.2283 18.1755 9.63908 18.1755 6.44518C18.1755 3.25128 15.5863 0.662109 12.3924 0.662109C9.19848 0.662109 6.60931 3.25128 6.60931 6.44518C6.60931 9.63908 9.19848 12.2283 12.3924 12.2283Z" fill="#FF005C"/>
<path d="M36.7662 36.1958C39.196 36.1958 41.1658 34.226 41.1658 31.7961C41.1658 29.3663 39.196 27.3965 36.7662 27.3965C34.3363 27.3965 32.3665 29.3663 32.3665 31.7961C32.3665 34.226 34.3363 36.1958 36.7662 36.1958Z" fill="#FF005C"/>
<path d="M25.2449 38.6645C25.2449 41.0939 23.2746 43.0642 20.8452 43.0642C18.4158 43.0642 16.4456 41.0939 16.4456 38.6645C16.4456 37.3522 17.0194 36.1739 17.9319 35.3686C18.7085 34.6818 20.8452 32.3519 19.8888 28.1436C19.8888 28.1436 21.8017 31.9693 24.2999 35.9405C24.8087 36.7478 25.2449 37.6354 25.2449 38.6645Z" fill="url(#paint0_linear_1201_21287)"/>
<path d="M43.0347 13.2227C43.0347 16.7615 40.1654 19.6309 36.6265 19.6309C34.595 19.6309 21.4553 16.2929 23.3319 16.4746C29.2619 17.0485 30.2183 14.73 30.2183 13.2227C30.2183 9.6838 33.0877 6.81445 36.6265 6.81445C40.1654 6.81445 43.0347 9.6838 43.0347 13.2227Z" fill="url(#paint1_linear_1201_21287)"/>
<path d="M27.0625 21.8306C27.0625 23.8583 25.8497 25.4479 24.35 26.5995C20.8456 29.2909 23.7149 35.0296 23.7149 35.0296C19.6979 30.0561 20.6543 27.9519 18.4507 26.456C16.9643 25.446 15.9677 23.7626 15.9677 21.8306C15.9677 18.7661 18.4507 16.2832 21.5151 16.2832C25.4366 16.2832 35.5749 19.5351 35.5749 19.5351C31.3665 18.9613 27.0625 20.2984 27.0625 21.8306Z" fill="url(#paint2_radial_1201_21287)"/>
<path d="M51.2715 43.1614C51.1062 43.1614 50.9832 43.1232 50.9025 43.0468C50.8257 42.9666 50.7872 42.8444 50.7872 42.6801V35.8853C50.7872 35.7172 50.8257 35.595 50.9025 35.5186C50.9832 35.4422 51.1062 35.404 51.2715 35.404C51.4406 35.404 51.5636 35.4422 51.6405 35.5186C51.7173 35.595 51.7558 35.7172 51.7558 35.8853V42.6801C51.7558 42.8444 51.7173 42.9666 51.6405 43.0468C51.5636 43.1232 51.4406 43.1614 51.2715 43.1614Z" fill="#FF015C"/>
<path d="M54.6383 43.1614C54.3154 43.1614 54.154 43.001 54.154 42.6801V35.8738C54.154 35.553 54.3154 35.3926 54.6383 35.3926C54.8036 35.3926 54.965 35.4881 55.1226 35.679L59.7578 41.6145H59.5156V35.8738C59.5156 35.553 59.677 35.3926 59.9999 35.3926C60.3228 35.3926 60.4842 35.553 60.4842 35.8738V42.6801C60.4842 43.001 60.3228 43.1614 59.9999 43.1614C59.8269 43.1614 59.6655 43.0659 59.5156 42.8749L54.8804 36.9395H55.1226V42.6801C55.1226 43.001 54.9611 43.1614 54.6383 43.1614Z" fill="#FF015C"/>
<path d="M63.3649 43.1614C63.042 43.1614 62.8806 43.001 62.8806 42.6801V35.8738C62.8806 35.553 63.042 35.3926 63.3649 35.3926H67.608C67.7579 35.3926 67.8752 35.4365 67.9597 35.5244C68.0481 35.6084 68.0923 35.7249 68.0923 35.8738C68.0923 36.1947 67.9309 36.3551 67.608 36.3551H63.8491V38.7614H66.1668C66.4896 38.7614 66.651 38.9218 66.651 39.2426C66.651 39.5634 66.4896 39.7239 66.1668 39.7239H63.8491V42.6801C63.8491 43.001 63.6877 43.1614 63.3649 43.1614Z" fill="#FF015C"/>
<path d="M69.7719 43.1614C69.6066 43.1614 69.4836 43.1232 69.4029 43.0468C69.326 42.9666 69.2876 42.8444 69.2876 42.6801V35.8853C69.2876 35.7172 69.326 35.595 69.4029 35.5186C69.4836 35.4422 69.6066 35.404 69.7719 35.404C69.941 35.404 70.064 35.4422 70.1409 35.5186C70.2177 35.595 70.2562 35.7172 70.2562 35.8853V42.6801C70.2562 42.8444 70.2177 42.9666 70.1409 43.0468C70.064 43.1232 69.941 43.1614 69.7719 43.1614Z" fill="#FF015C"/>
<path d="M73.1387 43.1614C72.8158 43.1614 72.6544 43.001 72.6544 42.6801V35.8738C72.6544 35.553 72.8158 35.3926 73.1387 35.3926C73.3039 35.3926 73.4653 35.4881 73.6229 35.679L78.2581 41.6145H78.016V35.8738C78.016 35.553 78.1774 35.3926 78.5003 35.3926C78.8231 35.3926 78.9845 35.553 78.9845 35.8738V42.6801C78.9845 43.001 78.8231 43.1614 78.5003 43.1614C78.3273 43.1614 78.1659 43.0659 78.016 42.8749L73.3808 36.9395H73.6229V42.6801C73.6229 43.001 73.4615 43.1614 73.1387 43.1614Z" fill="#FF015C"/>
<path d="M81.8652 43.1614C81.7 43.1614 81.577 43.1232 81.4963 43.0468C81.4194 42.9666 81.381 42.8444 81.381 42.6801V35.8853C81.381 35.7172 81.4194 35.595 81.4963 35.5186C81.577 35.4422 81.7 35.404 81.8652 35.404C82.0344 35.404 82.1573 35.4422 82.2342 35.5186C82.3111 35.595 82.3495 35.7172 82.3495 35.8853V42.6801C82.3495 42.8444 82.3111 42.9666 82.2342 43.0468C82.1573 43.1232 82.0344 43.1614 81.8652 43.1614Z" fill="#FF015C"/>
<path d="M87.0884 43.1614C86.927 43.1614 86.8059 43.1213 86.7252 43.0411C86.6445 42.9609 86.6041 42.8406 86.6041 42.6801V36.3665H84.3672C84.2058 36.3665 84.0848 36.3264 84.004 36.2462C83.9233 36.166 83.883 36.0457 83.883 35.8853C83.883 35.7249 83.9233 35.6046 84.004 35.5244C84.0848 35.4441 84.2058 35.404 84.3672 35.404H89.8096C89.971 35.404 90.0921 35.4441 90.1728 35.5244C90.2535 35.6046 90.2938 35.7249 90.2938 35.8853C90.2938 36.0457 90.2535 36.166 90.1728 36.2462C90.0921 36.3264 89.971 36.3665 89.8096 36.3665H87.5727V42.6801C87.5727 42.8329 87.5304 42.9513 87.4459 43.0354C87.3651 43.1194 87.246 43.1614 87.0884 43.1614Z" fill="#FF015C"/>
<path d="M94.3555 43.1614C93.4754 43.1614 92.8239 42.9532 92.4011 42.5369C91.9822 42.1168 91.7727 41.4694 91.7727 40.5947V35.8738C91.7727 35.7134 91.8131 35.5931 91.8938 35.5129C91.9745 35.4327 92.0956 35.3926 92.257 35.3926C92.4184 35.3926 92.5395 35.4327 92.6202 35.5129C92.7009 35.5931 92.7413 35.7134 92.7413 35.8738V40.5947C92.7413 41.0034 92.7893 41.3242 92.8854 41.5572C92.9853 41.7902 93.1525 41.9563 93.387 42.0557C93.6214 42.1511 93.9443 42.1989 94.3555 42.1989H95.7392C96.1504 42.1989 96.4733 42.1511 96.7077 42.0557C96.9422 41.9563 97.1074 41.7902 97.2035 41.5572C97.3034 41.3242 97.3534 41.0034 97.3534 40.5947V35.8738C97.3534 35.7134 97.3938 35.5931 97.4745 35.5129C97.5552 35.4327 97.6763 35.3926 97.8377 35.3926C97.9991 35.3926 98.1202 35.4327 98.2009 35.5129C98.2816 35.5931 98.322 35.7134 98.322 35.8738V40.5947C98.322 41.4694 98.1125 42.1168 97.6935 42.5369C97.2746 42.9532 96.6231 43.1614 95.7392 43.1614H94.3555Z" fill="#FF015C"/>
<path d="M101.143 43.1614C100.82 43.1614 100.658 43.001 100.658 42.6801V35.8738C100.658 35.553 100.82 35.3926 101.143 35.3926C101.354 35.3926 101.531 35.4957 101.673 35.702L104.394 39.7697L104.187 39.8041L106.931 35.702C107.061 35.4957 107.257 35.3926 107.519 35.3926C107.78 35.3926 107.911 35.553 107.911 35.8738V42.6801C107.911 43.001 107.749 43.1614 107.427 43.1614C107.104 43.1614 106.942 43.001 106.942 42.6801V36.8363L107.242 36.9395L104.821 40.4801C104.679 40.6864 104.483 40.7895 104.233 40.7895C104.06 40.7895 103.902 40.6864 103.76 40.4801L101.339 36.9395L101.627 37.0197V42.6801C101.627 43.001 101.465 43.1614 101.143 43.1614Z" fill="#FF015C"/>
<path d="M51.6647 29.9503C50.8458 29.6344 50.6001 29.0739 50.9277 28.2689L58.2367 10.3536C58.5438 9.68102 59.0249 9.34473 59.6801 9.34473H59.7415C60.4069 9.3753 60.8573 9.71159 61.0928 10.3536L68.5246 28.2689C68.8522 29.0739 68.6168 29.6344 67.8183 29.9503C67.0096 30.2663 66.4466 30.0319 66.1292 29.2472L64.4709 25.2422H54.9047L53.3231 29.2472C53.0057 30.0421 52.453 30.2764 51.6647 29.9503ZM55.9181 22.6742H63.4114L59.588 13.4108L55.9181 22.6742Z" fill="black"/>
<path d="M86.4906 30.1338C86.1528 30.3478 85.8303 30.414 85.5232 30.3325C85.2161 30.251 84.9551 30.0421 84.7401 29.7058L79.98 21.8182L75.6806 21.8182V28.7886C75.6806 29.6446 75.2506 30.0726 74.3908 30.0726C73.5309 30.0726 73.1009 29.6446 73.1009 28.7886V10.6288C73.1009 9.77274 73.5309 9.34473 74.3908 9.34473L81.5769 9.34473C83.4503 9.34473 84.8834 9.84407 85.8764 10.8428C86.8796 11.8313 87.3812 13.258 87.3812 15.1229V16.04C87.3812 17.6603 87.0024 18.9546 86.2449 19.9227C85.4874 20.8806 84.392 21.4768 82.9589 21.7112L86.9819 28.3912C87.3709 29.1045 87.2072 29.6854 86.4906 30.1338ZM75.6806 19.2501L81.5769 19.2501C82.7439 19.2501 83.5731 19.0055 84.0645 18.5164C84.5558 18.0272 84.8015 17.2018 84.8015 16.04V15.1229C84.8015 13.9713 84.5558 13.151 84.0645 12.6618C83.5731 12.1625 82.7439 11.9128 81.5769 11.9128L75.6806 11.9128V19.2501Z" fill="black"/>
<path d="M97.5002 30.0726C95.7497 30.0726 94.3831 29.7211 93.4004 29.0179C92.4279 28.3147 91.8188 27.2294 91.5731 25.762C91.5322 25.3136 91.6243 24.9773 91.8495 24.7531C92.0747 24.5289 92.4023 24.4168 92.8322 24.4168C93.2622 24.4168 93.5744 24.5187 93.7689 24.7225C93.9736 24.9263 94.1118 25.2422 94.1835 25.6702C94.337 26.3734 94.6646 26.8575 95.1662 27.1224C95.678 27.3772 96.456 27.5046 97.5002 27.5046H101.922C103.243 27.5046 104.139 27.2702 104.61 26.8014C105.091 26.3225 105.331 25.4359 105.331 24.1416C105.331 22.827 105.086 21.9303 104.594 21.4513C104.103 20.9621 103.212 20.7176 101.922 20.7176H98.1144C96.1796 20.7176 94.7414 20.2488 93.7996 19.3112C92.8681 18.3635 92.4023 16.9266 92.4023 15.0006C92.4023 13.0847 92.8629 11.6631 93.7842 10.7358C94.7158 9.8084 96.1489 9.34473 98.0837 9.34473L101.738 9.34473C103.366 9.34473 104.64 9.67592 105.562 10.3383C106.493 11.0007 107.082 12.0147 107.327 13.3802C107.389 13.8184 107.307 14.1547 107.082 14.3891C106.857 14.6133 106.519 14.7254 106.068 14.7254C105.659 14.7254 105.352 14.6184 105.147 14.4044C104.942 14.1904 104.809 13.8796 104.748 13.472C104.584 12.8707 104.272 12.4631 103.811 12.2491C103.35 12.0249 102.66 11.9128 101.738 11.9128H98.0837C96.8553 11.9128 96.0312 12.1319 95.6115 12.5701C95.1918 12.9981 94.9819 13.8083 94.9819 15.0006C94.9819 16.2031 95.1969 17.0285 95.6269 17.4769C96.0568 17.9253 96.886 18.1495 98.1144 18.1495H101.922C103.939 18.1495 105.439 18.6387 106.422 19.617C107.414 20.5953 107.911 22.1035 107.911 24.1416C107.911 26.1696 107.42 27.6676 106.437 28.6357C105.454 29.5937 103.949 30.0726 101.922 30.0726H97.5002Z" fill="black"/>
<defs>
<linearGradient id="paint0_linear_1201_21287" x1="17.2107" y1="37.8993" x2="21.8973" y2="31.2998" gradientUnits="userSpaceOnUse">
<stop offset="0.28125" stop-color="#BBFD00"/>
<stop offset="1" stop-color="#5E8000"/>
</linearGradient>
<linearGradient id="paint1_linear_1201_21287" x1="33.0877" y1="13.3183" x2="30.314" y2="17.718" gradientUnits="userSpaceOnUse">
<stop stop-color="#BBFD00"/>
<stop offset="1" stop-color="#638308"/>
</linearGradient>
<radialGradient id="paint2_radial_1201_21287" cx="0" cy="0" r="1" gradientUnits="userSpaceOnUse" gradientTransform="translate(19.787 20.9751) rotate(36.2292) scale(9.42009 9.85265)">
<stop offset="0.335028" stop-color="#FF005C"/>
<stop offset="1" stop-color="#990037"/>
</radialGradient>
</defs>
</svg>
