<svg width="25" height="24" viewBox="0 0 25 24" fill="none" xmlns="http://www.w3.org/2000/svg">
<path fill-rule="evenodd" clip-rule="evenodd" d="M20.1509 4.39898C17.9054 2.15347 14.2647 2.15346 12.0192 4.39898L11.3121 5.10609C11.0192 5.39898 11.0192 5.87385 11.3121 6.16675C11.605 6.45964 12.0798 6.45964 12.3727 6.16675L13.0798 5.45964C14.7396 3.79991 17.4305 3.79991 19.0903 5.45964C20.75 7.11937 20.75 9.81032 19.0903 11.47L17.4041 13.1562C15.8946 14.6658 13.4471 14.6658 11.9376 13.1562L11.6656 12.8843C11.3727 12.5914 10.8979 12.5914 10.605 12.8843C10.3121 13.1772 10.3121 13.652 10.605 13.9449L10.8769 14.2169C12.9722 16.3122 16.3694 16.3122 18.4647 14.2169L20.1509 12.5307C22.3964 10.2852 22.3964 6.64449 20.1509 4.39898ZM7.69507 10.8445C9.2046 9.33501 11.652 9.33501 13.1616 10.8445L13.4335 11.1165C13.7264 11.4094 14.2013 11.4094 14.4942 11.1165C14.7871 10.8236 14.7871 10.3487 14.4942 10.0558L14.2222 9.78388C12.1269 7.68856 8.72973 7.68856 6.63441 9.78388L4.94824 11.4701C2.70272 13.7156 2.70272 17.3563 4.94824 19.6018C7.19375 21.8473 10.8344 21.8473 13.08 19.6018L13.7871 18.8947C14.08 18.6018 14.08 18.1269 13.7871 17.834C13.4942 17.5411 13.0193 17.5411 12.7264 17.834L12.0193 18.5411C10.3596 20.2008 7.66862 20.2008 6.0089 18.5411C4.34917 16.8814 4.34917 14.1904 6.0089 12.5307L7.69507 10.8445Z" fill="white"/>
</svg>
