<svg width="26" height="26" viewBox="0 0 26 26" fill="none" xmlns="http://www.w3.org/2000/svg">
<path d="M26 13C26 20.1797 20.1797 26 13 26C5.8203 26 0 20.1797 0 13C0 5.8203 5.8203 0 13 0C20.1797 0 26 5.8203 26 13ZM2.54037 13C2.54037 18.7767 7.2233 23.4596 13 23.4596C18.7767 23.4596 23.4596 18.7767 23.4596 13C23.4596 7.2233 18.7767 2.54037 13 2.54037C7.2233 2.54037 2.54037 7.2233 2.54037 13Z" fill="#BCFD01"/>
<path d="M9 12.4L11.0498 14.8598C11.5443 15.4532 12.4557 15.4532 12.9502 14.8598L17 10" stroke="#BCFD01" stroke-width="2.47368" stroke-linecap="round"/>
</svg>
