<svg width="18" height="19" viewBox="0 0 18 19" fill="none" xmlns="http://www.w3.org/2000/svg">
<path fill-rule="evenodd" clip-rule="evenodd" d="M14.4032 3.81422C12.7655 2.17651 10.1103 2.17651 8.47256 3.81422L7.95685 4.32992C7.74324 4.54354 7.74324 4.88987 7.95685 5.10349C8.17047 5.3171 8.5168 5.3171 8.73042 5.10349L9.24613 4.58778C10.4566 3.3773 12.4192 3.3773 13.6297 4.58778C14.8401 5.79826 14.8401 7.76083 13.6297 8.9713L12.3999 10.2011C11.299 11.302 9.51399 11.302 8.41306 10.2011L8.21471 10.0027C8.00109 9.78911 7.65476 9.78911 7.44114 10.0027C7.22753 10.2163 7.22753 10.5627 7.44114 10.7763L7.63949 10.9746C9.16765 12.5028 11.6453 12.5028 13.1734 10.9746L14.4032 9.74487C16.0409 8.10716 16.0409 5.45192 14.4032 3.81422ZM5.31889 8.51537C6.41982 7.41444 8.20478 7.41444 9.30571 8.51537L9.50406 8.71372C9.71768 8.92733 10.064 8.92733 10.2776 8.71372C10.4912 8.50011 10.4912 8.15377 10.2776 7.94016L10.0793 7.74181C8.55112 6.21365 6.07348 6.21365 4.54532 7.74181L3.31556 8.97157C1.67785 10.6093 1.67785 13.2645 3.31556 14.9022C4.95326 16.5399 7.60851 16.5399 9.24621 14.9022L9.76192 14.3865C9.97553 14.1729 9.97553 13.8266 9.76192 13.613C9.54831 13.3993 9.20197 13.3993 8.98836 13.613L8.47265 14.1287C7.26217 15.3391 5.2996 15.3391 4.08912 14.1287C2.87864 12.9182 2.87864 10.9556 4.08912 9.74514L5.31889 8.51537Z" fill="#FF015C"/>
</svg>
