<svg width="24" height="24" viewBox="0 0 24 24" fill="none" xmlns="http://www.w3.org/2000/svg">
<path fill-rule="evenodd" clip-rule="evenodd" d="M19.6017 4.39898C17.3561 2.15347 13.7154 2.15346 11.4699 4.39898L10.7628 5.10609C10.4699 5.39898 10.4699 5.87385 10.7628 6.16675C11.0557 6.45964 11.5306 6.45964 11.8235 6.16675L12.5306 5.45964C14.1903 3.79991 16.8813 3.79991 18.541 5.45964C20.2007 7.11937 20.2007 9.81032 18.541 11.47L16.8548 13.1562C15.3453 14.6658 12.8979 14.6658 11.3883 13.1562L11.1164 12.8843C10.8235 12.5914 10.3486 12.5914 10.0557 12.8843C9.76283 13.1772 9.76282 13.652 10.0557 13.9449L10.3277 14.2169C12.423 16.3122 15.8202 16.3122 17.9155 14.2169L19.6017 12.5307C21.8472 10.2852 21.8472 6.64449 19.6017 4.39898ZM7.14582 10.8445C8.65534 9.33501 11.1028 9.33501 12.6123 10.8445L12.8843 11.1165C13.1772 11.4094 13.652 11.4094 13.9449 11.1165C14.2378 10.8236 14.2378 10.3487 13.9449 10.0558L13.673 9.78388C11.5776 7.68856 8.18047 7.68856 6.08516 9.78388L4.39898 11.4701C2.15346 13.7156 2.15346 17.3563 4.39898 19.6018C6.64449 21.8473 10.2852 21.8473 12.5307 19.6018L13.2378 18.8947C13.5307 18.6018 13.5307 18.1269 13.2378 17.834C12.9449 17.5411 12.47 17.5411 12.1772 17.834L11.47 18.5411C9.81032 20.2008 7.11937 20.2008 5.45964 18.5411C3.79991 16.8814 3.79991 14.1904 5.45964 12.5307L7.14582 10.8445Z" fill="#21262F"/>
</svg>
