<svg width="24" height="24" viewBox="0 0 24 24" fill="none" xmlns="http://www.w3.org/2000/svg">
<path fill-rule="evenodd" clip-rule="evenodd" d="M6.00005 2.25005L5.88425 2.25002C5.06629 2.24975 4.50814 2.24957 4.02948 2.37783C2.73538 2.72458 1.72458 3.73538 1.37783 5.02948C1.24957 5.50814 1.24975 6.06629 1.25002 6.88425L1.25005 7.00005V14V14.0549C1.25003 15.4225 1.25001 16.5248 1.36657 17.3918C1.48759 18.2919 1.74648 19.0498 2.3484 19.6517C2.95032 20.2536 3.70819 20.5125 4.6083 20.6335C5.47527 20.7501 6.57759 20.7501 7.94518 20.75H8.00005H16H16.0549C17.4225 20.7501 18.5248 20.7501 19.3918 20.6335C20.2919 20.5125 21.0498 20.2536 21.6517 19.6517C22.2536 19.0498 22.5125 18.2919 22.6335 17.3918C22.7501 16.5248 22.7501 15.4225 22.75 14.0549V14V12V11.9452C22.7501 10.5776 22.7501 9.47527 22.6335 8.6083C22.5125 7.70819 22.2536 6.95032 21.6517 6.3484C21.0498 5.74648 20.2919 5.48759 19.3918 5.36657C18.5248 5.25001 17.4225 5.25003 16.0549 5.25005L16 5.25005H15.1214C14.2138 5.25005 13.9048 5.24337 13.6259 5.16386C13.4598 5.11651 13.2997 5.0502 13.1488 4.96623C12.8953 4.82521 12.6721 4.61149 12.0304 3.96972L11.9592 3.89847L11.9592 3.89847C11.4162 3.35512 11.04 2.97869 10.5806 2.72309C10.329 2.58313 10.0622 2.47261 9.78538 2.3937C9.2798 2.24958 8.74763 2.24977 7.97947 2.25003L7.87873 2.25005H6.00005ZM2.75005 14V7.00005C2.75005 6.02179 2.75649 5.67979 2.82672 5.41771C3.03477 4.64125 3.64125 4.03477 4.41771 3.82672C4.67979 3.75649 5.02179 3.75005 6.00005 3.75005H7.87873C8.78633 3.75005 9.09526 3.75673 9.37419 3.83624C9.54029 3.88358 9.70039 3.9499 9.85132 4.03387C10.1048 4.17488 10.328 4.38861 10.9697 5.03038L11.0409 5.10162L11.0409 5.10164C11.5839 5.64498 11.9601 6.02141 12.4195 6.27701C12.6711 6.41697 12.9379 6.52749 13.2147 6.6064C13.7203 6.75051 14.2525 6.75033 15.0206 6.75007L15.1214 6.75005H16C17.4355 6.75005 18.4366 6.75164 19.1919 6.8532C19.9257 6.95185 20.3143 7.1323 20.591 7.40906C20.8678 7.68582 21.0482 8.07439 21.1469 8.80817C21.2485 9.56352 21.25 10.5646 21.25 12V14C21.25 15.4355 21.2485 16.4366 21.1469 17.1919C21.0482 17.9257 20.8678 18.3143 20.591 18.591C20.3143 18.8678 19.9257 19.0482 19.1919 19.1469C18.4366 19.2485 17.4355 19.25 16 19.25H8.00005C6.56463 19.25 5.56352 19.2485 4.80817 19.1469C4.07439 19.0482 3.68582 18.8678 3.40906 18.591C3.1323 18.3143 2.95185 17.9257 2.8532 17.1919C2.75164 16.4366 2.75005 15.4355 2.75005 14ZM12.75 10.0002C12.75 9.58596 12.4143 9.25017 12 9.25017C11.5858 9.25017 11.25 9.58596 11.25 10.0002V14.1895L10.0304 12.9698C9.73749 12.6769 9.26261 12.6769 8.96972 12.9698C8.67683 13.2627 8.67683 13.7376 8.96972 14.0305L11.4697 16.5305C11.7626 16.8234 12.2375 16.8234 12.5304 16.5305L15.0304 14.0305C15.3233 13.7376 15.3233 13.2627 15.0304 12.9698C14.7375 12.6769 14.2626 12.6769 13.9697 12.9698L12.75 14.1895V10.0002Z" fill="#FF015C"/>
</svg>
