<svg width="25" height="24" viewBox="0 0 25 24" fill="none" xmlns="http://www.w3.org/2000/svg">
<path fill-rule="evenodd" clip-rule="evenodd" d="M10.9929 2.25H11.0493H12.0493C12.4635 2.25 12.7993 2.58579 12.7993 3C12.7993 3.41421 12.4635 3.75 12.0493 3.75H11.0493C9.1425 3.75 7.78783 3.75159 6.76017 3.88976C5.75408 4.02502 5.17443 4.27869 4.75122 4.7019C4.32801 5.12511 4.07434 5.70476 3.93908 6.71085C3.80091 7.73851 3.79932 9.09318 3.79932 11V13C3.79932 14.7777 3.8007 16.0755 3.91284 17.0758L4.51899 16.4697L6.19056 14.7981L6.22733 14.7613C6.86263 14.126 7.39239 13.5962 7.86951 13.2322C8.37311 12.8479 8.90519 12.5784 9.54932 12.5784C10.1934 12.5784 10.7255 12.8479 11.2291 13.2322C11.7062 13.5962 12.236 14.126 12.8713 14.7613L12.8713 14.7613L12.9081 14.7981L14.0496 15.9396C14.5454 15.4467 14.9754 15.0329 15.3695 14.7322C15.8731 14.3479 16.4052 14.0784 17.0493 14.0784C17.6934 14.0784 18.2255 14.3479 18.7291 14.7322C19.1774 15.0741 19.672 15.5624 20.2571 16.1471C20.2986 15.2994 20.2993 14.2727 20.2993 13V12C20.2993 11.5858 20.6351 11.25 21.0493 11.25C21.4635 11.25 21.7993 11.5858 21.7993 12V13V13.0564V13.0565C21.7993 14.8942 21.7993 16.3498 21.6462 17.489C21.4886 18.6614 21.1564 19.6104 20.4081 20.3588C19.6597 21.1071 18.7108 21.4392 17.5383 21.5969C16.3991 21.75 14.9435 21.75 13.1058 21.75H13.1057H13.0493H11.0493H10.9929H10.9929C9.15512 21.75 7.6995 21.75 6.56029 21.5969C5.38787 21.4392 4.43892 21.1071 3.69056 20.3588C2.9422 19.6104 2.61008 18.6614 2.45245 17.489C2.29929 16.3498 2.2993 14.8942 2.29932 13.0564V13V11V10.9436C2.2993 9.10582 2.29929 7.65019 2.45245 6.51098C2.61008 5.33856 2.9422 4.38961 3.69056 3.64124C4.43892 2.89288 5.38787 2.56076 6.56029 2.40313C7.69951 2.24997 9.15514 2.24998 10.9929 2.25ZM4.75122 19.2981C4.59641 19.1433 4.46428 18.9675 4.35234 18.7576L5.57965 17.5303L7.25122 15.8588C7.93288 15.1771 8.3919 14.7203 8.77938 14.4247C9.14955 14.1423 9.36502 14.0784 9.54932 14.0784C9.73361 14.0784 9.94908 14.1423 10.3193 14.4247C10.7067 14.7203 11.1658 15.1771 11.8474 15.8588L13.519 17.5303L16.1964 20.2077C15.3487 20.2493 14.322 20.25 13.0493 20.25H11.0493C9.1425 20.25 7.78783 20.2484 6.76017 20.1102C5.75408 19.975 5.17443 19.7213 4.75122 19.2981ZM19.3474 19.2981C19.0411 19.6045 18.6527 19.822 18.08 19.97L18.0796 19.9697L15.1104 17.0004C15.6016 16.5123 15.9642 16.1652 16.2794 15.9247C16.6496 15.6423 16.865 15.5784 17.0493 15.5784C17.2336 15.5784 17.4491 15.6423 17.8193 15.9247C18.2067 16.2203 18.6658 16.6771 19.3474 17.3588L20.019 18.0303L20.0194 18.0307C19.8713 18.6034 19.6538 18.9917 19.3474 19.2981ZM17.7993 3C17.7993 2.58579 17.4635 2.25 17.0493 2.25C16.6351 2.25 16.2993 2.58579 16.2993 3V7.18934L15.0796 5.96967C14.7868 5.67678 14.3119 5.67678 14.019 5.96967C13.7261 6.26256 13.7261 6.73744 14.019 7.03033L16.519 9.53033C16.8119 9.82322 17.2868 9.82322 17.5796 9.53033L20.0796 7.03033C20.3725 6.73744 20.3725 6.26256 20.0796 5.96967C19.7868 5.67678 19.3119 5.67678 19.019 5.96967L17.7993 7.18934V3Z" fill="white"/>
</svg>
