<svg width="37" height="38" viewBox="0 0 37 38" fill="none" xmlns="http://www.w3.org/2000/svg">
<path d="M0 19.0246C0.0738032 8.74136 8.19215 0.5 18.4754 0.5C28.7586 0.5 37 8.71676 37 19C37 29.2586 28.8078 37.5 18.5246 37.5C8.24136 37.5 0.0984043 29.2832 0 19.0246ZM19.0166 30.0459C21.0339 29.9967 23.5678 30.1689 26.0771 29.9721C28.2666 29.7999 30.0625 28.1762 30.5053 26.0359C30.8989 24.117 31.2926 22.1981 31.637 20.2793C31.9814 18.4834 31.4402 16.9827 30.0379 15.8019C29.8657 15.6543 29.7427 15.5066 29.6689 15.2852C29.0785 13.5386 27.4548 12.2101 25.3883 12.2593C23.9122 12.3085 22.4116 12.2593 20.9355 12.2593C20.3943 12.2593 20.0499 12.0871 19.7547 11.6443C19.238 10.857 18.6968 10.0944 18.131 9.35638C17.4422 8.42154 16.5073 7.95412 15.3511 7.95412C14.0718 7.95412 12.7926 7.95412 11.5133 7.95412C9.2746 7.95412 7.42952 9.57779 7.10971 11.7919C6.9375 12.9481 7.0605 14.1044 7.0359 15.236C7.0359 15.5559 6.9621 15.7773 6.71609 15.9987C5.48604 17.1549 5.04322 18.6064 5.36303 20.2547C5.73205 22.1981 6.12567 24.1662 6.51928 26.1097C6.69149 27.0199 7.10971 27.7826 7.74934 28.4468C8.85638 29.5785 10.234 30.0459 11.7839 30.0459C14.0226 30.0459 16.2859 30.0459 19.0166 30.0459Z" fill="#BEC5D7"/>
<path d="M18.4263 17.2285C21.0832 17.2285 23.7647 17.2285 26.4216 17.2285C27.2335 17.2285 27.9469 17.4499 28.5373 18.0404C29.0048 18.5324 29.177 19.0982 29.054 19.7378C28.6849 21.6075 28.3159 23.5018 27.9469 25.3715C27.6763 26.6753 26.7415 27.3642 25.2162 27.3642C21.6244 27.3642 18.0327 27.3642 14.4409 27.3642C13.3585 27.3642 12.276 27.438 11.1936 27.3149C10.0865 27.1919 9.32391 26.5031 9.1025 25.4207C8.70888 23.5264 8.33986 21.6075 7.97085 19.7132C7.72484 18.4094 8.83189 17.2285 10.308 17.2285C12.8911 17.2285 15.4988 17.2285 18.0819 17.2285C18.2049 17.2285 18.3033 17.2285 18.4263 17.2285Z" fill="#BEC5D7"/>
<path d="M18.8194 14.4003C18.5734 14.5479 18.4012 14.4987 18.229 14.4987C15.6458 14.4987 13.0627 14.4987 10.5042 14.4987C9.69238 14.4987 9.69238 14.4987 9.69238 13.6868C9.69238 13.2194 9.69238 12.7274 9.74158 12.26C9.86459 11.3005 10.4796 10.6363 11.4637 10.6117C12.7429 10.5625 14.0222 10.6117 15.3014 10.6117C15.6458 10.6117 15.8919 10.7839 16.0887 11.0545C16.5561 11.7434 17.0481 12.4076 17.5401 13.0964C17.8845 13.5884 18.229 14.0805 18.7948 14.4003H18.8194Z" fill="#BEC5D7"/>
</svg>
