<svg width="35" height="25" viewBox="0 0 35 25" fill="none" xmlns="http://www.w3.org/2000/svg">
<path d="M1 9.45769C1 7.45433 2.62404 5.8303 4.62739 5.8303V5.8303C4.86611 5.8303 5.09521 5.73616 5.26497 5.56833L5.86664 4.97347C6.81745 4.03342 7.29286 3.56339 7.87511 3.27641C8.03804 3.1961 8.20626 3.12698 8.37858 3.06954C8.9944 2.86426 9.66293 2.86426 11 2.86426V2.86426C12.3371 2.86426 13.0056 2.86426 13.6214 3.06954C13.7937 3.12698 13.962 3.1961 14.1249 3.27641C14.7071 3.56339 15.1825 4.03342 16.1334 4.97347L16.735 5.56833C16.9048 5.73616 17.1339 5.8303 17.3726 5.8303V5.8303C19.376 5.8303 21 7.45433 21 9.45769V13.7397C21 17.4229 21 19.2645 19.8783 20.4269C19.8453 20.461 19.8118 20.4945 19.7777 20.5274C18.6153 21.6492 16.7737 21.6492 13.0906 21.6492H8.90944C5.22625 21.6492 3.38466 21.6492 2.22231 20.5274C2.18819 20.4945 2.15466 20.461 2.12173 20.4269C1 19.2645 1 17.4229 1 13.7397V9.45769Z" stroke="#FF015C" stroke-width="1.5" stroke-linecap="round" stroke-linejoin="round"/>
<path fill-rule="evenodd" clip-rule="evenodd" d="M4.62739 5.83006C2.62404 5.83006 1 7.45409 1 9.45745L1 13.7395C1 17.4227 1 19.2643 2.12173 20.4266C2.15466 20.4607 2.18819 20.4943 2.22231 20.5272C3.38466 21.6489 5.22625 21.6489 8.90944 21.6489L13.0906 21.6489C16.7737 21.6489 18.6153 21.6489 19.7777 20.5272C19.8118 20.4943 19.8453 20.4607 19.8783 20.4266C21 19.2643 21 17.4227 21 13.7395L21 9.45745C21 7.45409 19.376 5.83006 17.3726 5.83006C17.1339 5.83006 16.9048 5.73593 16.735 5.56809L16.1334 4.97323C15.1825 4.03318 14.7071 3.56315 14.1249 3.27617C13.962 3.19586 13.7937 3.12674 13.6214 3.0693C13.0056 2.86402 12.3371 2.86402 11 2.86402C9.66294 2.86402 8.9944 2.86402 8.37859 3.0693C8.20626 3.12674 8.03804 3.19586 7.87511 3.27617C7.29286 3.56315 6.81746 4.03318 5.86664 4.97323L5.86664 4.97323L5.26497 5.56809C5.09521 5.73593 4.86612 5.83006 4.62739 5.83006ZM11 16.7055C13.2091 16.7055 15 14.9349 15 12.7508C15 10.5667 13.2091 8.79609 11 8.79609C8.79086 8.79609 7 10.5667 7 12.7508C7 14.9349 8.79086 16.7055 11 16.7055Z" fill="white"/>
<ellipse cx="11" cy="12.7509" rx="4" ry="3.95472" stroke="#FF015C" stroke-width="1.5" stroke-linecap="round" stroke-linejoin="round"/>
</svg>
