<svg width="737" height="202" viewBox="0 0 737 202" fill="none" xmlns="http://www.w3.org/2000/svg">
<path d="M543.645 131.649C543.645 129.815 544.053 126.452 546.498 123.701C547.415 122.682 547.313 121.969 546.091 121.154C536.309 114.633 534.984 104.647 536.309 94.2536C537.226 86.5096 539.467 79.1731 547.415 75.3011C548.74 74.6897 548.434 73.5689 547.823 72.5499C540.792 61.4434 551.797 40.6568 564.941 35.1545C567.081 34.2374 569.323 34.0336 571.564 34.3393C573.195 34.5431 574.01 34.1355 574.01 32.3014C573.806 25.7801 577.27 21.1948 581.856 17.119C588.275 11.5148 595.713 8.45795 604.375 8.05037C607.737 7.94847 610.896 8.76363 613.749 10.6996C614.87 11.5148 615.583 11.8205 616.602 10.394C622.614 1.1215 632.192 0.000656503 642.279 0.713922C647.374 1.1215 652.163 2.64993 656.545 5.50299C658.888 7.03142 660.621 8.96742 661.741 11.6167C662.149 12.6356 662.557 13.5527 663.983 12.7375C673.357 7.84658 681.917 10.8015 689.864 15.9982C695.367 19.5645 700.36 24.0479 702.499 30.773C702.703 31.4862 703.111 32.1995 703.009 32.8109C702.092 37.8037 704.843 38.7208 709.123 39.3322C714.727 40.1473 718.701 44.325 721.86 48.7065C727.056 55.8392 730.215 63.6851 728.89 72.8556C728.89 73.3651 728.89 73.8746 728.585 74.1803C724.713 78.7656 727.668 81.211 730.928 84.6755C737.348 91.1968 737.551 99.9597 736.431 108.519C735.412 115.855 733.068 122.784 725.732 126.554C724.713 127.064 724.509 127.777 724.916 128.898C730.317 142.654 724.407 153.149 714.931 162.32C711.262 165.886 706.779 168.433 701.277 167.72C700.156 167.618 699.443 168.026 699.341 169.248C697.71 182.597 688.54 188.608 677.128 192.48C670.912 194.62 664.696 195.13 658.888 191.054C657.869 190.341 657.156 190.544 656.545 191.563C649.718 202.059 639.223 202.364 628.524 201.04C621.289 200.123 614.462 197.779 610.896 190.341C610.386 189.322 609.673 189.22 608.552 189.627C597.853 194.213 588.377 190.85 580.022 184.125C574.417 179.642 569.323 174.343 569.73 166.192C569.73 164.561 568.711 163.848 567.285 163.746C553.631 162.829 543.441 145.303 543.645 131.649ZM587.46 109.334C592.249 112.391 595.917 116.365 598.668 121.256C599.891 123.396 600.706 125.739 601.318 128.185C601.827 130.223 600.503 131.547 598.77 131.751C596.63 132.057 597.344 130.019 597.242 129C597.038 125.535 595.51 122.682 592.962 120.339C588.988 116.772 583.894 118.301 582.467 123.396C581.244 127.675 581.754 132.057 582.06 136.438C582.467 142.552 583.078 148.666 581.041 154.677C580.429 156.613 581.041 157.327 582.773 158.244C586.441 160.18 588.683 163.237 588.683 167.516C588.683 169.452 588.071 170.777 585.626 170.064C583.384 169.35 581.448 169.86 580.123 171.898C578.799 173.936 578.595 176.177 580.022 178.215C583.078 183.004 587.46 185.755 593.268 185.755C599.076 185.755 602.235 180.966 600.197 175.566C599.076 172.713 597.446 170.064 595.815 167.516C592.453 162.421 588.785 157.53 587.154 151.417C585.014 143.265 589.6 134.808 597.242 133.585C606.209 132.057 613.239 136.336 619.557 141.94C619.863 142.246 620.168 142.654 620.27 143.163C620.78 144.59 620.168 145.813 619.047 146.628C617.621 147.647 617.417 145.914 616.806 145.201C615.379 143.469 613.851 141.839 611.813 140.82C608.654 139.291 605.495 138.374 602.642 141.023C599.789 143.571 600.706 146.831 601.827 149.888C603.05 153.251 605.393 156.002 607.228 158.957C610.488 164.256 614.462 169.248 615.481 175.566C615.787 177.604 617.213 177.298 618.742 177.298C622.818 177.298 626.18 178.623 628.32 182.189C629.237 183.717 629.644 185.348 627.199 185.959C624.652 186.672 623.021 188.201 623.021 190.952C623.021 193.907 624.855 195.741 627.403 196.76C631.581 198.288 635.962 198.492 640.14 196.76C646.151 194.213 647.069 187.589 642.076 183.412C640.343 181.985 638.306 180.966 636.37 179.947C630.867 177.094 624.957 174.853 620.168 170.675C615.787 166.905 613.341 162.32 614.564 156.308C616.602 146.22 634.739 139.393 643.197 145.507C643.4 145.609 643.604 145.813 643.706 145.914C644.521 146.933 644.827 148.054 644.215 149.175C643.4 150.602 642.381 149.583 641.464 149.175C639.019 148.054 636.573 147.545 633.924 147.749C630.663 148.054 627.912 149.379 626.791 152.639C625.671 156.002 627.81 158.142 630.154 160.078C634.332 163.44 639.426 165.274 644.012 167.822C647.884 169.962 652.061 171.898 654.914 175.566C656.341 177.4 657.258 177.502 659.092 176.075C662.353 173.528 667.448 173.63 670.403 175.668C671.727 176.585 672.542 177.502 671.014 179.03C669.078 180.966 668.059 183.106 669.791 185.653C671.523 188.201 673.969 189.016 676.924 188.405C680.694 187.589 684.056 185.959 686.604 183.004C689.049 180.355 689.864 177.196 688.642 173.834C687.419 170.471 684.464 169.554 681.203 169.554C676.211 169.554 671.32 169.452 666.429 170.064C661.436 170.675 656.545 169.962 651.96 167.72C644.623 164.052 641.974 155.187 646.253 148.156C650.024 141.94 655.933 138.68 662.557 136.438C663.576 136.031 665.002 135.317 665.613 136.846C666.327 138.476 665.206 139.495 663.779 140.106C662.251 140.718 660.621 141.125 659.194 141.839C655.424 143.673 653.386 147.035 653.997 150.194C654.609 153.251 657.054 155.187 661.538 155.289C666.327 155.493 671.218 155.493 676.007 154.983C680.796 154.575 685.483 154.575 689.966 156.206C691.902 156.919 692.718 156.511 693.431 154.677C694.959 150.907 698.016 149.073 701.888 148.564C703.824 148.36 705.964 148.564 705.149 151.621C704.537 153.964 705.149 155.9 707.187 157.123C709.326 158.549 711.67 158.447 713.81 157.123C717.784 154.575 720.127 150.805 720.942 146.22C721.554 142.756 720.739 139.699 717.58 137.457C714.727 135.419 711.874 136.234 709.225 137.661C705.964 139.495 702.805 141.635 699.646 143.673C695.265 146.526 690.883 149.277 685.789 150.5C681.713 151.519 678.045 150.805 674.682 148.462C670.199 145.303 667.753 141.125 668.467 135.521C669.384 128.287 672.44 122.071 678.248 117.384C678.452 117.282 678.656 117.18 678.962 117.18C680.184 117.078 681.407 117.384 682.019 118.505C682.63 119.727 681.305 120.033 680.592 120.543C678.045 122.682 675.803 125.026 674.784 128.388C674.071 130.834 674.478 133.076 676.312 134.91C678.147 136.846 680.388 137.151 682.834 136.234C686.196 135.012 689.253 133.279 692.208 131.343C697.812 127.777 703.111 123.294 709.938 122.071C712.179 121.663 712.791 120.848 712.587 118.607C712.179 114.531 713.708 111.168 717.274 108.926C719.108 107.704 720.739 107.5 721.452 110.353C721.961 112.391 723.286 113.817 725.63 114.021C727.973 114.225 729.807 113.41 731.132 111.474C733.883 107.5 733.781 99.2465 731.132 95.2726C727.973 90.7892 722.777 90.3816 719.21 94.5593C717.376 96.6991 715.95 99.1446 714.727 101.692C712.281 106.787 709.938 111.983 706.371 116.365C701.073 122.886 692.921 124.618 686.604 120.543C680.184 116.569 676.618 100.877 680.592 94.3555C681.509 92.8271 683.038 92.2157 684.566 93.0309C686.196 93.846 684.566 95.0688 684.26 95.9858C682.936 99.654 682.324 103.22 684.26 106.889C686.502 110.862 690.17 111.474 693.635 108.519C695.571 106.889 696.895 104.851 698.118 102.609C702.296 95.3745 704.843 87.2228 711.364 81.4148C712.893 80.0902 711.772 78.8675 711.059 77.6447C709.123 73.9765 708.817 70.2064 710.957 66.5381C711.874 64.9078 713.097 64.2965 714.625 66.0287C716.357 67.9647 718.395 68.3723 720.637 67.2514C723.082 66.0287 723.897 63.787 723.694 61.3415C723.286 56.5524 721.35 52.4766 717.478 49.4198C714.931 47.4838 711.976 46.7705 708.817 48.197C705.76 49.6236 704.741 52.2728 704.741 55.4316C704.741 60.832 704.741 66.2325 705.149 71.6329C705.454 75.5049 705.047 79.3769 703.722 83.147C701.481 89.4645 694.45 93.5403 687.928 92.4195C679.573 90.993 672.542 79.8864 671.218 72.6518C670.912 71.0215 672.033 70.2064 673.357 69.9007C675.293 69.3912 674.988 71.1234 675.192 72.1424C675.599 74.2822 676.007 76.3201 677.128 78.1542C679.267 81.8224 682.732 83.7584 685.789 83.0451C688.744 82.3319 690.578 79.3769 690.578 74.8935C690.578 69.9007 690.578 65.0097 690.476 60.0169C690.272 55.3297 690.068 50.5406 691.902 46.0572C692.718 44.1212 691.291 43.9174 690.068 43.408C686.4 41.6757 684.158 38.7208 683.751 34.645C683.547 32.6071 684.056 30.773 686.91 31.4862C689.253 32.0976 691.495 31.5881 692.718 29.3464C693.94 27.1047 693.736 24.7612 692.208 22.6214C689.355 18.7494 685.483 16.3039 680.694 15.6925C674.275 14.7754 670.097 20.2778 672.44 26.2896C673.765 29.6521 676.007 32.709 677.943 35.6639C680.694 39.7397 683.547 43.8155 685.075 48.6046C688.03 57.4695 683.649 65.8249 675.192 68.0666C668.772 69.6969 657.869 64.8059 652.978 59.4055C652.571 58.9979 652.367 58.3865 652.367 57.7752C652.367 56.5524 652.469 55.3297 653.794 54.8202C655.016 54.3107 655.424 55.5335 655.832 56.2467C657.258 58.3865 659.092 60.0169 661.334 61.0358C664.391 62.5642 667.549 62.6661 670.199 60.3225C672.746 58.0809 672.135 55.2278 671.014 52.4766C669.384 48.5027 666.938 45.0383 664.595 41.472C661.64 36.8867 658.379 32.5052 657.36 27.0029C656.85 24.3536 655.628 23.7422 653.284 23.946C649.412 24.1498 646.355 22.6214 644.215 19.4626C643.095 17.7304 642.687 15.8963 645.54 15.2849C647.68 14.7754 649.005 13.3489 649.208 11.1072C649.412 8.76363 648.597 6.82763 646.559 5.70678C641.77 2.95561 636.675 2.44614 631.682 4.99352C625.772 8.05037 625.161 13.3489 630.052 17.8323C633.517 20.991 637.898 22.6214 641.974 24.6593C645.642 26.4934 649.31 28.4294 652.469 31.1805C661.028 38.6189 659.296 51.5596 649.106 55.8392C645.133 57.4695 640.955 58.0808 636.675 57.7752C634.332 57.5714 631.988 57.3676 629.746 56.4505C628.218 55.7373 627.708 54.4126 628.218 52.8842C628.931 51.0501 630.154 52.2728 631.173 52.6804C633.618 53.6994 636.166 53.8013 638.815 53.6994C641.974 53.5975 644.317 52.1709 645.336 49.1141C646.355 46.1591 645.031 43.8155 642.789 41.9814C639.936 39.6378 636.675 38.0075 633.517 36.2753C627.607 33.2184 621.187 30.8749 616.806 25.3725C615.583 23.8441 614.666 24.6593 613.545 25.3725C610.183 27.6142 606.514 28.1237 602.846 26.2896C600.91 25.3725 599.585 24.2517 601.725 22.1119C603.457 20.3797 604.069 18.2399 602.642 15.9982C601.216 13.7565 599.076 12.5337 596.325 12.9413C591.74 13.7565 587.868 15.7944 584.913 19.4626C582.977 21.9081 582.263 24.7612 583.588 27.7161C584.913 30.773 587.562 31.9957 590.721 32.0976C594.389 32.3014 598.057 32.3014 601.623 31.7919C606.412 31.1805 611.303 31.1805 615.991 32.1995C626.486 34.4412 631.071 44.7326 625.569 54.005C623.735 57.1638 620.882 59.3036 617.927 61.1377C615.175 62.8699 612.322 64.704 608.96 65.2135C607.024 65.5192 605.597 64.6021 605.292 62.8699C604.884 60.7301 606.922 61.3415 607.941 61.1377C610.488 60.6282 613.036 60.0169 615.074 58.3865C617.315 56.6543 618.844 54.3107 618.334 51.3558C617.825 48.2989 615.481 46.9743 612.628 46.261C608.654 45.344 604.68 45.7515 600.706 46.0572C594.694 46.4648 588.683 47.1781 582.875 45.2421C580.735 44.5288 579.716 44.7326 578.697 46.8724C577.169 50.2349 574.417 52.1709 570.749 52.6804C568.202 52.9861 566.164 52.6804 566.979 49.216C567.489 46.8724 566.571 45.0383 564.534 43.8155C562.496 42.5928 560.458 42.7966 558.522 44.1212C554.344 46.8724 551.695 50.7444 550.982 55.6354C550.064 62.0548 555.363 66.2325 561.477 64.1946C563.718 63.4813 565.654 62.1567 567.692 60.832C572.787 57.4695 577.678 53.8013 583.486 51.6615C589.294 49.5217 594.694 50.2349 599.28 54.4126C603.457 58.1827 604.578 62.8699 603.254 68.2704C602.031 73.6708 599.585 78.4599 595.713 82.4338C595.102 83.0451 594.593 83.6565 593.879 84.0641C592.555 84.7774 591.23 84.3698 590.415 83.3508C589.396 82.0262 590.822 81.5167 591.536 80.9053C593.676 78.8674 596.019 76.9314 596.834 73.9765C597.548 71.4291 597.955 68.7798 595.815 66.64C593.777 64.6021 591.23 64.5002 588.581 65.3154C585.83 66.1306 583.384 67.5571 581.041 69.0855C574.723 73.0594 568.813 77.9504 561.171 79.6826C559.439 80.0902 559.541 81.211 559.541 82.6376C559.643 86.9172 558.012 90.4835 554.038 92.5214C552.408 93.4384 551.083 93.3365 550.574 91.1967C549.963 88.7513 548.332 87.2228 545.887 87.1209C543.136 87.019 541.2 88.6494 540.181 91.1967C538.652 94.9669 538.143 98.8389 539.467 102.915C540.588 106.379 542.422 108.723 546.192 109.334C550.064 109.945 552.51 107.908 554.242 104.851C556.586 100.673 558.827 96.2915 561.069 92.1138C562.903 88.5475 565.043 85.1849 567.998 82.4338C575.334 75.7087 586.237 77.7466 590.517 86.8153C593.166 92.3176 593.268 98.1256 592.249 104.137C591.74 107.5 590.109 109.232 586.645 108.926C587.154 105.462 589.294 102.405 588.886 98.737C588.479 95.3744 587.868 92.3176 584.097 91.2986C580.429 90.1778 577.984 92.3176 576.15 95.1707C574.01 98.5332 572.176 102.1 570.342 105.666C567.794 110.353 565.756 115.244 561.68 118.81C559.846 120.441 559.439 121.663 560.967 123.803C563.311 127.064 563.107 130.63 561.273 134.196C560.254 136.031 559.031 136.948 557.197 135.012C555.465 133.279 553.529 132.464 551.185 133.993C548.74 135.725 547.517 137.967 548.23 140.922C548.944 143.571 549.861 146.118 551.389 148.36C554.242 152.538 558.318 154.372 562.19 153.047C565.654 151.926 567.489 148.869 567.387 143.571C567.387 137.661 566.775 131.853 566.775 125.943C566.775 121.256 567.692 116.671 571.157 112.9C575.538 108.213 580.837 108.213 586.441 108.825L587.46 109.334Z" fill="#6E6655"/>
<path d="M52.3081 144.894C57.1991 142.754 61.0712 139.595 63.8223 135.52C66.5735 131.444 68 126.553 68 120.745C68 117.28 67.2868 114.122 65.9621 111.269C64.5356 108.415 62.5996 105.97 60.0522 103.932C57.5048 101.894 54.448 100.06 50.7798 98.6335C47.2135 97.207 43.1376 95.9842 38.6542 95.0672C36.3107 94.5577 34.1709 94.0482 32.133 93.335C30.197 92.7236 28.4647 91.9084 27.1401 91.0933C25.7135 90.2781 24.6946 89.2592 23.9813 88.1383C23.2681 87.0175 22.8605 85.6928 22.8605 84.2663C22.8605 82.4322 23.37 80.8019 24.4908 79.4772C25.6117 78.1526 27.1401 77.1337 29.0761 76.5223C31.0121 75.809 33.3557 75.5033 36.005 75.5033C38.4504 75.5033 40.7941 75.9109 43.1377 76.6242C45.4812 77.4393 47.621 78.5602 49.6589 80.0886C51.6968 81.617 53.5309 83.553 55.2631 85.7947L66.8791 74.5863C64.9431 71.4275 62.4977 68.6764 59.6446 66.5366C56.7915 64.3968 53.3271 62.6646 49.4551 61.4418C45.5831 60.2191 40.9978 59.7096 35.8012 59.7096C31.5216 59.7096 27.5477 60.321 23.7776 61.5437C20.0075 62.7664 16.6449 64.4987 13.7918 66.8423C10.9388 69.0839 8.59519 71.8351 6.96487 74.9939C5.33455 78.1526 4.51941 81.5151 4.51941 85.1834C4.51941 88.8516 5.02885 92.0103 6.14969 94.8634C7.27054 97.7165 8.90086 100.264 11.2444 102.506C13.4861 104.747 16.3392 106.581 19.8037 108.11C23.2681 109.638 27.242 110.861 31.8273 111.982C33.9671 112.287 35.903 112.695 37.7371 113.306C39.5713 113.816 41.2016 114.427 42.6281 115.141C44.0547 115.854 45.3793 116.567 46.3983 117.484C47.4172 118.299 48.2324 119.318 48.8438 120.439C49.4551 121.56 49.6589 122.783 49.6589 124.005C49.6589 125.839 49.0475 127.368 47.9267 128.693C46.8058 130.017 45.1755 131.036 43.2395 131.648C41.3035 132.259 38.9599 132.666 36.4125 132.666C31.7254 132.666 27.4458 131.648 23.4719 129.712C19.498 127.674 15.524 123.903 11.5501 118.401L0.0360006 131.444C2.68527 135.01 5.74212 138.067 9.10466 140.614C12.4672 143.162 16.3392 145.098 20.7207 146.32C25.1022 147.645 29.8912 148.256 35.1898 148.256C41.7111 148.256 47.4172 147.136 52.3081 144.996L52.3081 144.894Z" fill="#6E6655"/>
<path d="M88.481 131.341C91.5379 136.436 95.8175 140.41 101.218 143.364C106.618 146.218 112.834 147.746 119.763 147.746C126.692 147.746 132.703 146.319 138.206 143.364C143.606 140.511 147.886 136.436 150.943 131.341C154 126.246 155.63 120.438 155.63 114.019L155.63 61.2371L137.798 61.2371L137.798 113C137.798 116.464 136.983 119.521 135.455 122.272C133.926 125.023 131.685 127.163 128.933 128.793C126.182 130.424 123.125 131.239 119.865 131.239C116.604 131.239 113.649 130.424 111 128.793C108.351 127.163 106.211 125.023 104.682 122.272C103.154 119.521 102.339 116.464 102.339 113L102.339 61.2371L83.8958 61.2371L83.8958 114.019C83.8958 120.438 85.4242 126.246 88.5829 131.341L88.481 131.341Z" fill="#6E6655"/>
<path d="M215.543 146.933C220.026 146.933 224.102 146.424 227.668 145.303C231.336 144.182 234.495 142.552 237.144 140.514C239.794 138.374 241.831 135.725 243.258 132.464C244.685 129.204 245.296 125.535 245.296 121.256C245.296 117.384 244.481 114.021 242.952 110.964C241.424 107.908 239.182 105.462 236.329 103.424C234.393 101.998 232.05 100.979 229.706 100.164C232.661 98.8389 235.31 97.2086 237.042 94.7631C239.488 91.5025 240.711 87.4267 240.711 82.5357C240.711 78.1542 239.692 74.3841 237.654 71.1235C235.616 67.9647 232.661 65.5193 228.687 63.8889C224.713 62.2586 219.924 61.3416 214.218 61.3416L177.026 61.3415L177.026 146.933L215.441 146.933L215.543 146.933ZM194.756 96.0878L194.756 77.2372L211.161 77.2372C215.033 77.2372 217.988 78.0523 219.924 79.6827C221.86 81.313 222.879 83.6566 222.879 86.6115C222.879 88.4456 222.471 90.076 221.554 91.5025C220.637 92.929 219.415 93.948 217.784 94.7631C216.154 95.5783 214.218 95.9859 212.078 95.9859L194.756 95.9859L194.756 96.0878ZM194.756 131.038L194.756 110.659L214.218 110.659C216.867 110.659 219.211 111.066 221.147 111.78C223.083 112.595 224.509 113.716 225.63 115.142C226.649 116.569 227.26 118.403 227.26 120.543C227.26 122.682 226.751 124.618 225.834 126.249C224.815 127.879 223.49 129.102 221.656 129.815C219.822 130.63 217.58 130.936 215.033 130.936L194.96 130.936L194.756 131.038Z" fill="#6E6655"/>
<path d="M319.069 146.933L319.069 130.426L280.349 130.426L280.349 61.3416L262.008 61.3416L262.008 146.933L319.069 146.933Z" fill="#6E6655"/>
<path d="M344.033 146.933L350.86 129L383.67 129L390.396 146.933L409.246 146.933L375.825 61.3416L359.419 61.3416L325.896 146.933L344.033 146.933ZM363.393 95.4764C364.107 93.5404 364.82 91.5025 365.431 89.4646C366.043 87.4267 366.654 85.3888 367.265 83.3509C367.877 85.2869 368.488 87.2229 369.201 89.3627C369.915 91.6044 370.628 93.8461 371.341 95.884C372.054 97.9219 372.666 99.5522 373.073 100.877L378.066 114.225L356.363 114.225L361.254 101.284C361.865 99.4503 362.578 97.5143 363.291 95.5783L363.393 95.4764Z" fill="#6E6655"/>
<path d="M438.897 146.931L438.897 116.26L452.449 116.26L469.771 146.931L491.067 146.931L471.605 113.407C472.217 113.102 472.93 113 473.643 112.592C477.923 110.147 481.387 106.784 483.833 102.607C486.278 98.4288 487.603 93.7417 487.603 88.6469C487.603 83.5521 486.38 78.7631 483.833 74.6873C481.387 70.6115 477.923 67.3508 473.643 65.0072C469.364 62.5618 464.473 61.4409 459.174 61.4409L421.269 61.4409L421.269 147.033L438.999 147.033L438.897 146.931ZM438.897 101.282L438.897 77.2347L455.914 77.2347C458.563 77.2347 461.008 77.7441 463.046 78.7631C465.084 79.782 466.613 81.2086 467.733 82.9408C468.752 84.7749 469.364 86.8128 469.364 89.2583C469.364 91.5 468.956 93.6398 468.039 95.4739C467.122 97.308 465.899 98.7345 464.167 99.7535C462.537 100.772 460.601 101.282 458.359 101.282L438.999 101.282L438.897 101.282Z" fill="#6E6655"/>
</svg>
