<svg width="50" height="50" viewBox="0 0 50 50" fill="none" xmlns="http://www.w3.org/2000/svg">
<path d="M23.3794 0.862561C24.1479 -0.287521 25.8521 -0.28752 26.6206 0.862561L26.9627 1.37451C27.6042 2.3346 28.9473 2.52591 29.836 1.78375L30.3098 1.38801C31.3742 0.498993 33.0094 0.974611 33.4196 2.29258L33.6023 2.87926C33.9448 3.97952 35.1791 4.53792 36.2428 4.07383L36.81 3.82636C38.0841 3.27043 39.5178 4.18313 39.5366 5.56222L39.545 6.17611C39.5607 7.32738 40.5862 8.20766 41.7388 8.05923L42.3534 7.98008C43.734 7.80227 44.85 9.07812 44.4759 10.4066L44.3093 10.998C43.997 12.107 44.7306 13.2378 45.8787 13.4171L46.4909 13.5126C47.8662 13.7274 48.5742 15.263 47.8374 16.4332L47.5094 16.9542C46.8943 17.9311 47.2766 19.2209 48.3272 19.7133L48.8874 19.9759C50.1459 20.5657 50.3885 22.2367 49.3487 23.1539L48.8858 23.5622C48.0178 24.3279 48.0178 25.6721 48.8858 26.4378L49.3487 26.8461C50.3885 27.7633 50.1459 29.4343 48.8874 30.0241L48.3272 30.2867C47.2766 30.7791 46.8943 32.0689 47.5094 33.0458L47.8374 33.5668C48.5742 34.737 47.8662 36.2726 46.4909 36.4874L45.8787 36.5829C44.7306 36.7622 43.997 37.893 44.3093 39.002L44.4759 39.5934C44.85 40.9219 43.734 42.1977 42.3534 42.0199L41.7388 41.9408C40.5862 41.7923 39.5607 42.6726 39.545 43.8239L39.5366 44.4378C39.5178 45.8169 38.0841 46.7296 36.81 46.1736L36.2428 45.9262C35.1791 45.4621 33.9448 46.0205 33.6023 47.1207L33.4196 47.7074C33.0094 49.0254 31.3742 49.501 30.3098 48.612L29.836 48.2163C28.9473 47.4741 27.6042 47.6654 26.9627 48.6255L26.6206 49.1374C25.8521 50.2875 24.1479 50.2875 23.3794 49.1374L23.0373 48.6255C22.3958 47.6654 21.0527 47.4741 20.164 48.2163L19.6902 48.612C18.6258 49.501 16.9906 49.0254 16.5804 47.7074L16.3977 47.1207C16.0552 46.0205 14.8209 45.4621 13.7572 45.9262L13.19 46.1736C11.9159 46.7296 10.4822 45.8169 10.4634 44.4378L10.455 43.8239C10.4393 42.6726 9.41379 41.7923 8.2612 41.9408L7.64661 42.0199C6.26595 42.1977 5.14996 40.9219 5.52411 39.5934L5.69066 39.002C6.003 37.893 5.26938 36.7622 4.12127 36.5829L3.50907 36.4874C2.13376 36.2726 1.42583 34.737 2.16264 33.5668L2.49063 33.0458C3.10573 32.0689 2.72343 30.7791 1.6728 30.2867L1.11259 30.0241C-0.145938 29.4343 -0.388467 27.7633 0.651323 26.8461L1.11417 26.4378C1.9822 25.6721 1.9822 24.3279 1.11417 23.5622L0.651322 23.1539C-0.388468 22.2367 -0.145937 20.5657 1.11259 19.9759L1.67281 19.7133C2.72343 19.2209 3.10573 17.9311 2.49063 16.9542L2.16264 16.4332C1.42582 15.263 2.13377 13.7274 3.50907 13.5126L4.12127 13.4171C5.26938 13.2378 6.003 12.107 5.69066 10.998L5.52411 10.4066C5.14996 9.07812 6.26595 7.80227 7.64661 7.98008L8.2612 8.05923C9.41379 8.20766 10.4393 7.32738 10.455 6.17611L10.4634 5.56222C10.4822 4.18313 11.9159 3.27043 13.19 3.82636L13.7572 4.07383C14.8209 4.53793 16.0552 3.97952 16.3977 2.87926L16.5804 2.29258C16.9906 0.974609 18.6258 0.498994 19.6902 1.38801L20.164 1.78375C21.0527 2.52591 22.3958 2.3346 23.0373 1.37451L23.3794 0.862561Z" fill="#0179FF"/>
<path d="M25.4064 41.1623C22.0941 41.1623 18.7818 41.1633 15.4695 41.1623C13.5288 41.1613 12.2657 39.875 12.2328 37.9079C12.2144 36.7948 12.4964 35.8058 13.2942 35.0116C14.5399 33.7722 16.7752 34.0304 17.7436 35.5055C17.9055 35.753 17.8541 35.8616 17.5953 35.9565C17.2318 36.0905 16.8751 36.2528 16.5746 36.5033C16.3148 36.7194 16.117 36.9875 16.2217 37.3601C16.3506 37.816 16.7393 37.951 17.1203 37.6595C17.7077 37.2085 18.3475 36.9532 19.0978 36.9659C19.7521 36.9767 20.3299 37.1772 20.8533 37.5607C21.3012 37.8883 21.527 37.8962 21.7597 37.589C22.0001 37.2711 21.9245 36.8544 21.5726 36.559C21.5542 36.5434 21.5319 36.5316 21.5164 36.513C21.4078 36.3927 21.1451 36.3722 21.1819 36.1785C21.2168 35.9927 21.4514 35.9555 21.6172 35.8909C21.9691 35.752 22.3452 35.7168 22.7145 35.6591C23.7944 35.4918 24.3741 34.8736 24.4303 33.7791C24.4458 33.4729 24.5592 33.3741 24.8481 33.3849C25.2707 33.4005 25.6943 33.4005 26.117 33.3849C26.4146 33.3731 26.56 33.4553 26.558 33.7908C26.5561 34.1723 26.6792 34.5362 26.8556 34.8746C27.1969 35.53 27.7727 35.7794 28.4725 35.7951C28.8661 35.8039 29.2354 35.9046 29.5931 36.0631C29.7909 36.1511 29.8917 36.2323 29.6464 36.3986C29.5175 36.4857 29.407 36.604 29.3013 36.7214C29.0406 37.0129 29.0241 37.3523 29.2471 37.6115C29.4545 37.8531 29.7599 37.859 30.0885 37.6027C30.893 36.9747 31.7916 36.8319 32.762 37.0638C33.1565 37.1577 33.4967 37.3689 33.8244 37.6037C34.1617 37.8453 34.4361 37.8482 34.6387 37.6282C34.8645 37.3826 34.8636 36.9796 34.6154 36.6911C34.3052 36.3301 33.8796 36.1462 33.4541 35.9682C33.0634 35.8048 33.0596 35.7872 33.3155 35.441C34.5912 33.7204 37.1357 33.8788 38.2941 35.6836C39.689 37.857 38.2001 40.7231 36.0627 41.1202C35.8465 41.1603 35.6303 41.1652 35.4132 41.1652C32.0766 41.1652 28.7401 41.1652 25.4035 41.1652V41.1603L25.4064 41.1623Z" fill="url(#paint0_linear_940_27205)"/>
<path d="M27.6487 28.6155C27.5605 30.0583 26.9469 31.2497 25.9155 32.2338C25.6857 32.4529 25.3736 32.4744 25.1603 32.2436C24.2007 31.2028 23.3661 30.0926 23.4136 28.5598C23.4232 28.2507 23.4892 27.9562 23.5813 27.6657C23.7383 27.1708 23.8963 27.0407 24.4188 27.0319C25.1313 27.0201 25.8438 27.025 26.5562 27.028C27.1679 27.0299 27.3996 27.2138 27.5595 27.8134C27.6293 28.0746 27.6536 28.3407 27.6497 28.6155H27.6487Z" fill="url(#paint1_linear_940_27205)"/>
<path d="M29.8129 17.8493C29.8129 17.8738 29.8168 17.8992 29.8129 17.9227C29.7276 18.4137 29.9118 18.6993 30.3577 18.9644C31.742 19.789 32.1966 21.0078 31.8021 22.5866C31.5025 23.7848 30.8657 24.8012 30.0999 25.7402C29.7548 26.1628 29.2681 26.0395 29.1072 25.5045C28.9705 25.0486 28.8523 24.5908 28.5702 24.1947C28.4267 23.9932 28.3618 24.0206 28.2581 24.224C28.0264 24.6789 27.7763 25.1249 27.532 25.5729C27.3721 25.8674 27.1297 26.0063 26.7914 26.0033C25.9452 25.9955 25.0999 25.9975 24.2536 26.0023C23.9046 26.0043 23.6555 25.8625 23.4898 25.5475C23.2629 25.1171 23.0235 24.6936 22.785 24.269C22.7395 24.1888 22.7375 24.0499 22.6241 24.048C22.5029 24.046 22.4584 24.1751 22.4031 24.2671C22.2005 24.6036 22.06 24.9655 21.9717 25.348C21.9058 25.6336 21.804 25.8879 21.4764 25.9564C21.142 26.0258 20.9646 25.8038 20.7949 25.5749C20.1261 24.6711 19.5318 23.7271 19.2604 22.614C18.8484 20.9237 19.3545 19.701 20.8502 18.8568C21.1497 18.6876 21.2544 18.5037 21.2418 18.1692C21.1866 16.6657 21.4444 15.2092 21.9145 13.785C22.0134 13.4837 22.153 13.4241 22.4448 13.4827C24.495 13.8936 26.5491 13.8916 28.5983 13.4808C28.9046 13.4192 29.0306 13.5101 29.1247 13.7938C29.559 15.1114 29.7848 16.4632 29.81 17.8503L29.8129 17.8493ZM30.8143 21.6231C30.7852 20.9462 30.5089 20.4111 29.9467 20.0248C29.7431 19.8849 29.6491 19.9162 29.6084 20.1578C29.4688 20.9873 29.2497 21.7962 28.9647 22.5866C28.9124 22.7323 28.8998 22.8614 29.0277 22.9847C29.3176 23.2635 29.5541 23.5863 29.7393 23.9443C29.81 24.0802 29.874 24.1047 29.9641 23.9619C30.4139 23.2439 30.7474 22.4829 30.8123 21.6221L30.8143 21.6231ZM20.2366 21.6593C20.2918 22.4702 20.6234 23.2097 21.0421 23.9169C21.1342 24.0724 21.2234 24.0489 21.3019 23.8993C21.4851 23.5511 21.7304 23.2508 22.0154 22.9837C22.1133 22.8918 22.1588 22.791 22.1074 22.658C21.7905 21.8373 21.5782 20.9873 21.4211 20.1226C21.3843 19.9201 21.3009 19.8849 21.1265 20.0013C20.5468 20.3896 20.2695 20.9403 20.2385 21.6593H20.2366Z" fill="url(#paint2_linear_940_27205)"/>
<path d="M25.4752 12.7553C24.6057 12.7221 23.6916 12.6643 22.7872 12.4844C22.5381 12.4354 22.4886 12.3533 22.6011 12.1205C23.2244 10.8264 24.0251 9.65647 25.0119 8.61863C25.3686 8.24301 25.6875 8.24301 26.0394 8.61863C27.0156 9.66429 27.8163 10.8342 28.4512 12.1215C28.5665 12.3552 28.5103 12.4394 28.2641 12.4844C27.3587 12.6516 26.4456 12.7309 25.4772 12.7534L25.4752 12.7553Z" fill="url(#paint3_linear_940_27205)"/>
<defs>
<linearGradient id="paint0_linear_940_27205" x1="20.7826" y1="34.7819" x2="23.4394" y2="44.1131" gradientUnits="userSpaceOnUse">
<stop stop-color="#BDE7F4"/>
<stop offset="1" stop-color="#6CACDB"/>
</linearGradient>
<linearGradient id="paint1_linear_940_27205" x1="25.5308" y1="27.0244" x2="25.5308" y2="32.4076" gradientUnits="userSpaceOnUse">
<stop stop-color="#FFB802"/>
<stop offset="1" stop-color="#FF3120"/>
</linearGradient>
<linearGradient id="paint2_linear_940_27205" x1="26.0005" y1="26.4121" x2="26.0005" y2="14.4121" gradientUnits="userSpaceOnUse">
<stop stop-color="white"/>
<stop offset="1" stop-color="#00FFE0"/>
</linearGradient>
<linearGradient id="paint3_linear_940_27205" x1="26.0005" y1="26.4121" x2="26.0005" y2="14.4121" gradientUnits="userSpaceOnUse">
<stop stop-color="white"/>
<stop offset="1" stop-color="#00FFE0"/>
</linearGradient>
</defs>
</svg>
