<svg width="50" height="50" viewBox="0 0 50 50" fill="none" xmlns="http://www.w3.org/2000/svg">
<path d="M23.3794 0.862561C24.1479 -0.287521 25.8521 -0.28752 26.6206 0.862561L26.9627 1.37451C27.6042 2.3346 28.9473 2.52591 29.836 1.78375L30.3098 1.38801C31.3742 0.498993 33.0094 0.974611 33.4196 2.29258L33.6023 2.87926C33.9448 3.97952 35.1791 4.53792 36.2428 4.07383L36.81 3.82636C38.0841 3.27043 39.5178 4.18313 39.5366 5.56222L39.545 6.17611C39.5607 7.32738 40.5862 8.20766 41.7388 8.05923L42.3534 7.98008C43.734 7.80227 44.85 9.07812 44.4759 10.4066L44.3093 10.998C43.997 12.107 44.7306 13.2378 45.8787 13.4171L46.4909 13.5126C47.8662 13.7274 48.5742 15.263 47.8374 16.4332L47.5094 16.9542C46.8943 17.9311 47.2766 19.2209 48.3272 19.7133L48.8874 19.9759C50.1459 20.5657 50.3885 22.2367 49.3487 23.1539L48.8858 23.5622C48.0178 24.3279 48.0178 25.6721 48.8858 26.4378L49.3487 26.8461C50.3885 27.7633 50.1459 29.4343 48.8874 30.0241L48.3272 30.2867C47.2766 30.7791 46.8943 32.0689 47.5094 33.0458L47.8374 33.5668C48.5742 34.737 47.8662 36.2726 46.4909 36.4874L45.8787 36.5829C44.7306 36.7622 43.997 37.893 44.3093 39.002L44.4759 39.5934C44.85 40.9219 43.734 42.1977 42.3534 42.0199L41.7388 41.9408C40.5862 41.7923 39.5607 42.6726 39.545 43.8239L39.5366 44.4378C39.5178 45.8169 38.0841 46.7296 36.81 46.1736L36.2428 45.9262C35.1791 45.4621 33.9448 46.0205 33.6023 47.1207L33.4196 47.7074C33.0094 49.0254 31.3742 49.501 30.3098 48.612L29.836 48.2163C28.9473 47.4741 27.6042 47.6654 26.9627 48.6255L26.6206 49.1374C25.8521 50.2875 24.1479 50.2875 23.3794 49.1374L23.0373 48.6255C22.3958 47.6654 21.0527 47.4741 20.164 48.2163L19.6902 48.612C18.6258 49.501 16.9906 49.0254 16.5804 47.7074L16.3977 47.1207C16.0552 46.0205 14.8209 45.4621 13.7572 45.9262L13.19 46.1736C11.9159 46.7296 10.4822 45.8169 10.4634 44.4378L10.455 43.8239C10.4393 42.6726 9.41379 41.7923 8.2612 41.9408L7.64661 42.0199C6.26595 42.1977 5.14996 40.9219 5.52411 39.5934L5.69066 39.002C6.003 37.893 5.26938 36.7622 4.12127 36.5829L3.50907 36.4874C2.13376 36.2726 1.42583 34.737 2.16264 33.5668L2.49063 33.0458C3.10573 32.0689 2.72343 30.7791 1.6728 30.2867L1.11259 30.0241C-0.145938 29.4343 -0.388467 27.7633 0.651323 26.8461L1.11417 26.4378C1.9822 25.6721 1.9822 24.3279 1.11417 23.5622L0.651322 23.1539C-0.388468 22.2367 -0.145937 20.5657 1.11259 19.9759L1.67281 19.7133C2.72343 19.2209 3.10573 17.9311 2.49063 16.9542L2.16264 16.4332C1.42582 15.263 2.13377 13.7274 3.50907 13.5126L4.12127 13.4171C5.26938 13.2378 6.003 12.107 5.69066 10.998L5.52411 10.4066C5.14996 9.07812 6.26595 7.80227 7.64661 7.98008L8.2612 8.05923C9.41379 8.20766 10.4393 7.32738 10.455 6.17611L10.4634 5.56222C10.4822 4.18313 11.9159 3.27043 13.19 3.82636L13.7572 4.07383C14.8209 4.53793 16.0552 3.97952 16.3977 2.87926L16.5804 2.29258C16.9906 0.974609 18.6258 0.498994 19.6902 1.38801L20.164 1.78375C21.0527 2.52591 22.3958 2.3346 23.0373 1.37451L23.3794 0.862561Z" fill="#5E6572"/>
<path d="M28.6101 17.176C24.7492 15.4868 20.8818 13.8099 17.0153 12.1329C16.0008 11.6925 14.8583 12.085 14.3172 13.0512C13.7928 13.9883 14.0597 15.1807 14.9547 15.8333C16.2861 16.8051 17.625 17.7666 18.9601 18.7328C20.6251 19.9366 22.2883 21.1431 23.957 22.3403C24.1618 22.4868 24.2183 22.607 24.0849 22.7779L29.2726 17.0455C29.065 17.2643 28.8927 17.3 28.611 17.176H28.6101Z" fill="#7F8698"/>
<path d="M34.7126 25.6864C34.058 24.1644 33.4043 22.6424 32.7478 21.1213C32.6767 20.9557 32.6664 20.8201 32.8143 20.6816L27.1748 25.8342C27.3677 25.6649 27.4764 25.6874 27.6159 25.8885C28.0626 26.5302 28.5233 27.1617 28.9785 27.7978C30.6969 30.1992 32.4144 32.5996 34.1329 35.0009C34.5581 35.595 35.1415 35.8803 35.8635 35.9027C37.2739 35.9523 38.4913 34.4471 37.8002 32.8559C36.7635 30.4695 35.7418 28.0766 34.7135 25.6874L34.7126 25.6864Z" fill="#7F8698"/>
<path d="M34.03 20.5345C34.8457 19.7289 35.6995 18.9568 36.4577 18.0993C37.4943 16.9286 37.9518 15.5005 37.9991 13.948C38.0344 12.821 37.1713 11.9467 36.0484 11.9532C34.2536 11.9634 32.6955 12.5757 31.4232 13.8541C30.3532 14.9291 29.298 16.019 28.2475 17.1125L23.0515 22.7848C23.0311 22.8099 23.0079 22.8359 22.9791 22.8638C22.7471 23.0886 22.5401 23.3404 22.3323 23.5885C20.7045 25.5312 19.0591 27.4601 17.4639 29.4289C16.946 30.0672 16.3874 30.227 15.6366 29.9947C14.9406 29.7792 14.226 29.6231 13.5291 29.4084C12.8924 29.2124 12.3514 29.6333 12.111 30.0263C11.8308 30.4834 11.9292 31.0093 12.3616 31.4441C13.2191 32.3063 14.0785 33.1667 14.9378 34.028C16.1322 35.2256 17.3237 36.4251 18.5218 37.6181C19.0452 38.1384 19.6856 38.1207 20.2117 37.6051C20.5635 37.2604 20.6525 36.8571 20.5291 36.3954C20.311 35.5787 20.0855 34.7629 19.8684 33.9462C19.7366 33.4492 19.8739 33.0413 20.2721 32.7077C22.5587 30.7882 24.8732 28.9011 27.1134 26.9268L32.702 21.8092C33.1493 21.3892 33.5919 20.9646 34.029 20.5335L34.03 20.5345Z" fill="#7F8698"/>
</svg>
