<svg width="50" height="50" viewBox="0 0 50 50" fill="none" xmlns="http://www.w3.org/2000/svg">
<path d="M23.3794 0.862561C24.1479 -0.287521 25.8521 -0.28752 26.6206 0.862561L26.9627 1.37451C27.6042 2.3346 28.9473 2.52591 29.836 1.78375L30.3098 1.38801C31.3742 0.498993 33.0094 0.974611 33.4196 2.29258L33.6023 2.87926C33.9448 3.97952 35.1791 4.53792 36.2428 4.07383L36.81 3.82636C38.0841 3.27043 39.5178 4.18313 39.5366 5.56222L39.545 6.17611C39.5607 7.32738 40.5862 8.20766 41.7388 8.05923L42.3534 7.98008C43.734 7.80227 44.85 9.07812 44.4759 10.4066L44.3093 10.998C43.997 12.107 44.7306 13.2378 45.8787 13.4171L46.4909 13.5126C47.8662 13.7274 48.5742 15.263 47.8374 16.4332L47.5094 16.9542C46.8943 17.9311 47.2766 19.2209 48.3272 19.7133L48.8874 19.9759C50.1459 20.5657 50.3885 22.2367 49.3487 23.1539L48.8858 23.5622C48.0178 24.3279 48.0178 25.6721 48.8858 26.4378L49.3487 26.8461C50.3885 27.7633 50.1459 29.4343 48.8874 30.0241L48.3272 30.2867C47.2766 30.7791 46.8943 32.0689 47.5094 33.0458L47.8374 33.5668C48.5742 34.737 47.8662 36.2726 46.4909 36.4874L45.8787 36.5829C44.7306 36.7622 43.997 37.893 44.3093 39.002L44.4759 39.5934C44.85 40.9219 43.734 42.1977 42.3534 42.0199L41.7388 41.9408C40.5862 41.7923 39.5607 42.6726 39.545 43.8239L39.5366 44.4378C39.5178 45.8169 38.0841 46.7296 36.81 46.1736L36.2428 45.9262C35.1791 45.4621 33.9448 46.0205 33.6023 47.1207L33.4196 47.7074C33.0094 49.0254 31.3742 49.501 30.3098 48.612L29.836 48.2163C28.9473 47.4741 27.6042 47.6654 26.9627 48.6255L26.6206 49.1374C25.8521 50.2875 24.1479 50.2875 23.3794 49.1374L23.0373 48.6255C22.3958 47.6654 21.0527 47.4741 20.164 48.2163L19.6902 48.612C18.6258 49.501 16.9906 49.0254 16.5804 47.7074L16.3977 47.1207C16.0552 46.0205 14.8209 45.4621 13.7572 45.9262L13.19 46.1736C11.9159 46.7296 10.4822 45.8169 10.4634 44.4378L10.455 43.8239C10.4393 42.6726 9.41379 41.7923 8.2612 41.9408L7.64661 42.0199C6.26595 42.1977 5.14996 40.9219 5.52411 39.5934L5.69066 39.002C6.003 37.893 5.26938 36.7622 4.12127 36.5829L3.50907 36.4874C2.13376 36.2726 1.42583 34.737 2.16264 33.5668L2.49063 33.0458C3.10573 32.0689 2.72343 30.7791 1.6728 30.2867L1.11259 30.0241C-0.145938 29.4343 -0.388467 27.7633 0.651323 26.8461L1.11417 26.4378C1.9822 25.6721 1.9822 24.3279 1.11417 23.5622L0.651322 23.1539C-0.388468 22.2367 -0.145937 20.5657 1.11259 19.9759L1.67281 19.7133C2.72343 19.2209 3.10573 17.9311 2.49063 16.9542L2.16264 16.4332C1.42582 15.263 2.13377 13.7274 3.50907 13.5126L4.12127 13.4171C5.26938 13.2378 6.003 12.107 5.69066 10.998L5.52411 10.4066C5.14996 9.07812 6.26595 7.80227 7.64661 7.98008L8.2612 8.05923C9.41379 8.20766 10.4393 7.32738 10.455 6.17611L10.4634 5.56222C10.4822 4.18313 11.9159 3.27043 13.19 3.82636L13.7572 4.07383C14.8209 4.53793 16.0552 3.97952 16.3977 2.87926L16.5804 2.29258C16.9906 0.974609 18.6258 0.498994 19.6902 1.38801L20.164 1.78375C21.0527 2.52591 22.3958 2.3346 23.0373 1.37451L23.3794 0.862561Z" fill="#3C0071"/>
<path d="M24.1968 29.202C24.2075 30.867 22.7805 32.284 21.1118 32.2673C19.4336 32.2507 18.0648 30.8777 18.0624 29.2115C18.0612 27.5477 19.4265 26.1295 21.1011 26.1485C22.8279 26.1675 24.1091 27.4076 24.1956 29.2032L24.1968 29.202Z" fill="url(#paint0_radial_940_27188)"/>
<path d="M24.1956 21.1841C24.0771 23.0698 22.6905 24.221 21.0633 24.1972C19.3566 24.1711 18.0032 22.7245 18.0636 21.0986C18.1264 19.3933 19.5119 18.0309 21.1498 18.0819C22.9856 18.1389 24.1625 19.5452 24.1956 21.1841Z" fill="url(#paint1_radial_940_27188)"/>
<path d="M32.2563 21.1914C32.1804 23.057 30.7203 24.2544 29.1286 24.1939C27.2407 24.1215 26.1065 22.6903 26.142 21.0917C26.1835 19.2428 27.6424 18.037 29.2649 18.094C30.9929 18.1533 32.3345 19.5798 32.2575 21.1926L32.2563 21.1914Z" fill="url(#paint2_radial_940_27188)"/>
<path d="M29.1582 32.266C27.3046 32.1948 26.0898 30.7624 26.1419 29.1508C26.2012 27.2923 27.5997 26.1483 29.234 26.1483C30.9324 26.1483 32.3344 27.6353 32.2562 29.2623C32.1744 30.9795 30.7842 32.3277 29.1582 32.266Z" fill="url(#paint3_radial_940_27188)"/>
<path d="M10.9989 13.0867C10.9966 11.9676 11.9589 11.0123 13.0777 11.0206C14.1882 11.0301 15.1115 11.97 15.1079 13.0891C15.1044 14.2117 14.1764 15.1338 13.0564 15.1267C11.9317 15.1196 11.0001 14.1963 10.9989 13.0867Z" fill="url(#paint4_radial_940_27188)"/>
<path d="M37.2478 11.0205C38.3666 11.0146 39.3266 11.9723 39.3218 13.0914C39.3171 14.201 38.382 15.1243 37.2596 15.1279C36.1385 15.1302 35.2128 14.2069 35.2128 13.0855C35.2128 11.9652 36.1373 11.0277 37.2478 11.0217V11.0205Z" fill="url(#paint5_radial_940_27188)"/>
<path d="M15.1082 37.2593C15.1106 38.3784 14.1861 39.3183 13.0756 39.3254C11.9568 39.3337 10.9957 38.376 10.9981 37.2581C11.0016 36.1473 11.9343 35.224 13.0579 35.2193C14.179 35.2145 15.1058 36.1366 15.107 37.2593H15.1082Z" fill="url(#paint6_radial_940_27188)"/>
<path d="M39.3219 37.2716C39.3183 38.3906 38.3512 39.3424 37.2324 39.327C36.1219 39.3116 35.1999 38.3634 35.2129 37.249C35.2259 36.1228 36.1575 35.2066 37.2739 35.222C38.4034 35.2375 39.3254 36.1608 39.3207 37.2727L39.3219 37.2716Z" fill="url(#paint7_radial_940_27188)"/>
<path d="M23.1662 13.0771C23.1662 14.2093 22.2453 15.1349 21.1265 15.1255C19.9911 15.116 19.0797 14.2045 19.0786 13.0771C19.0762 11.964 20.0196 11.0181 21.1289 11.0205C22.2524 11.0229 23.1662 11.945 23.1674 13.0771H23.1662Z" fill="url(#paint8_radial_940_27188)"/>
<path d="M31.2449 13.0566C31.252 14.203 30.3252 15.1322 29.1816 15.1274C28.0711 15.1227 27.162 14.2125 27.1573 13.1005C27.1526 11.9624 28.0474 11.0391 29.1744 11.0225C30.2802 11.0059 31.239 11.947 31.2461 13.0566H31.2449Z" fill="url(#paint9_radial_940_27188)"/>
<path d="M13.0798 23.1799C11.9255 23.1846 10.9916 22.2637 10.9999 21.1268C11.0082 20.0315 11.9397 19.101 13.0348 19.0939C14.1809 19.0868 15.1112 20.0125 15.1077 21.1565C15.1029 22.2661 14.1915 23.1751 13.0798 23.1799Z" fill="url(#paint10_radial_940_27188)"/>
<path d="M37.2484 23.1799C36.1344 23.1763 35.2242 22.2732 35.2147 21.1612C35.2052 20.0196 36.1368 19.088 37.2816 19.0939C38.3933 19.0987 39.3355 20.0528 39.3225 21.1588C39.3094 22.2839 38.385 23.1834 37.2484 23.1799Z" fill="url(#paint11_radial_940_27188)"/>
<path d="M13.08 27.1673C14.1929 27.172 15.1031 28.0811 15.1079 29.1907C15.1126 30.3359 14.1822 31.2604 13.035 31.2532C11.9245 31.2461 10.9823 30.2884 11.0001 29.1824C11.0179 28.0562 11.9411 27.1625 13.08 27.1673Z" fill="url(#paint12_radial_940_27188)"/>
<path d="M37.2659 27.1682C38.3977 27.1694 39.321 28.0855 39.3222 29.207C39.3233 30.3154 38.3764 31.2565 37.2635 31.2541C36.1352 31.2517 35.2227 30.3391 35.2156 29.2046C35.2084 28.0855 36.1341 27.1658 37.2671 27.1682H37.2659Z" fill="url(#paint13_radial_940_27188)"/>
<path d="M23.1653 37.248C23.1701 38.4015 22.248 39.3343 21.1114 39.326C20.0152 39.3177 19.0836 38.3873 19.0777 37.2919C19.0706 36.1455 19.9974 35.2163 21.1411 35.2211C22.2516 35.2258 23.1606 36.1361 23.1653 37.248Z" fill="url(#paint14_radial_940_27188)"/>
<path d="M27.1567 37.248C27.1614 36.1361 28.0716 35.2258 29.181 35.2211C30.3258 35.2163 31.2514 36.1467 31.2443 37.2919C31.2372 38.4015 30.2784 39.3426 29.1727 39.326C28.0468 39.3094 27.1508 38.3861 27.1555 37.248H27.1567Z" fill="url(#paint15_radial_940_27188)"/>
<defs>
<radialGradient id="paint0_radial_940_27188" cx="0" cy="0" r="1" gradientUnits="userSpaceOnUse" gradientTransform="translate(20.1329 19.2221) rotate(47.8084) scale(34.7925 34.8145)">
<stop stop-color="#AA49FF"/>
<stop offset="1" stop-color="#3C0071"/>
</radialGradient>
<radialGradient id="paint1_radial_940_27188" cx="0" cy="0" r="1" gradientUnits="userSpaceOnUse" gradientTransform="translate(20.1329 19.2221) rotate(47.8084) scale(34.7925 34.8145)">
<stop stop-color="#AA49FF"/>
<stop offset="1" stop-color="#3C0071"/>
</radialGradient>
<radialGradient id="paint2_radial_940_27188" cx="0" cy="0" r="1" gradientUnits="userSpaceOnUse" gradientTransform="translate(20.1329 19.2221) rotate(47.8084) scale(34.7925 34.8145)">
<stop stop-color="#AA49FF"/>
<stop offset="1" stop-color="#3C0071"/>
</radialGradient>
<radialGradient id="paint3_radial_940_27188" cx="0" cy="0" r="1" gradientUnits="userSpaceOnUse" gradientTransform="translate(20.1329 19.2221) rotate(47.8084) scale(34.7925 34.8145)">
<stop stop-color="#AA49FF"/>
<stop offset="1" stop-color="#3C0071"/>
</radialGradient>
<radialGradient id="paint4_radial_940_27188" cx="0" cy="0" r="1" gradientUnits="userSpaceOnUse" gradientTransform="translate(20.1329 19.2221) rotate(47.8084) scale(34.7925 34.8145)">
<stop stop-color="#AA49FF"/>
<stop offset="1" stop-color="#3C0071"/>
</radialGradient>
<radialGradient id="paint5_radial_940_27188" cx="0" cy="0" r="1" gradientUnits="userSpaceOnUse" gradientTransform="translate(20.1329 19.2221) rotate(47.8084) scale(34.7925 34.8145)">
<stop stop-color="#AA49FF"/>
<stop offset="1" stop-color="#3C0071"/>
</radialGradient>
<radialGradient id="paint6_radial_940_27188" cx="0" cy="0" r="1" gradientUnits="userSpaceOnUse" gradientTransform="translate(20.1329 19.2221) rotate(47.8084) scale(34.7925 34.8145)">
<stop stop-color="#AA49FF"/>
<stop offset="1" stop-color="#3C0071"/>
</radialGradient>
<radialGradient id="paint7_radial_940_27188" cx="0" cy="0" r="1" gradientUnits="userSpaceOnUse" gradientTransform="translate(20.1329 19.2221) rotate(47.8084) scale(34.7925 34.8145)">
<stop stop-color="#AA49FF"/>
<stop offset="1" stop-color="#3C0071"/>
</radialGradient>
<radialGradient id="paint8_radial_940_27188" cx="0" cy="0" r="1" gradientUnits="userSpaceOnUse" gradientTransform="translate(20.1329 19.2221) rotate(47.8084) scale(34.7925 34.8145)">
<stop stop-color="#AA49FF"/>
<stop offset="1" stop-color="#3C0071"/>
</radialGradient>
<radialGradient id="paint9_radial_940_27188" cx="0" cy="0" r="1" gradientUnits="userSpaceOnUse" gradientTransform="translate(20.1329 19.2221) rotate(47.8084) scale(34.7925 34.8145)">
<stop stop-color="#AA49FF"/>
<stop offset="1" stop-color="#3C0071"/>
</radialGradient>
<radialGradient id="paint10_radial_940_27188" cx="0" cy="0" r="1" gradientUnits="userSpaceOnUse" gradientTransform="translate(20.1329 19.2221) rotate(47.8084) scale(34.7925 34.8145)">
<stop stop-color="#AA49FF"/>
<stop offset="1" stop-color="#3C0071"/>
</radialGradient>
<radialGradient id="paint11_radial_940_27188" cx="0" cy="0" r="1" gradientUnits="userSpaceOnUse" gradientTransform="translate(20.1329 19.2221) rotate(47.8084) scale(34.7925 34.8145)">
<stop stop-color="#AA49FF"/>
<stop offset="1" stop-color="#3C0071"/>
</radialGradient>
<radialGradient id="paint12_radial_940_27188" cx="0" cy="0" r="1" gradientUnits="userSpaceOnUse" gradientTransform="translate(20.1329 19.2221) rotate(47.8084) scale(34.7925 34.8145)">
<stop stop-color="#AA49FF"/>
<stop offset="1" stop-color="#3C0071"/>
</radialGradient>
<radialGradient id="paint13_radial_940_27188" cx="0" cy="0" r="1" gradientUnits="userSpaceOnUse" gradientTransform="translate(20.1329 19.2221) rotate(47.8084) scale(34.7925 34.8145)">
<stop stop-color="#AA49FF"/>
<stop offset="1" stop-color="#3C0071"/>
</radialGradient>
<radialGradient id="paint14_radial_940_27188" cx="0" cy="0" r="1" gradientUnits="userSpaceOnUse" gradientTransform="translate(20.1329 19.2221) rotate(47.8084) scale(34.7925 34.8145)">
<stop stop-color="#AA49FF"/>
<stop offset="1" stop-color="#3C0071"/>
</radialGradient>
<radialGradient id="paint15_radial_940_27188" cx="0" cy="0" r="1" gradientUnits="userSpaceOnUse" gradientTransform="translate(20.1329 19.2221) rotate(47.8084) scale(34.7925 34.8145)">
<stop stop-color="#AA49FF"/>
<stop offset="1" stop-color="#3C0071"/>
</radialGradient>
</defs>
</svg>
