<svg width="50" height="50" viewBox="0 0 50 50" fill="none" xmlns="http://www.w3.org/2000/svg">
<path d="M23.3794 0.862561C24.1479 -0.287521 25.8521 -0.28752 26.6206 0.862561L26.9627 1.37451C27.6042 2.3346 28.9473 2.52591 29.836 1.78375L30.3098 1.38801C31.3742 0.498993 33.0094 0.974611 33.4196 2.29258L33.6023 2.87926C33.9448 3.97952 35.1791 4.53792 36.2428 4.07383L36.81 3.82636C38.0841 3.27043 39.5178 4.18313 39.5366 5.56222L39.545 6.17611C39.5607 7.32738 40.5862 8.20766 41.7388 8.05923L42.3534 7.98008C43.734 7.80227 44.85 9.07812 44.4759 10.4066L44.3093 10.998C43.997 12.107 44.7306 13.2378 45.8787 13.4171L46.4909 13.5126C47.8662 13.7274 48.5742 15.263 47.8374 16.4332L47.5094 16.9542C46.8943 17.9311 47.2766 19.2209 48.3272 19.7133L48.8874 19.9759C50.1459 20.5657 50.3885 22.2367 49.3487 23.1539L48.8858 23.5622C48.0178 24.3279 48.0178 25.6721 48.8858 26.4378L49.3487 26.8461C50.3885 27.7633 50.1459 29.4343 48.8874 30.0241L48.3272 30.2867C47.2766 30.7791 46.8943 32.0689 47.5094 33.0458L47.8374 33.5668C48.5742 34.737 47.8662 36.2726 46.4909 36.4874L45.8787 36.5829C44.7306 36.7622 43.997 37.893 44.3093 39.002L44.4759 39.5934C44.85 40.9219 43.734 42.1977 42.3534 42.0199L41.7388 41.9408C40.5862 41.7923 39.5607 42.6726 39.545 43.8239L39.5366 44.4378C39.5178 45.8169 38.0841 46.7296 36.81 46.1736L36.2428 45.9262C35.1791 45.4621 33.9448 46.0205 33.6023 47.1207L33.4196 47.7074C33.0094 49.0254 31.3742 49.501 30.3098 48.612L29.836 48.2163C28.9473 47.4741 27.6042 47.6654 26.9627 48.6255L26.6206 49.1374C25.8521 50.2875 24.1479 50.2875 23.3794 49.1374L23.0373 48.6255C22.3958 47.6654 21.0527 47.4741 20.164 48.2163L19.6902 48.612C18.6258 49.501 16.9906 49.0254 16.5804 47.7074L16.3977 47.1207C16.0552 46.0205 14.8209 45.4621 13.7572 45.9262L13.19 46.1736C11.9159 46.7296 10.4822 45.8169 10.4634 44.4378L10.455 43.8239C10.4393 42.6726 9.41379 41.7923 8.2612 41.9408L7.64661 42.0199C6.26595 42.1977 5.14996 40.9219 5.52411 39.5934L5.69066 39.002C6.003 37.893 5.26938 36.7622 4.12127 36.5829L3.50907 36.4874C2.13376 36.2726 1.42583 34.737 2.16264 33.5668L2.49063 33.0458C3.10573 32.0689 2.72343 30.7791 1.6728 30.2867L1.11259 30.0241C-0.145938 29.4343 -0.388467 27.7633 0.651323 26.8461L1.11417 26.4378C1.9822 25.6721 1.9822 24.3279 1.11417 23.5622L0.651322 23.1539C-0.388468 22.2367 -0.145937 20.5657 1.11259 19.9759L1.67281 19.7133C2.72343 19.2209 3.10573 17.9311 2.49063 16.9542L2.16264 16.4332C1.42582 15.263 2.13377 13.7274 3.50907 13.5126L4.12127 13.4171C5.26938 13.2378 6.003 12.107 5.69066 10.998L5.52411 10.4066C5.14996 9.07812 6.26595 7.80227 7.64661 7.98008L8.2612 8.05923C9.41379 8.20766 10.4393 7.32738 10.455 6.17611L10.4634 5.56222C10.4822 4.18313 11.9159 3.27043 13.19 3.82636L13.7572 4.07383C14.8209 4.53793 16.0552 3.97952 16.3977 2.87926L16.5804 2.29258C16.9906 0.974609 18.6258 0.498994 19.6902 1.38801L20.164 1.78375C21.0527 2.52591 22.3958 2.3346 23.0373 1.37451L23.3794 0.862561Z" fill="#5E6572"/>
<path d="M24.1976 29.2025C24.2083 30.8675 22.7814 32.2845 21.1127 32.2678C19.4345 32.2512 18.0656 30.8782 18.0632 29.212C18.062 27.5482 19.4274 26.13 21.102 26.149C22.8288 26.168 24.1099 27.4081 24.1965 29.2037L24.1976 29.2025Z" fill="#7F8698"/>
<path d="M24.1965 21.1846C24.078 23.0703 22.6913 24.2215 21.0641 24.1977C19.3575 24.1716 18.004 22.725 18.0644 21.0991C18.1273 19.3938 19.5127 18.0314 21.1506 18.0824C22.9864 18.1394 24.1633 19.5457 24.1965 21.1846Z" fill="#7F8698"/>
<path d="M32.2571 21.1919C32.1813 23.0575 30.7212 24.2549 29.1295 24.1944C27.2415 24.122 26.1073 22.6908 26.1429 21.0922C26.1843 19.2433 27.6433 18.0375 29.2658 18.0945C30.9937 18.1538 32.3353 19.5803 32.2583 21.1931L32.2571 21.1919Z" fill="#7F8698"/>
<path d="M29.159 32.2665C27.3054 32.1953 26.0906 30.7629 26.1428 29.1513C26.202 27.2928 27.6005 26.1488 29.2349 26.1488C30.9332 26.1488 32.3353 27.6358 32.257 29.2628C32.1753 30.98 30.7851 32.3282 29.159 32.2665Z" fill="#7F8698"/>
</svg>
