<svg width="50" height="50" viewBox="0 0 50 50" fill="none" xmlns="http://www.w3.org/2000/svg">
<path d="M23.3794 0.862561C24.1479 -0.287521 25.8521 -0.28752 26.6206 0.862561L26.9627 1.37451C27.6042 2.3346 28.9473 2.52591 29.836 1.78375L30.3098 1.38801C31.3742 0.498993 33.0094 0.974611 33.4196 2.29258L33.6023 2.87926C33.9448 3.97952 35.1791 4.53792 36.2428 4.07383L36.81 3.82636C38.0841 3.27043 39.5178 4.18313 39.5366 5.56222L39.545 6.17611C39.5607 7.32738 40.5862 8.20766 41.7388 8.05923L42.3534 7.98008C43.734 7.80227 44.85 9.07812 44.4759 10.4066L44.3093 10.998C43.997 12.107 44.7306 13.2378 45.8787 13.4171L46.4909 13.5126C47.8662 13.7274 48.5742 15.263 47.8374 16.4332L47.5094 16.9542C46.8943 17.9311 47.2766 19.2209 48.3272 19.7133L48.8874 19.9759C50.1459 20.5657 50.3885 22.2367 49.3487 23.1539L48.8858 23.5622C48.0178 24.3279 48.0178 25.6721 48.8858 26.4378L49.3487 26.8461C50.3885 27.7633 50.1459 29.4343 48.8874 30.0241L48.3272 30.2867C47.2766 30.7791 46.8943 32.0689 47.5094 33.0458L47.8374 33.5668C48.5742 34.737 47.8662 36.2726 46.4909 36.4874L45.8787 36.5829C44.7306 36.7622 43.997 37.893 44.3093 39.002L44.4759 39.5934C44.85 40.9219 43.734 42.1977 42.3534 42.0199L41.7388 41.9408C40.5862 41.7923 39.5607 42.6726 39.545 43.8239L39.5366 44.4378C39.5178 45.8169 38.0841 46.7296 36.81 46.1736L36.2428 45.9262C35.1791 45.4621 33.9448 46.0205 33.6023 47.1207L33.4196 47.7074C33.0094 49.0254 31.3742 49.501 30.3098 48.612L29.836 48.2163C28.9473 47.4741 27.6042 47.6654 26.9627 48.6255L26.6206 49.1374C25.8521 50.2875 24.1479 50.2875 23.3794 49.1374L23.0373 48.6255C22.3958 47.6654 21.0527 47.4741 20.164 48.2163L19.6902 48.612C18.6258 49.501 16.9906 49.0254 16.5804 47.7074L16.3977 47.1207C16.0552 46.0205 14.8209 45.4621 13.7572 45.9262L13.19 46.1736C11.9159 46.7296 10.4822 45.8169 10.4634 44.4378L10.455 43.8239C10.4393 42.6726 9.41379 41.7923 8.2612 41.9408L7.64661 42.0199C6.26595 42.1977 5.14996 40.9219 5.52411 39.5934L5.69066 39.002C6.003 37.893 5.26938 36.7622 4.12127 36.5829L3.50907 36.4874C2.13376 36.2726 1.42583 34.737 2.16264 33.5668L2.49063 33.0458C3.10573 32.0689 2.72343 30.7791 1.6728 30.2867L1.11259 30.0241C-0.145938 29.4343 -0.388467 27.7633 0.651323 26.8461L1.11417 26.4378C1.9822 25.6721 1.9822 24.3279 1.11417 23.5622L0.651322 23.1539C-0.388468 22.2367 -0.145937 20.5657 1.11259 19.9759L1.67281 19.7133C2.72343 19.2209 3.10573 17.9311 2.49063 16.9542L2.16264 16.4332C1.42582 15.263 2.13377 13.7274 3.50907 13.5126L4.12127 13.4171C5.26938 13.2378 6.003 12.107 5.69066 10.998L5.52411 10.4066C5.14996 9.07812 6.26595 7.80227 7.64661 7.98008L8.2612 8.05923C9.41379 8.20766 10.4393 7.32738 10.455 6.17611L10.4634 5.56222C10.4822 4.18313 11.9159 3.27043 13.19 3.82636L13.7572 4.07383C14.8209 4.53793 16.0552 3.97952 16.3977 2.87926L16.5804 2.29258C16.9906 0.974609 18.6258 0.498994 19.6902 1.38801L20.164 1.78375C21.0527 2.52591 22.3958 2.3346 23.0373 1.37451L23.3794 0.862561Z" fill="#5E6572"/>
<path d="M6 20.7609C6.27733 20.3491 6.60917 20.0263 7.15909 20.1141C7.64382 20.1912 7.99937 20.5757 8.04085 21.0409C8.0847 21.5239 7.81093 21.9583 7.36057 22.1244C6.90902 22.2894 6.45155 22.1387 6.14815 21.7245C6.09718 21.6545 6.04978 21.5809 6.00119 21.5097C6.00119 21.2605 6.00119 21.0113 6.00119 20.7621L6 20.7609Z" fill="#7F8698"/>
<path d="M44.3246 21.5083C43.9205 22.0934 43.5519 22.2833 43.0719 22.1551C42.6228 22.0353 42.3099 21.6674 42.2826 21.2259C42.2542 20.7643 42.4995 20.3596 42.9155 20.1816C43.3327 20.0036 43.7818 20.1092 44.0971 20.464C44.1789 20.5566 44.2488 20.6598 44.3246 20.7583V21.5083Z" fill="#7F8698"/>
<path d="M6 28.8402C6.27733 28.3833 6.63762 28.0676 7.21716 28.1863C7.67227 28.2789 7.99937 28.6503 8.04085 29.0847C8.08589 29.557 7.83701 29.983 7.41035 30.1658C6.98132 30.3485 6.52503 30.2322 6.20385 29.8549C6.13155 29.7706 6.06874 29.6768 6.00119 29.5878C6.00119 29.3386 6.00119 29.0894 6.00119 28.8402H6Z" fill="#7F8698"/>
<path d="M44.3248 29.5879C44.0474 29.9997 43.7156 30.3213 43.1657 30.2346C42.6809 30.1575 42.3254 29.773 42.2839 29.3078C42.2401 28.8224 42.5115 28.3916 42.9642 28.2255C43.4146 28.0593 43.8744 28.2112 44.1766 28.6254C44.2276 28.6954 44.275 28.769 44.3236 28.8402V29.5879H44.3248Z" fill="#7F8698"/>
<path d="M20.7459 44.325C20.3346 44.0485 20.0111 43.7162 20.0988 43.1667C20.1758 42.6825 20.561 42.3277 21.0268 42.285C21.5103 42.241 21.9453 42.514 22.11 42.965C22.2759 43.4171 22.1242 43.8752 21.7094 44.1766C21.6395 44.2277 21.566 44.2751 21.4949 44.3238H20.7459V44.325Z" fill="#7F8698"/>
<path d="M28.8297 44.325C28.3723 44.0485 28.057 43.6889 28.1743 43.1098C28.2668 42.6564 28.6389 42.3277 29.0739 42.2874C29.5468 42.2423 29.9734 42.4915 30.1559 42.9175C30.3385 43.3459 30.2223 43.8028 29.8454 44.1232C29.7601 44.1956 29.6677 44.2585 29.5788 44.325H28.8297Z" fill="#7F8698"/>
<path d="M24.1981 29.2022C24.2087 30.8672 22.7818 32.2842 21.1131 32.2675C19.4349 32.2509 18.066 30.8779 18.0637 29.2117C18.0625 27.5479 19.4278 26.1297 21.1024 26.1487C22.8292 26.1677 24.1104 27.4078 24.1969 29.2034L24.1981 29.2022Z" fill="#7F8698"/>
<path d="M24.1969 21.1843C24.0784 23.07 22.6918 24.2212 21.0645 24.1974C19.3579 24.1713 18.0044 22.7247 18.0649 21.0988C18.1277 19.3935 19.5132 18.0311 21.1511 18.0821C22.9869 18.1391 24.1637 19.5454 24.1969 21.1843Z" fill="#7F8698"/>
<path d="M32.2576 21.1916C32.1817 23.0571 30.7216 24.2546 29.1299 24.1941C27.2419 24.1217 26.1077 22.6904 26.1433 21.0919C26.1848 19.243 27.6437 18.0372 29.2662 18.0942C30.9942 18.1535 32.3358 19.58 32.2587 21.1928L32.2576 21.1916Z" fill="#7F8698"/>
<path d="M29.1595 32.2662C27.3059 32.195 26.0911 30.7626 26.1432 29.151C26.2025 27.2925 27.601 26.1485 29.2353 26.1485C30.9336 26.1485 32.3357 27.6355 32.2575 29.2625C32.1757 30.9797 30.7855 32.3279 29.1595 32.2662Z" fill="#7F8698"/>
<path d="M11.0002 13.0869C10.9979 11.9678 11.9602 11.0125 13.079 11.0208C14.1895 11.0303 15.1127 11.9702 15.1092 13.0893C15.1056 14.2119 14.1777 15.134 13.0577 15.1269C11.933 15.1198 11.0014 14.1965 11.0002 13.0869Z" fill="#7F8698"/>
<path d="M37.2491 11.0207C38.3679 11.0148 39.3278 11.9725 39.3231 13.0916C39.3184 14.2012 38.3833 15.1245 37.2609 15.128C36.1397 15.1304 35.2141 14.2071 35.2141 13.0857C35.2141 11.9654 36.1386 11.0279 37.2491 11.0219V11.0207Z" fill="#7F8698"/>
<path d="M15.1095 37.2595C15.1119 38.3786 14.1874 39.3185 13.0769 39.3256C11.9581 39.3339 10.997 38.3762 10.9993 37.2583C11.0029 36.1475 11.9356 35.2242 13.0592 35.2195C14.1803 35.2147 15.1071 36.1368 15.1083 37.2595H15.1095Z" fill="#7F8698"/>
<path d="M39.3232 37.2717C39.3196 38.3908 38.3525 39.3426 37.2337 39.3272C36.1232 39.3118 35.2012 38.3636 35.2142 37.2492C35.2272 36.123 36.1588 35.2068 37.2752 35.2222C38.4047 35.2377 39.3267 36.161 39.322 37.2729L39.3232 37.2717Z" fill="#7F8698"/>
<path d="M23.1675 13.0773C23.1675 14.2095 22.2466 15.1351 21.1278 15.1257C19.9924 15.1162 19.081 14.2047 19.0798 13.0773C19.0775 11.9642 20.0209 11.0183 21.1302 11.0207C22.2537 11.0231 23.1675 11.9452 23.1687 13.0773H23.1675Z" fill="#7F8698"/>
<path d="M31.2462 13.0568C31.2533 14.2032 30.3265 15.1324 29.1828 15.1276C28.0723 15.1229 27.1633 14.2127 27.1586 13.1007C27.1538 11.9626 28.0486 11.0393 29.1757 11.0227C30.2815 11.0061 31.2403 11.9472 31.2474 13.0568H31.2462Z" fill="#7F8698"/>
<path d="M13.0811 23.1801C11.9268 23.1848 10.9929 22.2639 11.0012 21.127C11.0095 20.0317 11.941 19.1012 13.0361 19.0941C14.1821 19.087 15.1125 20.0127 15.1089 21.1567C15.1042 22.2663 14.1928 23.1753 13.0811 23.1801Z" fill="#7F8698"/>
<path d="M37.2497 23.1801C36.1357 23.1765 35.2255 22.2734 35.216 21.1614C35.2065 20.0198 36.138 19.0882 37.2829 19.0941C38.3946 19.0989 39.3368 20.053 39.3238 21.159C39.3107 22.2841 38.3863 23.1836 37.2497 23.1801Z" fill="#7F8698"/>
<path d="M13.0813 27.1675C14.1942 27.1722 15.1044 28.0813 15.1091 29.1909C15.1139 30.3361 14.1835 31.2606 13.0363 31.2534C11.9258 31.2463 10.9836 30.2886 11.0014 29.1826C11.0191 28.0564 11.9424 27.1627 13.0813 27.1675Z" fill="#7F8698"/>
<path d="M37.2672 27.1684C38.399 27.1695 39.3223 28.0857 39.3234 29.2072C39.3246 30.3156 38.3777 31.2567 37.2648 31.2543C36.1365 31.2519 35.224 30.3393 35.2168 29.2048C35.2097 28.0857 36.1353 27.166 37.2684 27.1684H37.2672Z" fill="#7F8698"/>
<path d="M23.1666 37.2482C23.1714 38.4017 22.2493 39.3345 21.1127 39.3262C20.0165 39.3179 19.0849 38.3875 19.079 37.2921C19.0719 36.1457 19.9987 35.2165 21.1424 35.2213C22.2529 35.226 23.1619 36.1363 23.1666 37.2482Z" fill="#7F8698"/>
<path d="M27.158 37.2482C27.1627 36.1363 28.0729 35.226 29.1822 35.2213C30.3271 35.2165 31.2527 36.1469 31.2456 37.2921C31.2385 38.4017 30.2797 39.3428 29.1739 39.3262C28.048 39.3096 27.1521 38.3863 27.1568 37.2482H27.158Z" fill="#7F8698"/>
<path d="M29.2155 6.00006C29.7666 6.00599 30.2419 6.47713 30.249 7.02422C30.2561 7.59741 29.7489 8.0816 29.1563 8.06618C28.6004 8.05194 28.1382 7.57486 28.1453 7.02184C28.1536 6.44983 28.6312 5.99412 29.2155 6.00006Z" fill="#7F8698"/>
<path d="M21.1382 6.00003C21.7178 6.00478 22.1907 6.48185 22.18 7.0503C22.1682 7.60688 21.7024 8.06378 21.1418 8.06615C20.567 8.06853 20.0775 7.59264 20.0763 7.03369C20.0752 6.47473 20.5682 5.99529 21.1382 6.00003Z" fill="#7F8698"/>
</svg>
