<svg width="58" height="111" viewBox="0 0 58 111" fill="none" xmlns="http://www.w3.org/2000/svg">
<path d="M58 20.334V104.854C58 107.614 55.2874 109.556 52.6747 108.667L5.46055 92.601C2.19553 91.49 0 88.4237 0 84.9749V0.479004L58 20.334Z" fill="#21262F"/>
<path d="M15.1465 66.2031L17.7041 70.7646L20.2705 66.2031H23.0479L19.251 72.5488L23.1445 79H20.3408L17.7041 74.3506L15.0762 79H12.2637L16.1572 72.5488L12.3604 66.2031H15.1465ZM26.9941 75.1328L32.3994 66.2031H34.8252V79H32.3994V70.0703L26.9941 79H24.5771V66.2031H26.9941V75.1328ZM42.5156 66.2031V79H40.1074V66.2031H42.5156ZM46.4883 66.2031V68.1104H36.1787V66.2031H46.4883Z" fill="white"/>
</svg>
