<svg width="58" height="110" viewBox="0 0 58 110" fill="none" xmlns="http://www.w3.org/2000/svg">
<path d="M58 19.855V104.375C58 107.135 55.2874 109.077 52.6747 108.188L5.46055 92.122C2.19553 91.011 0 87.9447 0 84.4959V0L58 19.855Z" fill="#5E6572"/>
<path d="M12.207 71.7637L9.77539 79H8.07031L11.2578 70.4688H12.3477L12.207 71.7637ZM14.2402 79L11.7969 71.7637L11.6504 70.4688H12.7461L15.9512 79H14.2402ZM14.1289 75.8301V77.1016H9.55273V75.8301H14.1289ZM18.459 70.4688V79H16.8477V70.4688H18.459ZM23.5391 70.4688L20.1699 75.4023H18.0547L17.8438 73.9844H19.2969L21.5762 70.4688H23.5391ZM21.8809 79L19.3086 75.1445L20.3926 73.9551L23.8086 79H21.8809ZM32.4629 77.7285L32.3516 81.0566H30.8516V79H30.1191V77.7285H32.4629ZM24.5176 79V70.4688H26.1289V77.7344H29.7383V70.4688H31.3555V79H24.5176ZM35.1875 76.4219L38.791 70.4688H40.4082V79H38.791V73.0469L35.1875 79H33.5762V70.4688H35.1875V76.4219ZM46.6309 75.8477H44.293L43.707 75.6074C43.0508 75.4004 42.5488 75.0879 42.2012 74.6699C41.8535 74.252 41.6797 73.7227 41.6797 73.082C41.6797 72.5156 41.8047 72.0391 42.0547 71.6523C42.3086 71.2617 42.668 70.9668 43.1328 70.7676C43.6016 70.5684 44.1562 70.4688 44.7969 70.4688H47.7148V79H46.0977V71.7402H44.7969C44.2852 71.7402 43.9062 71.8672 43.6602 72.1211C43.4141 72.375 43.291 72.7285 43.291 73.1816C43.291 73.498 43.3457 73.7656 43.4551 73.9844C43.5684 74.2031 43.7344 74.3672 43.9531 74.4766C44.1758 74.5859 44.4512 74.6406 44.7793 74.6406H46.625L46.6309 75.8477ZM44.8848 75.168L42.9453 79H41.2051L43.1562 75.168H44.8848Z" fill="white"/>
</svg>
