<svg width="58" height="110" viewBox="0 0 58 110" fill="none" xmlns="http://www.w3.org/2000/svg">
<path d="M58 19.855V104.375C58 107.135 55.2874 109.077 52.6747 108.188L5.46055 92.122C2.19553 91.011 0 87.9447 0 84.4959V0L58 19.855Z" fill="#393F49"/>
<path d="M21.5049 65.2031V78H19.0791L13.6387 69.123V78H11.2217V65.2031H13.6387L19.0967 74.0889V65.2031H21.5049ZM32.4473 76.1016V78H25.6445V76.1016H32.4473ZM26.3828 65.2031V78H23.9658V65.2031H26.3828ZM31.5596 70.4854V72.3398H25.6445V70.4854H31.5596ZM32.4209 65.2031V67.1104H25.6445V65.2031H32.4209ZM37.2725 75.5479L39.8213 65.2031H41.2012L41.2891 67.3828L38.5645 78H37.1055L37.2725 75.5479ZM35.6641 65.2031L37.7559 75.5127V78H36.165L33.2646 65.2031H35.6641ZM43.9346 75.4688L45.9912 65.2031H48.3994L45.499 78H43.9082L43.9346 75.4688ZM41.8604 65.2031L44.4092 75.583L44.5586 78H43.0996L40.3838 67.374L40.4893 65.2031H41.8604Z" fill="white"/>
</svg>
