<svg width="24" height="25" viewBox="0 0 24 25" fill="none" xmlns="http://www.w3.org/2000/svg">
<path fill-rule="evenodd" clip-rule="evenodd" d="M9.33333 3.06812H9.29941C8.70521 3.0681 8.2093 3.06809 7.8057 3.10467C7.38413 3.14288 6.99023 3.22568 6.625 3.43655C6.20695 3.67791 5.85979 4.02506 5.61843 4.44312C5.50307 4.64292 5.42604 4.85131 5.37367 5.06812H4C2.48122 5.06812 1.25 6.29933 1.25 7.81812C1.25 10.4415 3.37665 12.5681 6 12.5681H6.127C6.64026 13.2909 7.35013 13.8619 8.18225 14.2065C8.65641 14.4029 9.16431 14.4877 9.76032 14.5283C10.1798 14.5569 10.6699 14.565 11.25 14.5672V17.0681H10.6667C8.77969 17.0681 7.25 18.5978 7.25 20.4848C7.25 20.5567 7.25364 20.6278 7.26076 20.6978C7.36744 21.7483 8.25465 22.5681 9.33333 22.5681H14.6667C15.8173 22.5681 16.75 21.6354 16.75 20.4848C16.75 18.5978 15.2203 17.0681 13.3333 17.0681H12.75V14.5672C13.3301 14.565 13.8202 14.5569 14.2397 14.5283C14.8357 14.4877 15.3436 14.4029 15.8177 14.2065C16.6499 13.8619 17.3597 13.2909 17.873 12.5681H18C20.6234 12.5681 22.75 10.4415 22.75 7.81812C22.75 6.29933 21.5188 5.06812 20 5.06812H18.6263C18.574 4.85131 18.4969 4.64292 18.3816 4.44312C18.1402 4.02506 17.7931 3.67791 17.375 3.43655C17.0098 3.22568 16.6159 3.14288 16.1943 3.10467C15.7907 3.06809 15.2948 3.0681 14.7006 3.06812H14.6667H9.33333ZM12.0012 18.5681C12.0008 18.5681 12.0004 18.5681 12 18.5681C11.9996 18.5681 11.9992 18.5681 11.9988 18.5681H10.6667C9.60812 18.5681 8.75 19.4262 8.75 20.4848C8.75 20.5049 8.75102 20.5248 8.75301 20.5444C8.78288 20.8386 9.0313 21.0681 9.33333 21.0681H14.6667C14.9486 21.0681 15.1838 20.8682 15.2381 20.6023C15.2459 20.5644 15.25 20.5251 15.25 20.4848C15.25 19.4262 14.3919 18.5681 13.3333 18.5681H12.0012ZM21.25 7.81812C21.25 9.41442 20.0991 10.7419 18.5819 11.0162C18.6482 10.7193 18.6866 10.4033 18.7102 10.0578C18.75 9.47442 18.75 8.75433 18.75 7.84577V7.84572V7.84566V7.84561V7.84555V7.8455V7.81812V7.15145V7.11754V7.11753V7.11751V7.1175V7.11748V7.11739C18.75 6.92395 18.75 6.74093 18.7487 6.56812H20C20.6904 6.56812 21.25 7.12776 21.25 7.81812ZM5.41812 11.0162C5.35175 10.7193 5.31338 10.4033 5.2898 10.0578C5.24999 9.47436 5.25 8.75419 5.25 7.84549V7.81812V7.15145L5.25 7.11752C5.25 6.92403 5.24999 6.74097 5.25125 6.56812H4C3.30964 6.56812 2.75 7.12776 2.75 7.81812C2.75 9.41442 3.90086 10.7419 5.41812 11.0162Z" fill="#393F49"/>
</svg>
