<svg width="24" height="25" viewBox="0 0 24 25" fill="none" xmlns="http://www.w3.org/2000/svg">
<g clip-path="url(#clip0_1201_10493)">
<path fill-rule="evenodd" clip-rule="evenodd" d="M13.0942 3.77231C12.5429 4.00067 12.1094 4.43421 11.2423 5.30131L7.9534 8.59018C7.49994 8.26863 7.1105 8.00076 6.76213 7.79492C6.2863 7.51377 5.83395 7.31508 5.32735 7.24657C4.78796 7.17364 4.23917 7.21899 3.71908 7.37948C3.23059 7.53023 2.81699 7.80048 2.39377 8.15593C1.98504 8.49921 1.52354 8.96071 0.954113 9.53013L0.954101 9.53015L0.954089 9.53016L0.930314 9.55393L0.470657 10.0136C0.314763 10.1695 0.235354 10.386 0.253534 10.6058C0.271714 10.8255 0.385643 11.0261 0.565039 11.1542L3.45827 13.2209C3.03253 13.7737 2.80158 14.2508 2.75437 14.7748C2.73824 14.9539 2.73824 15.134 2.75437 15.3131C2.84165 16.282 3.55701 17.0904 4.9703 18.5134L7.47001 16.0137C7.7629 15.7208 8.23777 15.7208 8.53067 16.0137C8.82356 16.3066 8.82356 16.7815 8.53067 17.0744L6.03096 19.5741C7.45354 20.9868 8.2618 21.702 9.23049 21.7892C9.40956 21.8053 9.58971 21.8053 9.76878 21.7892C10.293 21.742 10.7702 21.5109 11.3232 21.0849L13.391 23.9799C13.5192 24.1593 13.7197 24.2732 13.9395 24.2914C14.1592 24.3096 14.3758 24.2302 14.5316 24.0743L14.9896 23.6163L15.0134 23.5925L15.0134 23.5925L15.0135 23.5924C15.5836 23.0223 16.0457 22.5602 16.3893 22.151C16.7452 21.7272 17.0157 21.3131 17.1663 20.8239C17.3261 20.305 17.3713 19.7577 17.2988 19.2196C17.2305 18.7123 17.0317 18.2594 16.7502 17.783C16.544 17.4341 16.2757 17.0441 15.9537 16.5899L19.2423 13.3013C20.1094 12.4342 20.5429 12.0007 20.7713 11.4494C20.9996 10.898 20.9996 10.2849 20.9996 9.05866V7.54394C20.9996 5.65833 20.9996 4.71552 20.4138 4.12973C19.8281 3.54395 18.8853 3.54395 16.9996 3.54395H15.4849C14.2587 3.54395 13.6455 3.54395 13.0942 3.77231ZM15.0029 11.5435C15.0029 12.648 14.1075 13.5435 13.0029 13.5435C11.8984 13.5435 11.0029 12.648 11.0029 11.5435C11.0029 10.4389 11.8984 9.54346 13.0029 9.54346C14.1075 9.54346 15.0029 10.4389 15.0029 11.5435ZM6.84126 9.64151C6.51115 9.41044 6.24009 9.22874 5.99908 9.08634C5.61223 8.85776 5.35683 8.76421 5.12634 8.73304C4.80271 8.68928 4.47343 8.71649 4.16138 8.81279C3.93913 8.88137 3.70255 9.01558 3.35847 9.30456C3.03923 9.57268 2.66853 9.93774 2.15738 10.4483L4.41977 12.0643L6.84126 9.64151ZM14.9024 17.7022L12.4808 20.1249L14.097 22.3875C14.6074 21.8765 14.9725 21.5058 15.2406 21.1864C15.5299 20.8419 15.6642 20.605 15.7328 20.3824C15.8286 20.0711 15.8558 19.7427 15.8123 19.4199C15.7812 19.1891 15.6876 18.9333 15.4587 18.546C15.3161 18.3045 15.134 18.033 14.9024 17.7022Z" fill="#393F49"/>
</g>
<defs>
<clipPath id="clip0_1201_10493">
<rect width="24" height="24" fill="white" transform="translate(0 0.543945)"/>
</clipPath>
</defs>
</svg>
