<svg width="24" height="25" viewBox="0 0 24 25" fill="none" xmlns="http://www.w3.org/2000/svg">
<path fill-rule="evenodd" clip-rule="evenodd" d="M8 2.88599C5.37665 2.88599 3.25 5.01263 3.25 7.63599C3.25 10.2593 5.37665 12.386 8 12.386C10.6234 12.386 12.75 10.2593 12.75 7.63599C12.75 5.01263 10.6234 2.88599 8 2.88599ZM13.25 3.63599C13.25 3.22177 13.5858 2.88599 14 2.88599C16.6234 2.88599 18.75 5.01263 18.75 7.63599C18.75 10.2593 16.6234 12.386 14 12.386C13.5858 12.386 13.25 12.0502 13.25 11.636C13.25 11.2218 13.5858 10.886 14 10.886C15.7949 10.886 17.25 9.43091 17.25 7.63599C17.25 5.84106 15.7949 4.38599 14 4.38599C13.5858 4.38599 13.25 4.0502 13.25 3.63599ZM12 22.386C13.5188 22.386 14.75 21.1548 14.75 19.636C14.75 17.0126 12.6234 14.886 10 14.886H6C3.37665 14.886 1.25 17.0126 1.25 19.636C1.25 21.1548 2.48122 22.386 4 22.386H12ZM16 14.886C15.5858 14.886 15.25 15.2218 15.25 15.636C15.25 16.0502 15.5858 16.386 16 16.386H18C19.7949 16.386 21.25 17.8411 21.25 19.636C21.25 20.3263 20.6904 20.886 20 20.886H16C15.5858 20.886 15.25 21.2218 15.25 21.636C15.25 22.0502 15.5858 22.386 16 22.386H20C21.5188 22.386 22.75 21.1548 22.75 19.636C22.75 17.0126 20.6234 14.886 18 14.886H16Z" fill="#393F49"/>
</svg>
