<svg width="24" height="25" viewBox="0 0 24 25" fill="none" xmlns="http://www.w3.org/2000/svg">
<path fill-rule="evenodd" clip-rule="evenodd" d="M14 4.38599C14.964 4.38599 15.6116 4.38758 16.0946 4.45252C16.5561 4.51457 16.7536 4.62179 16.8839 4.75211C17.0142 4.88242 17.1214 5.07992 17.1835 5.54138C17.2299 5.88688 17.244 6.31655 17.2482 6.88599H16.1619L16.0549 6.88599L16 6.88599H12H4C3.30965 6.88599 2.75 6.32635 2.75 5.63599C2.75 4.94563 3.30965 4.38599 4 4.38599H14ZM1.25 5.63599C1.25 4.11721 2.48122 2.88599 4 2.88599H14H14.052H14.052C14.9505 2.88596 15.6997 2.88593 16.2945 2.9659C16.9223 3.0503 17.4891 3.23598 17.9445 3.69145C18.4 4.14692 18.5857 4.71372 18.6701 5.34151C18.7301 5.78771 18.7451 6.32083 18.7488 6.93867C18.9761 6.95463 19.1903 6.97542 19.3918 7.00251C20.2919 7.12353 21.0497 7.38242 21.6517 7.98434C22.2536 8.58626 22.5125 9.34413 22.6335 10.2442C22.6973 10.7192 22.7262 11.2648 22.7393 11.886H21C19.4812 11.886 18.25 13.1172 18.25 14.636C18.25 16.1548 19.4812 17.386 21 17.386H22.7393C22.7262 18.0072 22.6973 18.5528 22.6335 19.0277C22.5125 19.9279 22.2536 20.6857 21.6517 21.2876C21.0497 21.8896 20.2919 22.1485 19.3918 22.2695C18.5248 22.386 17.4225 22.386 16.0549 22.386H16H8H7.94513C6.57754 22.386 5.47522 22.386 4.60825 22.2695C3.70814 22.1485 2.95027 21.8896 2.34835 21.2876C1.74643 20.6857 1.48754 19.9279 1.36652 19.0277C1.24996 18.1608 1.24998 17.0585 1.25 15.6909V15.636V5.63599ZM22.75 13.386C22.75 13.4504 22.75 13.5155 22.75 13.5811V13.636V15.636V15.6909C22.75 15.7565 22.75 15.8216 22.75 15.886H21C20.3096 15.886 19.75 15.3263 19.75 14.636C19.75 13.9456 20.3096 13.386 21 13.386H22.75Z" fill="#393F49"/>
</svg>
