<svg width="24" height="25" viewBox="0 0 24 25" fill="none" xmlns="http://www.w3.org/2000/svg">
<path fill-rule="evenodd" clip-rule="evenodd" d="M5.25 7.40791C5.25 6.91378 5.25 6.66672 5.22364 6.58878C5.11383 6.26415 4.7557 6.14284 4.47121 6.33393C4.40292 6.3798 4.28645 6.532 4.05351 6.83641C2.76535 8.51982 2 10.6245 2 12.908C2 18.4308 6.47716 22.908 12 22.908C12.633 22.908 13.2522 22.8491 13.8526 22.7367C14.7933 22.4822 15.4707 22.1287 15.9557 21.7222C16.9087 20.9235 17.25 19.8057 17.25 18.4079C17.25 15.8447 14.9623 13.6579 12 13.6579C8.33484 13.6579 5.25 10.9198 5.25 7.40791ZM18.75 18.4079C18.75 18.9021 18.75 19.1492 18.7764 19.2272C18.8862 19.5518 19.2443 19.6731 19.5288 19.482C19.5971 19.4361 19.7136 19.2839 19.9465 18.9794C21.2347 17.296 22 15.1914 22 12.908C22 7.38511 17.5228 2.90796 12 2.90796C11.3669 2.90796 10.7474 2.9668 10.147 3.07931C9.2065 3.33379 8.52922 3.6872 8.04427 4.09366C7.09132 4.89237 6.75 6.01013 6.75 7.40791C6.75 9.97117 9.03774 12.1579 12 12.1579C15.6652 12.1579 18.75 14.896 18.75 18.4079ZM11.9999 8.9079C12.5522 8.9079 12.9999 8.46018 12.9999 7.9079C12.9999 7.35561 12.5522 6.9079 11.9999 6.9079C11.4476 6.9079 10.9999 7.35561 10.9999 7.9079C10.9999 8.46018 11.4476 8.9079 11.9999 8.9079ZM12.9999 17.9079C12.9999 18.4602 12.5522 18.9079 11.9999 18.9079C11.4476 18.9079 10.9999 18.4602 10.9999 17.9079C10.9999 17.3556 11.4476 16.9079 11.9999 16.9079C12.5522 16.9079 12.9999 17.3556 12.9999 17.9079Z" fill="#393F49"/>
</svg>
