<svg width="24" height="25" viewBox="0 0 24 25" fill="none" xmlns="http://www.w3.org/2000/svg">
<path fill-rule="evenodd" clip-rule="evenodd" d="M8 2.97607H7.94513C6.57754 2.97605 5.47522 2.97604 4.60825 3.0926C3.70814 3.21361 2.95027 3.47251 2.34835 4.07442C1.74643 4.67634 1.48754 5.43422 1.36652 6.33432C1.24996 7.20129 1.24998 8.30361 1.25 9.6712V9.72607V15.7261V15.781C1.24998 17.1485 1.24996 18.2509 1.36652 19.1178C1.48754 20.0179 1.74643 20.7758 2.34835 21.3777C2.95027 21.9796 3.70814 22.2385 4.60825 22.3596C5.47522 22.4761 6.57754 22.4761 7.94513 22.4761H8H10H10.0549C11.4225 22.4761 12.5248 22.4761 13.3918 22.3596C14.2919 22.2385 15.0497 21.9796 15.6517 21.3777C16.2536 20.7758 16.5125 20.0179 16.6335 19.1178C16.75 18.2509 16.75 17.1486 16.75 15.781V15.781V15.781V15.7809V15.7261V9.72607V9.67121V9.6712V9.67119V9.67118C16.75 8.3036 16.75 7.20129 16.6335 6.33432C16.5125 5.43422 16.2536 4.67634 15.6517 4.07442C15.0497 3.47251 14.2919 3.21361 13.3918 3.0926C12.5248 2.97604 11.4225 2.97605 10.0549 2.97607H10H8ZM5.25 7.72607C5.25 7.31186 5.58579 6.97607 6 6.97607H12C12.4142 6.97607 12.75 7.31186 12.75 7.72607C12.75 8.14029 12.4142 8.47607 12 8.47607H6C5.58579 8.47607 5.25 8.14029 5.25 7.72607ZM6 10.9761C5.58579 10.9761 5.25 11.3119 5.25 11.7261C5.25 12.1403 5.58579 12.4761 6 12.4761H10C10.4142 12.4761 10.75 12.1403 10.75 11.7261C10.75 11.3119 10.4142 10.9761 10 10.9761H6ZM5.25 15.7261C5.25 15.3119 5.58579 14.9761 6 14.9761H8C8.41421 14.9761 8.75 15.3119 8.75 15.7261C8.75 16.1403 8.41421 16.4761 8 16.4761H6C5.58579 16.4761 5.25 16.1403 5.25 15.7261ZM19 5.97607C19.4142 5.97607 19.75 6.31186 19.75 6.72607V18.7261C19.75 19.1403 19.4142 19.4761 19 19.4761C18.5858 19.4761 18.25 19.1403 18.25 18.7261V6.72607C18.25 6.31186 18.5858 5.97607 19 5.97607ZM22.75 8.72607C22.75 8.31186 22.4142 7.97607 22 7.97607C21.5858 7.97607 21.25 8.31186 21.25 8.72607V16.7261C21.25 17.1403 21.5858 17.4761 22 17.4761C22.4142 17.4761 22.75 17.1403 22.75 16.7261V8.72607Z" fill="#393F49"/>
</svg>
