<svg width="24" height="25" viewBox="0 0 24 25" fill="none" xmlns="http://www.w3.org/2000/svg">
<path fill-rule="evenodd" clip-rule="evenodd" d="M14.05 6.67171C15.4667 5.60919 16.4616 4.86545 17.238 4.44356C18.0191 4.01903 18.3492 4.04878 18.559 4.15368C18.7688 4.25857 18.9907 4.5048 19.1198 5.38445C19.248 6.25865 19.25 7.50084 19.25 9.27171V13.2717C19.25 15.0426 19.248 16.2848 19.1198 17.159C18.9907 18.0386 18.7688 18.2849 18.559 18.3897C18.3492 18.4946 18.0191 18.5244 17.238 18.0999C16.4616 17.678 15.4667 16.9342 14.05 15.8717L12.75 14.8967L12.75 7.64671L14.05 6.67171ZM20.6039 5.16667C20.7002 5.82329 20.733 6.63499 20.7442 7.59559C22.4588 7.94081 23.75 9.45549 23.75 11.2717C23.75 13.088 22.4588 14.6027 20.7442 14.9479C20.733 15.9085 20.7002 16.7202 20.6039 17.3768C20.4565 18.3806 20.1256 19.2835 19.2298 19.7314C18.3341 20.1793 17.4132 19.9023 16.5217 19.4178C15.637 18.937 14.5544 18.1251 13.2035 17.1118L13.15 17.0717L11.7502 16.0219H9.75L9.75 19.772C9.75 21.0146 8.74264 22.022 7.5 22.022C6.25736 22.022 5.25 21.0146 5.25 19.772L5.25 15.963C2.98301 15.6034 1.25 13.64 1.25 11.2719C1.25 8.64853 3.37665 6.52189 6 6.52189L11.7498 6.52189L13.15 5.47171L13.2035 5.43159C14.5544 4.41838 15.637 3.6064 16.5217 3.12561C17.4132 2.64112 18.3341 2.36415 19.2298 2.81204C20.1256 3.25993 20.4565 4.16278 20.6039 5.16667Z" fill="#393F49"/>
</svg>
