<svg width="24" height="25" viewBox="0 0 24 25" fill="none" xmlns="http://www.w3.org/2000/svg">
<path fill-rule="evenodd" clip-rule="evenodd" d="M8.75 1.81812C8.75 1.4039 8.41421 1.06812 8 1.06812C7.58579 1.06812 7.25 1.4039 7.25 1.81812V3.09127C7.06292 3.0988 6.88649 3.10879 6.71986 3.12204C6.02597 3.17717 5.43809 3.29218 4.89913 3.55797C3.96133 4.02044 3.20233 4.77944 2.73985 5.71725C2.47407 6.25621 2.35906 6.84409 2.30392 7.53798C2.24999 8.21665 2.24999 9.05788 2.25 10.1194V10.1514V13.8181V13.8745C2.24998 15.7123 2.24997 17.1679 2.40313 18.3071C2.56076 19.4796 2.89288 20.4285 3.64124 21.1769C4.38961 21.9252 5.33856 22.2574 6.51098 22.415C7.65018 22.5681 9.1058 22.5681 10.9435 22.5681H10.9436H11H13H13.0564H13.0565C14.8942 22.5681 16.3498 22.5681 17.489 22.415C18.6614 22.2574 19.6104 21.9252 20.3588 21.1769C21.1071 20.4285 21.4392 19.4796 21.5969 18.3071C21.75 17.1679 21.75 15.7123 21.75 13.8746V13.8745V13.8181V11.8181V11.7617V11.7617C21.75 9.92392 21.75 8.4683 21.5969 7.32909C21.4392 6.15667 21.1071 5.20772 20.3588 4.45936C19.6104 3.71099 18.6614 3.37888 17.489 3.22125C17.2561 3.18993 17.0099 3.16502 16.75 3.1452V1.81812C16.75 1.4039 16.4142 1.06812 16 1.06812C15.5858 1.06812 15.25 1.4039 15.25 1.81812V3.08083C14.588 3.0681 13.8586 3.06811 13.0564 3.06811L13 3.06812H9.33333L9.30128 3.06812C9.11052 3.06811 8.92687 3.06811 8.75 3.06843V1.81812ZM7 8.06812C6.58579 8.06812 6.25 8.4039 6.25 8.81812C6.25 9.23233 6.58579 9.56812 7 9.56812H17C17.4142 9.56812 17.75 9.23233 17.75 8.81812C17.75 8.4039 17.4142 8.06812 17 8.06812H7ZM6.25 12.8181C6.25 12.4039 6.58579 12.0681 7 12.0681H13C13.4142 12.0681 13.75 12.4039 13.75 12.8181C13.75 13.2323 13.4142 13.5681 13 13.5681H7C6.58579 13.5681 6.25 13.2323 6.25 12.8181Z" fill="#393F49"/>
</svg>
