<svg width="24" height="25" viewBox="0 0 24 25" fill="none" xmlns="http://www.w3.org/2000/svg">
<path fill-rule="evenodd" clip-rule="evenodd" d="M1.25 3.4541C1.25 3.03989 1.58579 2.7041 2 2.7041H22C22.4142 2.7041 22.75 3.03989 22.75 3.4541C22.75 3.86832 22.4142 4.2041 22 4.2041H20V9.4541C20 12.2825 20 13.6967 19.1213 14.5754C18.2426 15.4541 16.8284 15.4541 14 15.4541H12.75V18.0295L17.3859 20.811C17.7411 21.0241 17.8562 21.4848 17.6431 21.84C17.43 22.1952 16.9693 22.3103 16.6141 22.0972L12.75 19.7787V21.4541C12.75 21.8683 12.4142 22.2041 12 22.2041C11.5858 22.2041 11.25 21.8683 11.25 21.4541V19.7787L7.38587 22.0972C7.03069 22.3103 6.56999 22.1952 6.35688 21.84C6.14377 21.4848 6.25894 21.0241 6.61413 20.811L11.25 18.0295V15.4541H10C7.17157 15.4541 5.75736 15.4541 4.87868 14.5754C4 13.6967 4 12.2825 4 9.4541V4.2041H2C1.58579 4.2041 1.25 3.86832 1.25 3.4541ZM8.75 9.4541C8.75 9.03989 8.41421 8.7041 8 8.7041C7.58579 8.7041 7.25 9.03989 7.25 9.4541V11.4541C7.25 11.8683 7.58579 12.2041 8 12.2041C8.41421 12.2041 8.75 11.8683 8.75 11.4541V9.4541ZM12 6.7041C12.4142 6.7041 12.75 7.03989 12.75 7.4541V11.4541C12.75 11.8683 12.4142 12.2041 12 12.2041C11.5858 12.2041 11.25 11.8683 11.25 11.4541V7.4541C11.25 7.03989 11.5858 6.7041 12 6.7041ZM16.75 8.4541C16.75 8.03989 16.4142 7.7041 16 7.7041C15.5858 7.7041 15.25 8.03989 15.25 8.4541V11.4541C15.25 11.8683 15.5858 12.2041 16 12.2041C16.4142 12.2041 16.75 11.8683 16.75 11.4541V8.4541Z" fill="#393F49"/>
</svg>
