<svg width="24" height="25" viewBox="0 0 24 25" fill="none" xmlns="http://www.w3.org/2000/svg">
<path fill-rule="evenodd" clip-rule="evenodd" d="M10.8595 4.39919C11.0067 4.47876 11.1355 4.54843 11.25 4.60821V7.09009C11.25 7.50431 11.5858 7.84009 12 7.84009C12.4142 7.84009 12.75 7.50431 12.75 7.09009V4.60821C12.8645 4.54843 12.9934 4.47874 13.1405 4.39916L13.1406 4.39914C15.055 3.36408 16.6844 3.14744 18.9994 3.1021C19.9333 3.0838 20.4003 3.07466 20.7001 3.36869C21 3.66273 21 4.13852 21 5.09009V13.0901C21 14.0239 21 14.4908 20.714 14.7825C20.428 15.0741 19.9518 15.0834 18.9994 15.1021C16.6844 15.1474 15.055 15.3641 13.1406 16.3991C12.5489 16.7191 12.253 16.879 12 16.879C11.747 16.879 11.4511 16.7191 10.8594 16.3991C8.94502 15.3641 7.31563 15.1474 5.00058 15.1021C4.0482 15.0834 3.57201 15.0741 3.286 14.7825C3 14.4908 3 14.0239 3 13.0901V5.09009C3 4.13852 3 3.66273 3.29985 3.36869C3.5997 3.07466 4.06666 3.0838 5.00058 3.1021C7.31563 3.14744 8.94502 3.36408 10.8594 4.39914L10.8595 4.39919ZM3 17.8401C2.58579 17.8401 2.25 18.1759 2.25 18.5901C2.25 19.0043 2.58579 19.3401 3 19.3401C4.97377 19.3401 6.39687 19.4644 7.67766 19.8137C8.95056 20.1608 10.1262 20.7423 11.584 21.7141C11.8359 21.8821 12.1641 21.8821 12.416 21.7141C13.8738 20.7423 15.0494 20.1608 16.3223 19.8137C17.6031 19.4644 19.0262 19.3401 21 19.3401C21.4142 19.3401 21.75 19.0043 21.75 18.5901C21.75 18.1759 21.4142 17.8401 21 17.8401C18.9738 17.8401 17.3969 17.9658 15.9277 18.3665C14.585 18.7327 13.3686 19.3184 12 20.1942C10.6314 19.3184 9.41499 18.7327 8.07234 18.3665C6.60313 17.9658 5.02623 17.8401 3 17.8401Z" fill="#393F49"/>
</svg>
