<svg width="27" height="27" viewBox="0 0 27 27" fill="none" xmlns="http://www.w3.org/2000/svg">
<path d="M13.5 0C6.05526 0 0 6.05526 0 13.5C0 16.0382 0.706579 18.5053 2.04474 20.6447C1.51184 22.5118 0.548684 26.0487 0.540789 26.0842C0.489474 26.2658 0.544737 26.4632 0.678947 26.5934C0.817105 26.7237 1.01447 26.775 1.19211 26.7158L6.54079 25.0697C8.63684 26.3329 11.0368 27 13.5 27C20.9447 27 27 20.9447 27 13.5C27 6.05526 20.9447 0 13.5 0ZM21.9592 19.1211C21.6158 20.0961 20.2461 20.9013 19.1566 21.1382C18.4105 21.2961 17.4355 21.4224 14.1513 20.0645C9.95131 18.3237 7.24737 14.0605 7.03816 13.7803C6.83684 13.5039 5.34079 11.5224 5.34079 9.46974C5.34079 7.4171 6.38289 6.42237 6.80132 5.99211C7.14474 5.64079 7.7171 5.47895 8.26184 5.47895C8.43947 5.47895 8.59737 5.48684 8.73947 5.49474C9.15789 5.51447 9.37105 5.53816 9.64737 6.20132C9.99079 7.03026 10.8316 9.08289 10.9303 9.29211C11.0329 9.50132 11.1355 9.78947 10.9895 10.0658C10.8553 10.35 10.7368 10.4803 10.5276 10.7211C10.3184 10.9658 10.1171 11.1513 9.90789 11.4118C9.71447 11.6368 9.49737 11.8816 9.73816 12.3C9.98289 12.7105 10.8197 14.0803 12.0553 15.1816C13.65 16.6026 14.9447 17.0566 15.4066 17.2461C15.75 17.3882 16.1605 17.3566 16.4132 17.0882C16.7329 16.7447 17.1276 16.1724 17.5303 15.6079C17.8145 15.2053 18.1776 15.1539 18.5566 15.2961C18.9434 15.4303 20.9842 16.4408 21.4026 16.6461C21.8211 16.8553 22.0974 16.9579 22.2 17.1355C22.3066 17.3171 22.3066 18.1461 21.9592 19.1211Z" fill="#47D25C"/>
</svg>
