<svg width="29" height="29" viewBox="0 0 29 29" fill="none" xmlns="http://www.w3.org/2000/svg">
<path d="M14.5 0C6.49216 0 0 6.49196 0 14.5C0 22.508 6.49216 29 14.5 29C22.508 29 29 22.508 29 14.5C29 6.49196 22.508 0 14.5 0ZM8.65012 20.4185L5.05632 21.3813L6.04013 17.7104C5.36247 16.5455 4.97183 15.1922 4.97183 13.7472C4.97183 9.38993 8.50424 5.85723 12.862 5.85723C17.219 5.85723 20.7517 9.38993 20.7517 13.7472C20.7517 18.1045 17.219 21.6374 12.862 21.6374C11.3126 21.6378 9.86913 21.1899 8.65012 20.4185ZM23.9509 22.9084L20.6818 22.0327C19.5723 22.7342 18.2595 23.1419 16.8507 23.1419C15.8463 23.1419 14.8911 22.9348 14.0233 22.562C18.3797 21.9916 21.7551 18.2576 21.7551 13.7479C21.7551 12.4411 21.469 11.2006 20.9608 10.0816C22.8152 11.3796 24.0282 13.5298 24.0282 15.9643C24.0282 17.2786 23.6731 18.5096 23.0566 19.5694L23.9509 22.9084Z" fill="#FF015C"/>
</svg>
