<svg width="27" height="27" viewBox="0 0 27 27" fill="none" xmlns="http://www.w3.org/2000/svg">
<path d="M13.2835 11.4504C12.7981 11.4504 12.3949 11.6781 12.0664 12.1261C11.7378 12.5741 11.5773 13.164 11.5773 13.8995C11.5773 14.4931 11.693 14.9896 11.9282 15.3854C12.1597 15.7848 12.4658 15.9827 12.8467 15.9827C13.4067 15.9827 13.8845 15.7102 14.2877 15.1688C14.691 14.6238 14.8926 14.004 14.8963 13.3059C14.8963 12.7421 14.732 12.2941 14.4072 11.9581C14.0787 11.6146 13.7053 11.4504 13.2835 11.4504Z" fill="#FF015C"/>
<path d="M13.5 0C6.04439 0 0 6.04439 0 13.5C0 20.9556 6.04439 27 13.5 27C20.9556 27 27 20.9556 27 13.5C27.0037 6.04439 20.9593 0 13.5 0ZM20.4628 16.5017C19.4921 17.6665 18.3385 18.2452 17.0057 18.2452C16.0984 18.2452 15.4115 17.898 14.9448 17.1961C14.3251 17.9241 13.5821 18.2937 12.7123 18.2937C11.7378 18.2937 10.9053 17.883 10.2109 17.0579C9.51645 16.2366 9.17298 15.1502 9.17298 13.8099C9.17298 12.436 9.56125 11.3122 10.3453 10.4423C11.1256 9.57246 12.0626 9.13191 13.1603 9.13191C13.8509 9.13191 14.4856 9.37085 15.068 9.845L15.2136 9.31485H17.491L16.8302 14.7246C16.7929 15.0942 16.7705 15.4152 16.7705 15.6878C16.7705 16.0275 16.9273 16.1918 17.2409 16.1918C17.8196 16.1918 18.3796 15.8296 18.9172 15.0979C19.4548 14.3699 19.7236 13.4515 19.7236 12.3501C19.7236 10.741 19.1374 9.40819 17.9614 8.3479C16.7891 7.28761 15.348 6.75747 13.6419 6.75747C11.7938 6.75747 10.2295 7.40335 8.96391 8.69137C7.69455 9.98313 7.05614 11.5922 7.05614 13.5187C7.05614 15.2958 7.64975 16.8414 8.83324 18.1593C10.0205 19.4809 11.6968 20.138 13.8621 20.138C15.2211 20.138 16.6174 19.8319 18.0398 19.2196C18.5924 18.9844 19.2233 19.242 19.4473 19.7945C19.6639 20.3321 19.4062 20.9444 18.8724 21.1722C17.2371 21.874 15.5683 22.2212 13.8659 22.2212C11.0434 22.2212 8.80337 21.3626 7.13454 19.6489C5.47317 17.9353 4.64062 15.8894 4.64062 13.5075C4.64062 11.0248 5.51424 8.94898 7.26148 7.28014C9.00871 5.61131 11.1256 4.77876 13.6083 4.77876C15.9715 4.77876 17.9502 5.51051 19.5407 6.97774C21.1348 8.44497 21.9263 10.2183 21.9263 12.2978C21.9188 13.9405 21.4335 15.3406 20.4628 16.5017Z" fill="#FF015C"/>
</svg>
