<svg width="25" height="17" viewBox="0 0 25 17" fill="none" xmlns="http://www.w3.org/2000/svg">
<path fill-rule="evenodd" clip-rule="evenodd" d="M0.254883 1.28119C0.254883 0.728904 0.702598 0.281189 1.25488 0.281189H23.9215C24.4738 0.281189 24.9215 0.728904 24.9215 1.28119C24.9215 1.83347 24.4738 2.28119 23.9215 2.28119H1.25488C0.702598 2.28119 0.254883 1.83347 0.254883 1.28119ZM0.254883 8.36452C0.254883 7.81224 0.702598 7.36452 1.25488 7.36452L23.9215 7.36452C24.4738 7.36452 24.9215 7.81224 24.9215 8.36452C24.9215 8.91681 24.4738 9.36452 23.9215 9.36452L1.25488 9.36452C0.702598 9.36452 0.254883 8.91681 0.254883 8.36452ZM1.25488 14.4479C0.702598 14.4479 0.254883 14.8956 0.254883 15.4479C0.254883 16.0001 0.702598 16.4479 1.25488 16.4479H23.9215C24.4738 16.4479 24.9215 16.0001 24.9215 15.4479C24.9215 14.8956 24.4738 14.4479 23.9215 14.4479H1.25488Z" fill="#9A7B5D"/>
</svg>
