<svg width="25" height="25" viewBox="0 0 25 25" fill="none" xmlns="http://www.w3.org/2000/svg">
<path fill-rule="evenodd" clip-rule="evenodd" d="M5.65617 5.48918C6.0467 5.09866 6.67986 5.09866 7.07039 5.48918L12.3633 10.7821L17.6562 5.48918C18.0467 5.09866 18.6799 5.09866 19.0704 5.48918C19.4609 5.87971 19.4609 6.51287 19.0704 6.9034L13.7775 12.1963L19.0704 17.4892C19.4609 17.8797 19.4609 18.5129 19.0704 18.9034C18.6799 19.2939 18.0467 19.2939 17.6562 18.9034L12.3633 13.6105L7.07039 18.9034C6.67986 19.2939 6.0467 19.2939 5.65617 18.9034C5.26565 18.5129 5.26565 17.8797 5.65617 17.4892L10.9491 12.1963L5.65617 6.9034C5.26565 6.51287 5.26565 5.87971 5.65617 5.48918Z" fill="#9A7B5D"/>
</svg>
