<svg width="25" height="25" viewBox="0 0 25 25" fill="none" xmlns="http://www.w3.org/2000/svg">
<path fill-rule="evenodd" clip-rule="evenodd" d="M14.7266 3.97559C15.6906 3.97559 16.3381 3.97718 16.8212 4.04212C17.2826 4.10417 17.4801 4.21139 17.6104 4.34171C17.7408 4.47202 17.848 4.66952 17.91 5.13098C17.9565 5.47648 17.9705 5.90615 17.9748 6.47559H16.8884L16.7814 6.47559L16.7266 6.47559H12.7266H4.72656C4.03621 6.47559 3.47656 5.91594 3.47656 5.22559C3.47656 4.53523 4.03621 3.97559 4.72656 3.97559H14.7266ZM1.97656 5.22559C1.97656 3.70681 3.20778 2.47559 4.72656 2.47559H14.7266H14.7786H14.7786C15.677 2.47556 16.4263 2.47553 17.021 2.5555C17.6488 2.6399 18.2156 2.82557 18.6711 3.28104C19.1266 3.73651 19.3122 4.30331 19.3967 4.93111C19.4566 5.37731 19.4716 5.91043 19.4753 6.52827C19.7026 6.54423 19.9168 6.56502 20.1183 6.59211C21.0184 6.71313 21.7763 6.97202 22.3782 7.57394C22.9801 8.17585 23.239 8.93373 23.36 9.83384C23.4239 10.3088 23.4528 10.8544 23.4658 11.4756H21.7266C20.2078 11.4756 18.9766 12.7068 18.9766 14.2256C18.9766 15.7444 20.2078 16.9756 21.7266 16.9756H23.4658C23.4528 17.5968 23.4239 18.1424 23.36 18.6173C23.239 19.5175 22.9801 20.2753 22.3782 20.8772C21.7763 21.4792 21.0184 21.7381 20.1183 21.8591C19.2513 21.9756 18.149 21.9756 16.7814 21.9756H16.7266H8.72656H8.67169C7.3041 21.9756 6.20178 21.9756 5.33481 21.8591C4.4347 21.7381 3.67683 21.4792 3.07491 20.8772C2.473 20.2753 2.2141 19.5175 2.09309 18.6173C1.97653 17.7504 1.97654 16.6481 1.97656 15.2805V15.2256V5.22559ZM23.4766 12.9756C23.4766 13.04 23.4766 13.1051 23.4766 13.1707V13.2256V15.2256V15.2805C23.4766 15.3461 23.4766 15.4112 23.4766 15.4756H21.7266C21.0362 15.4756 20.4766 14.9159 20.4766 14.2256C20.4766 13.5352 21.0362 12.9756 21.7266 12.9756H23.4766Z" fill="#6E6655"/>
</svg>
