<svg width="14" height="14" viewBox="0 0 14 14" fill="none" xmlns="http://www.w3.org/2000/svg">
<path d="M9.31445 10.1221C9.31445 10.3982 9.53831 10.6221 9.81445 10.6221C10.0906 10.6221 10.3145 10.3982 10.3145 10.1221L9.31445 10.1221ZM10.168 0.768517C9.97274 0.573255 9.65616 0.573255 9.4609 0.768517L6.27892 3.9505C6.08366 4.14576 6.08366 4.46234 6.27892 4.6576C6.47418 4.85287 6.79076 4.85287 6.98603 4.6576L9.81445 1.82918L12.6429 4.6576C12.8381 4.85287 13.1547 4.85287 13.35 4.6576C13.5452 4.46234 13.5452 4.14576 13.35 3.9505L10.168 0.768517ZM10.3145 10.1221L10.3145 1.12207L9.31445 1.12207L9.31445 10.1221L10.3145 10.1221Z" fill="#6E6655"/>
<path d="M3.4609 13.4756C3.65616 13.6709 3.97274 13.6709 4.16801 13.4756L7.34999 10.2936C7.54525 10.0984 7.54525 9.7818 7.34999 9.58654C7.15472 9.39127 6.83814 9.39127 6.64288 9.58654L3.81445 12.415L0.986026 9.58654C0.790764 9.39127 0.474182 9.39127 0.278919 9.58654C0.0836572 9.7818 0.0836572 10.0984 0.278919 10.2936L3.4609 13.4756ZM4.31445 4.12207C4.31445 3.84593 4.0906 3.62207 3.81445 3.62207C3.53831 3.62207 3.31445 3.84593 3.31445 4.12207L4.31445 4.12207ZM4.31445 13.1221L4.31445 4.12207L3.31445 4.12207L3.31445 13.1221L4.31445 13.1221Z" fill="#6E6655"/>
</svg>
