<svg width="25" height="25" viewBox="0 0 25 25" fill="none" xmlns="http://www.w3.org/2000/svg">
<path fill-rule="evenodd" clip-rule="evenodd" d="M8.72656 2.56763C6.10321 2.56763 3.97656 4.69427 3.97656 7.31763C3.97656 9.94098 6.10321 12.0676 8.72656 12.0676C11.3499 12.0676 13.4766 9.94098 13.4766 7.31763C13.4766 4.69427 11.3499 2.56763 8.72656 2.56763ZM13.9766 3.31763C13.9766 2.90341 14.3123 2.56763 14.7266 2.56763C17.3499 2.56763 19.4766 4.69427 19.4766 7.31763C19.4766 9.94098 17.3499 12.0676 14.7266 12.0676C14.3123 12.0676 13.9766 11.7318 13.9766 11.3176C13.9766 10.9034 14.3123 10.5676 14.7266 10.5676C16.5215 10.5676 17.9766 9.11255 17.9766 7.31763C17.9766 5.5227 16.5215 4.06763 14.7266 4.06763C14.3123 4.06763 13.9766 3.73184 13.9766 3.31763ZM6.72656 14.5676C4.10321 14.5676 1.97656 16.6943 1.97656 19.3176C1.97656 20.8364 3.20778 22.0676 4.72656 22.0676H12.7266C14.2453 22.0676 15.4766 20.8364 15.4766 19.3176C15.4766 16.6943 13.3499 14.5676 10.7266 14.5676H6.72656ZM16.7266 14.5676C16.3123 14.5676 15.9766 14.9034 15.9766 15.3176C15.9766 15.7318 16.3123 16.0676 16.7266 16.0676H18.7266C20.5215 16.0676 21.9766 17.5227 21.9766 19.3176C21.9766 20.008 21.4169 20.5676 20.7266 20.5676H16.7266C16.3123 20.5676 15.9766 20.9034 15.9766 21.3176C15.9766 21.7318 16.3123 22.0676 16.7266 22.0676H20.7266C22.2453 22.0676 23.4766 20.8364 23.4766 19.3176C23.4766 16.6943 21.3499 14.5676 18.7266 14.5676H16.7266Z" fill="#6E6655"/>
</svg>
