<svg width="25" height="25" viewBox="0 0 25 25" fill="none" xmlns="http://www.w3.org/2000/svg">
<g clip-path="url(#clip0_2002_14994)">
<path fill-rule="evenodd" clip-rule="evenodd" d="M9.47656 1.40759C9.47656 0.993379 9.14078 0.657593 8.72656 0.657593C8.31235 0.657593 7.97656 0.993379 7.97656 1.40759V2.68075C7.78948 2.68828 7.61305 2.69827 7.44642 2.71151C6.75253 2.76665 6.16466 2.88166 5.62569 3.14745C4.68789 3.60992 3.92889 4.36892 3.46642 5.30672C3.20063 5.84569 3.08562 6.43357 3.03048 7.12745C2.97655 7.80613 2.97656 8.64736 2.97656 9.70887V9.74093V13.4076V13.464C2.97655 15.3018 2.97653 16.7574 3.1297 17.8966C3.28733 19.069 3.61944 20.018 4.36781 20.7663C5.11617 21.5147 6.06512 21.8468 7.23754 22.0045C8.37675 22.1576 9.83237 22.1576 11.6701 22.1576H11.6702H11.7266H13.7266H13.783H13.783C15.6208 22.1576 17.0764 22.1576 18.2156 22.0045C19.388 21.8468 20.337 21.5147 21.0853 20.7663C21.8337 20.018 22.1658 19.069 22.3234 17.8966C22.4766 16.7574 22.4766 15.3018 22.4766 13.464V13.464V13.4076V11.4076V11.3512V11.3511C22.4766 9.5134 22.4766 8.05778 22.3234 6.91857C22.1658 5.74615 21.8337 4.7972 21.0853 4.04884C20.337 3.30047 19.388 2.96836 18.2156 2.81073C17.9827 2.77941 17.7365 2.7545 17.4766 2.73468V1.40759C17.4766 0.993379 17.1408 0.657593 16.7266 0.657593C16.3123 0.657593 15.9766 0.993379 15.9766 1.40759V2.67031C15.3145 2.65758 14.5852 2.65759 13.783 2.65759L13.7266 2.65759H10.0599L10.0278 2.65759C9.83708 2.65759 9.65343 2.65759 9.47656 2.6579V1.40759ZM7.72656 7.65759C7.31235 7.65759 6.97656 7.99338 6.97656 8.40759C6.97656 8.82181 7.31235 9.15759 7.72656 9.15759H17.7266C18.1408 9.15759 18.4766 8.82181 18.4766 8.40759C18.4766 7.99338 18.1408 7.65759 17.7266 7.65759H7.72656ZM6.97656 12.4076C6.97656 11.9934 7.31235 11.6576 7.72656 11.6576H13.7266C14.1408 11.6576 14.4766 11.9934 14.4766 12.4076C14.4766 12.8218 14.1408 13.1576 13.7266 13.1576H7.72656C7.31235 13.1576 6.97656 12.8218 6.97656 12.4076Z" fill="#6E6655"/>
</g>
<defs>
<clipPath id="clip0_2002_14994">
<rect width="24" height="24" fill="white" transform="translate(0.726562 0.407593)"/>
</clipPath>
</defs>
</svg>
