<svg width="25" height="25" viewBox="0 0 25 25" fill="none" xmlns="http://www.w3.org/2000/svg">
<g clip-path="url(#clip0_2002_14980)">
<path fill-rule="evenodd" clip-rule="evenodd" d="M9.47656 1.5896C9.47656 1.17539 9.14078 0.8396 8.72656 0.8396C8.31235 0.8396 7.97656 1.17539 7.97656 1.5896V2.86275C7.78948 2.87029 7.61305 2.88028 7.44642 2.89352C6.75253 2.94866 6.16466 3.06367 5.62569 3.32945C4.68789 3.79193 3.92889 4.55092 3.46642 5.48873C3.20063 6.02769 3.08562 6.61557 3.03048 7.30946C2.97655 7.98814 2.97656 8.82937 2.97656 9.89088V9.92293V13.5896V13.646C2.97655 15.4838 2.97653 16.9394 3.1297 18.0786C3.28733 19.251 3.61944 20.2 4.36781 20.9484C5.11617 21.6967 6.06512 22.0288 7.23754 22.1865C8.37675 22.3396 9.83237 22.3396 11.6701 22.3396H11.6702H11.7266H13.7266H13.783H13.783C15.6208 22.3396 17.0764 22.3396 18.2156 22.1865C19.388 22.0288 20.337 21.6967 21.0853 20.9484C21.8337 20.2 22.1658 19.251 22.3234 18.0786C22.4766 16.9394 22.4766 15.4838 22.4766 13.6461V13.646V13.5896V11.5896V11.5332V11.5331C22.4766 9.6954 22.4766 8.23978 22.3234 7.10058C22.1658 5.92815 21.8337 4.97921 21.0853 4.23084C20.337 3.48248 19.388 3.15036 18.2156 2.99273C17.9827 2.96142 17.7365 2.93651 17.4766 2.91669V1.5896C17.4766 1.17539 17.1408 0.8396 16.7266 0.8396C16.3123 0.8396 15.9766 1.17539 15.9766 1.5896V2.85232C15.3145 2.83959 14.5852 2.83959 13.783 2.8396L13.7266 2.8396H10.0599L10.0278 2.8396C9.83708 2.8396 9.65343 2.8396 9.47656 2.83991V1.5896ZM12.7266 11.5896C13.8311 11.5896 14.7266 10.6942 14.7266 9.5896C14.7266 8.48503 13.8311 7.5896 12.7266 7.5896C11.622 7.5896 10.7266 8.48503 10.7266 9.5896C10.7266 10.6942 11.622 11.5896 12.7266 11.5896ZM8.72656 16.2563C8.72656 14.7835 9.92047 13.5896 11.3932 13.5896H14.0599C15.5327 13.5896 16.7266 14.7835 16.7266 16.2563C16.7266 16.9926 16.1296 17.5896 15.3932 17.5896H10.0599C9.32352 17.5896 8.72656 16.9926 8.72656 16.2563Z" fill="#6E6655"/>
</g>
<defs>
<clipPath id="clip0_2002_14980">
<rect width="24" height="24" fill="white" transform="translate(0.726562 0.5896)"/>
</clipPath>
</defs>
</svg>
